{"glyphs":{"0":{"ha":281,"x_min":6,"x_max":278,"o":"m 174 57 l 174 57 q 153 34 165 45 q 129 14 142 23 q 97 1 115 5 l 92 0 q 90 -1 91 -1 q 88 -1 89 -1 l 83 -1 q 79 -1 81 -1 q 78 -1 79 -1 q 77 0 77 -1 q 73 0 75 0 l 68 1 q 61 4 64 2 q 60 5 60 4 q 32 28 42 14 q 17 56 22 41 l 16 59 l 15 60 l 15 60 q 15 61 15 60 q 15 61 15 61 q 15 61 15 61 q 15 61 15 61 q 14 62 15 61 l 14 63 q 14 64 14 64 q 13 66 14 65 l 12 71 q 9 86 9 79 q 6 115 7 101 q 9 170 6 144 q 19 222 14 197 q 45 313 30 271 q 114 441 77 397 q 115 442 115 441 q 116 443 116 443 q 104 447 110 442 q 100 456 100 451 q 104 466 100 462 q 107 469 104 466 q 109 470 108 469 q 114 475 111 473 q 117 478 115 477 q 120 481 118 479 q 121 481 120 481 q 127 488 123 484 q 144 503 134 494 q 169 519 155 511 q 177 524 173 522 q 179 525 178 524 q 185 528 182 526 q 205 532 194 531 q 229 530 216 534 q 250 515 241 525 q 263 494 259 505 q 271 472 268 484 q 277 425 276 449 q 276 375 278 401 q 261 271 273 324 q 248 216 256 243 l 246 210 l 244 203 q 243 198 243 200 q 240 189 241 194 q 237 181 239 185 q 235 176 236 178 q 230 161 233 169 q 174 57 210 106 m 132 56 l 132 56 q 149 77 141 66 q 201 173 182 121 q 206 186 204 179 q 208 190 208 188 q 211 198 210 194 q 214 207 212 203 q 215 212 214 210 l 217 218 l 219 224 q 232 277 227 251 q 247 377 243 329 q 248 424 249 401 q 243 465 248 446 q 229 496 239 486 q 220 504 224 502 q 208 505 214 505 q 195 501 201 504 q 191 500 193 500 q 189 498 190 499 q 188 498 189 498 q 182 496 185 497 q 161 481 171 489 q 145 467 152 474 q 149 469 147 469 q 156 473 153 471 q 157 473 157 473 q 161 475 159 474 q 166 476 166 476 q 179 474 173 477 q 187 463 185 471 q 186 450 189 456 q 176 442 182 444 l 174 441 q 172 441 174 441 q 170 440 171 441 q 169 440 170 440 q 168 439 168 440 q 165 438 167 439 q 140 418 156 434 q 109 370 125 400 q 77 301 92 341 q 52 214 62 262 q 43 166 46 191 q 39 115 39 141 q 41 91 39 103 q 43 79 42 85 l 44 77 q 44 75 44 75 q 45 73 45 74 l 45 72 q 45 72 45 72 q 45 72 45 72 q 45 71 45 71 l 45 71 l 45 71 l 47 68 q 58 47 52 56 q 73 34 64 37 q 91 32 81 30 q 112 41 101 34 q 132 56 122 47 m 235 519 l 235 519 q 235 519 235 519 q 235 519 235 519 q 235 519 235 519 q 235 519 235 519 q 235 519 235 519 z "},"1":{"ha":137,"x_min":1,"x_max":132,"o":"m 131 514 l 131 514 q 132 507 131 511 q 131 481 132 494 q 124 427 129 454 q 103 313 115 372 q 54 103 77 193 q 37 35 43 60 q 31 16 33 22 q 29 8 29 8 q 22 0 27 3 q 12 -1 18 -2 q 4 5 7 1 q 3 16 1 10 l 3 16 q 5 23 3 16 q 10 41 7 29 q 27 110 16 67 q 73 319 49 200 q 92 431 84 377 q 98 483 96 458 q 98 500 98 492 q 98 500 98 500 q 98 500 98 500 q 91 494 94 497 q 87 490 89 492 q 85 488 86 490 q 77 481 81 485 q 73 477 75 479 q 71 475 73 476 q 64 467 67 471 q 61 465 62 466 q 57 459 59 462 q 51 453 54 456 q 47 448 47 448 q 35 442 41 442 q 22 446 28 441 q 16 458 16 451 q 20 471 15 465 q 20 471 20 471 q 20 471 20 471 q 20 471 20 471 q 20 471 20 471 q 24 476 20 471 q 27 479 26 477 q 31 483 28 481 q 31 484 31 483 q 39 491 35 487 q 43 496 41 493 q 49 502 45 498 q 52 505 51 504 q 61 514 56 509 q 64 516 62 515 q 68 520 66 518 q 77 527 73 524 q 84 532 81 530 q 87 534 85 533 q 91 536 89 535 q 92 537 92 536 q 94 538 93 537 q 96 538 95 538 l 96 539 l 96 539 l 98 540 l 98 540 l 100 541 q 101 541 100 541 q 107 541 104 542 q 113 541 111 541 q 123 534 120 538 l 124 533 l 125 532 q 125 530 125 531 q 127 528 127 529 q 129 522 128 525 q 131 514 130 518 m 111 508 l 111 508 q 111 509 111 509 q 111 509 111 509 q 111 509 111 509 l 111 509 l 111 508 z "},"2":{"ha":252,"x_min":1,"x_max":250,"o":"m 39 62 l 39 62 q 33 47 35 54 q 31 34 31 39 q 32 33 32 33 q 32 32 32 32 q 33 31 33 31 q 34 31 33 31 q 39 29 35 30 l 39 29 l 39 29 l 40 28 l 41 28 q 42 28 42 28 q 43 28 43 28 l 45 28 q 47 28 46 28 q 48 28 47 28 q 51 28 50 28 q 52 28 51 28 q 55 29 53 29 q 58 30 57 29 q 73 34 66 31 q 120 55 98 43 q 124 57 122 56 q 127 59 126 58 q 165 77 149 70 q 192 90 182 86 q 199 93 197 92 q 202 94 202 94 q 212 93 208 96 q 220 85 217 91 q 219 75 221 80 q 212 68 217 71 l 212 68 q 209 67 212 68 q 202 64 207 66 q 176 53 193 61 q 140 35 161 45 q 137 33 138 33 q 112 20 125 26 q 82 7 98 13 q 64 2 74 4 q 60 1 62 1 q 55 0 57 1 q 54 0 54 0 q 50 0 52 0 q 49 0 50 0 q 44 0 47 0 l 41 0 q 39 0 40 0 q 39 0 39 0 l 37 0 l 36 0 l 35 1 l 35 1 l 33 1 q 21 5 27 1 q 9 15 14 8 q 3 29 4 22 q 5 54 1 43 q 12 74 7 64 q 30 111 20 93 q 69 174 49 142 q 74 182 71 178 q 118 254 96 218 q 159 328 140 291 q 162 335 161 332 q 168 347 165 340 q 171 352 170 349 q 178 365 174 359 q 180 370 179 368 q 194 401 187 386 q 195 405 195 403 q 197 410 197 408 q 200 416 199 413 q 201 419 201 418 q 205 429 203 424 l 205 431 l 206 432 l 206 432 l 206 433 l 208 437 q 216 471 214 454 q 216 486 217 479 q 214 497 216 493 q 212 500 213 499 q 212 501 212 500 q 210 503 211 502 q 202 505 207 505 q 179 502 191 506 q 158 491 168 497 q 128 466 138 478 q 119 447 119 453 q 119 446 119 446 q 119 445 119 446 q 119 445 119 445 l 119 444 l 119 444 l 119 444 q 119 441 119 441 l 119 441 q 114 429 119 434 q 102 423 109 423 q 89 427 94 422 q 83 439 84 432 l 83 439 q 83 442 83 439 l 83 443 q 83 443 83 443 q 83 444 83 443 q 83 445 83 444 q 83 447 83 446 q 83 448 83 448 q 83 449 83 448 q 84 454 84 452 q 101 488 87 469 q 140 521 115 505 q 168 534 152 528 q 185 538 176 537 q 205 539 195 541 q 229 531 217 538 q 239 522 235 527 q 245 511 243 516 q 250 488 250 498 q 249 467 250 477 q 239 427 245 446 l 237 422 l 237 421 l 237 420 l 236 419 l 235 417 q 234 413 235 415 q 232 408 233 410 q 231 404 231 406 q 229 399 229 401 q 227 394 227 396 q 224 389 225 391 q 210 356 217 372 q 207 351 208 353 q 199 337 203 344 q 197 332 199 334 q 191 320 194 326 q 187 313 189 317 q 145 238 167 275 q 99 165 123 201 q 95 159 97 162 q 56 96 74 127 q 39 62 46 79 z "},"3":{"ha":316,"x_min":-1,"x_max":314,"o":"m 282 348 l 282 348 q 302 323 295 338 q 313 269 314 296 q 307 216 313 241 q 269 119 295 165 q 239 77 256 97 q 201 41 222 57 q 155 13 180 24 q 130 4 143 8 q 104 -1 117 1 l 100 -1 l 97 -1 q 94 -1 96 -1 q 90 -1 92 -1 q 87 -1 88 -1 q 82 -1 85 -1 l 75 1 q 47 9 61 3 q 6 50 20 21 q 0 79 -1 64 q 9 109 1 96 q 28 132 17 123 q 52 146 40 140 q 63 147 58 149 q 71 140 68 145 q 71 130 73 135 q 64 122 69 125 l 64 122 q 45 111 54 117 q 33 96 37 104 q 31 61 23 79 q 60 34 40 43 q 79 28 69 30 l 85 28 q 88 28 86 28 q 90 28 89 28 q 94 28 92 27 q 95 28 94 28 l 98 28 l 100 28 q 123 32 112 29 q 144 39 134 35 q 183 63 165 49 q 216 96 201 78 q 243 135 231 114 q 277 222 267 176 q 282 268 282 245 q 280 290 282 279 q 274 309 279 300 q 263 323 270 318 q 248 329 257 328 q 229 328 239 330 q 208 321 218 325 q 168 297 187 311 q 159 291 163 294 q 151 284 155 288 q 130 267 140 275 l 130 267 q 117 264 123 263 q 106 270 111 264 q 103 281 102 275 q 109 292 104 288 q 134 312 121 302 q 150 326 142 319 q 185 364 169 345 q 200 385 193 374 q 214 407 208 395 q 233 452 227 429 q 236 475 235 465 q 233 495 236 487 q 229 501 231 499 q 224 505 227 503 q 208 505 218 507 q 187 496 198 503 q 167 484 176 491 q 146 467 157 476 l 142 463 l 138 459 l 135 456 l 133 454 l 128 450 q 116 444 123 444 q 103 450 109 444 q 98 462 98 455 q 103 475 98 469 l 103 475 l 108 479 l 111 481 l 113 484 l 118 489 l 123 494 q 146 512 134 503 q 171 528 158 520 q 201 538 184 534 q 218 541 209 541 q 237 536 227 540 q 254 524 247 532 q 264 508 261 517 q 270 475 271 490 q 265 444 269 458 q 243 391 257 415 q 228 366 236 378 q 223 359 225 363 q 222 358 222 359 q 252 360 236 361 q 282 348 268 358 z "},"4":{"ha":258,"x_min":-5,"x_max":263,"o":"m 243 251 l 243 251 q 254 250 249 252 q 261 243 259 248 q 261 233 263 237 q 253 225 258 228 q 247 223 253 225 q 230 216 241 220 q 212 210 222 214 q 183 80 197 136 q 161 5 169 24 q 149 -4 157 -4 q 144 -3 146 -4 q 137 3 139 -1 q 136 14 134 8 q 156 83 143 32 q 182 201 168 134 q 168 197 176 199 q 126 186 149 191 q 77 180 103 181 q 49 180 63 179 q 18 191 34 182 q 11 197 14 194 l 9 199 q 7 201 8 200 q 7 201 7 201 q 5 203 6 202 l 5 205 q -2 222 -1 214 q -3 254 -5 239 q 9 307 1 282 q 26 357 18 333 q 63 441 45 404 q 92 498 81 477 q 100 513 96 507 q 100 515 100 513 q 103 520 103 520 q 114 529 107 527 q 127 528 121 531 q 136 517 134 524 q 134 503 138 510 q 134 503 134 503 q 134 503 134 503 l 134 503 q 131 498 134 503 q 129 493 130 496 q 123 482 126 489 q 94 426 111 461 q 57 345 76 390 q 40 298 47 322 q 28 250 32 274 q 28 228 26 237 q 31 221 29 224 l 31 220 q 31 220 31 220 q 31 220 31 220 q 31 220 31 220 q 31 220 31 220 q 32 220 31 220 q 32 220 32 220 q 32 220 32 220 q 32 219 32 220 l 33 219 q 35 216 33 218 q 53 210 42 212 q 75 210 64 209 q 120 215 98 210 q 161 224 142 219 q 189 232 176 228 q 231 476 220 376 q 235 486 231 482 q 245 488 239 489 q 254 484 251 488 q 257 474 258 479 q 219 241 248 379 q 220 242 220 242 q 221 242 220 242 q 237 248 232 246 q 243 250 243 250 l 243 251 z "},"5":{"ha":332,"x_min":1,"x_max":331,"o":"m 10 109 l 10 109 q 17 117 12 115 q 27 118 22 119 q 35 111 33 116 q 36 101 38 106 l 36 100 q 33 92 36 100 q 32 87 33 90 q 31 84 32 85 q 31 81 31 83 q 30 77 31 79 q 30 75 30 76 q 29 73 29 74 q 29 71 29 72 q 29 70 29 71 q 29 67 29 68 q 28 64 28 66 q 28 62 28 63 q 29 60 29 61 q 30 54 29 57 q 30 52 30 53 q 37 38 32 44 q 54 28 43 32 q 79 26 64 26 q 138 39 106 27 q 170 52 154 44 q 201 68 186 59 q 259 115 233 88 q 281 145 272 130 q 295 178 291 161 q 295 212 298 195 q 280 242 291 228 q 256 267 270 256 l 252 270 l 248 273 q 241 278 245 275 q 238 280 239 279 q 233 283 236 281 q 233 283 233 283 q 225 288 229 286 q 161 317 193 306 q 152 321 157 319 q 145 323 149 321 q 144 323 144 323 q 142 324 142 323 q 140 325 141 324 q 137 326 138 326 q 135 327 136 326 q 132 328 134 327 q 131 328 132 328 q 127 330 130 330 q 111 343 118 335 q 108 346 109 345 q 107 347 107 347 q 106 348 106 348 q 104 351 105 350 q 102 355 102 353 q 101 356 101 356 q 99 359 100 358 q 98 361 99 360 q 94 380 94 371 q 94 383 94 382 q 94 390 94 387 q 94 393 94 391 q 94 398 94 395 q 101 428 96 415 q 111 451 106 441 q 118 463 115 457 l 112 463 q 102 467 106 463 q 98 476 98 471 q 102 486 98 481 q 112 490 106 490 l 135 490 q 138 494 137 492 q 142 500 141 498 q 144 502 144 502 q 156 509 149 508 q 169 505 163 509 q 176 490 176 498 l 309 490 q 319 486 315 490 q 323 476 323 481 q 319 467 323 471 q 309 463 315 463 l 159 463 q 151 451 155 458 q 142 435 147 444 q 134 416 138 427 q 128 395 130 406 q 127 391 127 393 q 127 389 127 390 q 127 386 127 387 q 127 384 127 385 q 127 383 127 384 q 130 374 128 378 q 135 366 132 370 q 144 360 138 363 l 146 358 q 149 357 147 358 q 149 357 149 357 l 153 356 q 155 355 154 355 q 157 355 156 355 q 173 349 165 351 q 242 316 208 336 q 250 311 246 313 q 251 311 250 311 q 259 305 255 308 q 268 298 263 302 l 272 296 l 276 292 q 306 260 292 279 q 326 218 319 242 q 326 171 331 195 q 308 129 320 148 q 281 95 296 110 q 217 43 252 64 q 182 25 200 33 q 148 11 165 17 q 113 1 130 5 q 79 -3 96 -2 q 46 2 62 -3 q 18 19 29 7 q 3 45 6 32 q 3 47 3 46 q 1 58 1 53 q 1 61 1 60 q 1 64 1 62 q 1 69 1 66 q 2 73 1 71 q 2 74 2 73 q 3 79 2 77 q 3 81 3 80 q 4 87 3 84 q 5 91 5 89 q 5 94 5 92 q 7 99 6 97 q 10 109 10 109 z "},"6":{"ha":287,"x_min":-39,"x_max":283,"o":"m 266 159 l 266 159 q 265 154 266 156 q 263 144 264 149 q 238 85 255 113 q 231 76 235 81 q 229 73 230 74 q 225 68 227 70 q 224 66 224 67 l 219 60 q 195 37 208 47 q 168 18 183 26 q 138 4 154 9 q 103 -2 121 -1 q 67 3 85 -3 q 36 22 50 9 q 25 34 30 27 q 23 35 24 35 q 20 41 22 38 q 18 43 19 42 l 16 47 q 14 50 15 48 q 14 51 14 50 l 9 59 q 7 64 9 62 q 7 66 7 65 l 5 70 l 5 72 q 4 72 5 72 q 4 73 4 73 q 4 73 4 73 q 4 73 4 73 q 4 73 4 73 l 4 73 l 4 75 l 1 83 l 1 87 l -1 91 l -2 99 q -3 104 -3 102 q -3 107 -3 106 l -4 115 q -5 127 -5 121 q -7 123 -6 125 q -9 120 -8 121 q -9 119 -9 119 q -10 118 -9 118 q -11 115 -10 116 q -12 113 -12 113 l -12 111 q -18 103 -14 106 q -28 102 -23 100 q -37 109 -34 104 q -38 119 -39 113 q -37 123 -38 119 q -35 129 -36 125 q -34 130 -35 130 q -32 136 -33 133 q -4 172 -24 151 q -3 173 -4 172 q -3 174 -3 173 q -3 174 -3 174 q -2 178 -3 176 q 10 238 2 210 q 52 345 27 296 q 104 432 76 393 q 134 468 119 452 q 136 470 135 469 q 138 472 136 471 q 138 473 138 472 q 142 475 140 474 q 142 477 142 476 q 149 484 146 480 q 152 486 151 484 q 158 490 155 488 q 161 492 159 491 q 162 494 161 493 l 164 495 l 167 496 q 170 498 168 498 q 172 500 171 499 q 173 500 172 500 q 174 501 174 501 l 176 503 q 178 503 177 503 q 180 505 179 504 l 181 505 l 181 505 q 181 505 181 505 q 181 505 181 505 q 182 505 182 505 q 182 505 182 505 q 182 505 182 505 q 182 505 182 505 l 183 506 l 186 507 q 204 513 195 511 q 224 515 214 515 q 243 513 233 515 q 260 503 253 509 q 271 491 267 498 q 277 479 275 485 q 280 470 279 474 q 283 456 283 461 q 283 452 283 454 q 283 451 283 451 q 279 438 283 444 q 267 433 274 433 q 254 437 259 433 q 248 450 248 442 l 248 450 l 248 450 q 248 451 248 450 q 248 451 248 451 q 248 452 248 452 q 246 460 248 456 q 241 471 245 466 q 232 479 239 477 q 224 480 229 480 q 212 479 218 480 q 199 475 205 477 l 197 474 l 196 473 l 196 473 q 193 472 195 473 q 192 471 193 472 l 190 471 q 189 470 189 470 q 188 469 189 470 q 188 469 188 469 q 185 468 186 469 l 184 467 l 182 465 q 179 463 180 465 q 174 459 177 461 q 172 457 174 458 q 167 452 170 455 q 165 451 166 452 q 163 448 164 450 q 162 448 162 448 q 159 444 160 446 q 132 412 145 430 q 106 373 119 394 q 81 330 93 353 q 41 229 58 283 q 36 207 39 218 q 48 215 41 211 q 125 256 80 237 q 175 269 148 264 q 203 269 189 271 q 218 267 211 269 q 234 261 226 264 q 248 251 241 257 q 258 237 254 245 q 269 205 267 221 q 269 199 269 202 q 269 197 269 198 q 269 193 269 195 q 269 189 269 191 q 269 182 269 186 q 269 174 269 178 q 268 170 268 172 q 266 159 267 164 m 239 177 l 239 177 q 239 179 239 178 q 239 190 239 184 q 239 190 239 190 q 239 197 239 193 q 239 199 239 197 q 239 202 239 200 q 233 222 238 214 q 228 230 231 227 q 220 235 224 233 q 211 239 216 237 q 201 241 206 240 q 178 240 190 241 q 135 229 156 237 q 64 192 94 213 q 28 165 43 178 q 28 118 26 142 l 28 111 q 28 109 28 110 q 29 104 29 106 l 31 97 l 31 94 l 33 91 l 34 84 l 35 83 l 35 83 q 35 83 35 83 q 35 83 35 83 q 35 83 35 83 q 35 83 35 83 l 35 81 l 37 77 q 37 75 37 77 q 39 71 38 73 l 42 65 q 43 64 42 64 q 43 62 43 63 l 45 60 q 46 58 45 59 q 49 54 47 56 q 50 52 50 54 q 57 45 54 48 q 77 33 66 37 q 102 29 90 28 q 128 33 115 30 q 153 45 141 38 q 176 60 165 52 q 196 79 186 69 l 201 85 q 201 87 201 85 q 205 90 203 88 q 207 94 206 92 q 212 102 210 98 q 234 151 227 125 q 236 159 235 155 q 237 164 237 161 q 238 172 237 168 q 239 177 239 174 z "},"7":{"ha":241,"x_min":1,"x_max":244,"o":"m 106 165 l 106 165 q 109 176 107 170 q 120 218 114 197 q 125 239 123 229 q 127 246 126 243 l 56 241 q 43 245 48 240 q 37 257 38 250 q 41 270 37 264 q 53 276 45 275 q 54 276 54 276 l 136 279 q 138 286 137 282 q 142 305 140 296 q 145 314 144 310 q 151 334 148 324 q 156 363 154 349 q 159 392 159 378 q 156 446 161 421 q 134 484 149 471 q 98 498 117 497 q 64 492 79 498 q 44 479 50 486 q 38 468 38 471 q 37 468 37 468 q 37 467 37 467 q 37 467 37 467 q 37 467 37 467 q 37 467 37 467 q 37 467 37 467 q 37 467 37 467 q 37 467 37 467 q 37 467 37 467 q 37 466 37 466 q 37 464 37 464 q 31 452 36 456 q 18 448 25 448 q 6 454 10 449 q 2 467 1 460 q 2 467 2 467 q 2 467 2 467 q 2 467 2 467 q 2 469 2 467 q 2 469 2 469 q 2 470 2 470 q 2 471 2 471 q 3 472 3 471 q 4 477 3 475 q 18 503 7 489 q 52 524 31 515 q 74 530 62 528 q 100 532 86 532 q 128 526 114 531 q 155 510 142 520 q 167 498 161 505 q 176 484 172 492 q 187 454 184 470 q 191 390 195 422 q 187 358 190 374 q 180 327 184 342 q 175 306 178 316 q 172 297 174 302 q 168 279 170 288 l 230 281 q 240 278 236 281 q 244 269 243 275 q 240 259 244 263 q 231 254 237 255 l 159 249 q 149 211 154 229 q 136 163 142 186 q 134 157 135 160 q 124 120 129 138 q 121 110 123 115 q 117 94 119 102 q 111 69 113 81 q 104 43 106 55 q 102 38 103 41 q 96 11 96 11 l 96 11 q 90 2 94 5 q 79 1 85 -1 q 71 7 74 2 q 69 17 68 12 q 76 45 69 17 q 83 76 79 58 q 90 102 86 88 q 94 117 92 109 q 99 138 96 127 q 106 165 102 151 z "},"8":{"ha":248,"x_min":3,"x_max":253,"o":"m 211 90 l 211 90 q 188 62 200 75 q 132 18 163 37 q 99 3 116 9 q 81 -1 90 1 q 76 -2 79 -2 l 71 -3 q 69 -3 70 -3 q 68 -3 69 -3 l 66 -3 l 64 -3 l 64 -3 l 63 -3 q 62 -3 62 -3 q 62 -3 62 -3 q 62 -3 62 -3 q 62 -3 62 -3 q 62 -3 62 -3 l 57 -3 l 54 -3 l 52 -3 q 50 -2 51 -3 q 46 -1 48 -2 q 41 0 43 -1 q 21 12 30 4 q 9 31 13 21 q 5 50 5 41 q 6 85 3 68 q 14 116 9 101 q 37 172 23 146 q 52 196 44 184 q 53 197 52 197 q 59 208 56 203 l 61 210 l 63 213 q 66 217 64 215 q 67 218 66 218 q 70 221 68 220 q 140 317 110 276 q 133 322 136 319 q 111 340 122 331 q 85 365 98 351 q 66 399 73 379 q 64 438 60 419 q 66 448 64 443 q 66 450 66 449 q 68 456 67 453 q 71 462 69 459 q 71 465 71 463 q 73 467 72 466 q 75 473 73 470 q 77 476 76 474 q 79 480 78 478 q 81 485 80 483 q 83 488 82 486 q 86 492 85 490 q 87 494 87 493 q 89 497 88 496 q 92 501 90 498 q 102 514 97 508 q 114 526 108 521 q 142 545 126 538 q 174 555 157 553 q 210 549 193 557 q 236 528 226 542 q 250 500 246 515 q 252 472 253 486 q 243 424 251 445 q 226 386 235 402 q 208 357 217 370 q 184 326 194 337 q 184 325 184 326 q 186 324 185 324 q 211 298 199 312 q 233 267 223 284 l 237 258 l 240 251 l 241 249 q 241 249 241 249 q 241 249 241 249 q 241 248 241 248 q 241 248 241 248 q 241 248 241 248 q 241 248 241 248 l 242 247 l 242 246 l 243 241 l 245 237 q 246 233 245 235 q 247 232 246 233 q 248 229 247 231 q 249 222 248 226 l 250 213 q 251 193 251 203 q 245 155 250 174 q 231 121 239 137 q 211 90 222 104 m 134 367 l 134 367 q 155 350 144 359 q 161 345 157 348 q 163 348 162 347 q 165 351 164 349 q 193 391 184 377 q 214 433 205 409 q 220 472 220 452 q 210 508 221 493 q 196 519 204 515 q 178 522 188 522 q 138 501 157 519 q 129 492 133 496 q 121 481 124 486 q 118 477 119 479 q 117 475 117 476 q 115 472 115 474 q 113 469 114 471 q 108 459 110 465 q 106 457 107 458 q 98 433 100 445 q 100 410 96 420 q 113 388 103 398 q 134 367 122 377 m 163 86 l 163 86 q 184 110 174 97 q 200 136 193 123 q 212 165 208 150 q 216 194 216 180 q 216 207 216 201 q 216 209 216 208 l 214 216 q 214 220 214 218 q 213 223 213 222 q 213 224 213 224 q 212 227 212 226 l 211 231 l 210 234 l 210 235 l 210 235 q 210 235 210 235 l 208 237 l 205 245 l 201 251 q 184 275 195 264 q 162 298 174 288 q 162 298 162 298 q 162 298 162 298 q 122 241 144 273 q 92 200 108 222 q 88 195 90 197 l 87 192 l 85 189 q 79 181 82 185 q 78 179 79 180 q 65 157 71 168 q 44 106 53 133 q 38 80 40 94 q 37 54 36 66 q 40 43 38 48 q 45 35 42 39 q 52 31 47 33 q 54 31 53 31 l 56 31 l 58 30 l 59 30 l 62 30 q 62 30 62 30 q 62 30 62 30 l 63 30 l 65 30 l 67 30 q 67 30 67 30 q 69 31 68 30 l 72 31 q 72 31 72 31 q 75 31 73 31 q 88 35 81 33 q 115 47 102 40 q 163 86 141 63 z "},"9":{"ha":333,"x_min":9,"x_max":332,"o":"m 329 387 l 329 387 q 323 373 328 381 q 294 335 315 357 q 281 323 288 329 q 273 293 277 308 q 233 183 256 234 q 209 134 222 157 q 183 91 197 111 q 155 52 170 70 q 124 21 141 35 q 120 18 122 20 q 119 18 119 18 q 116 16 118 17 q 115 15 115 15 l 113 14 q 113 14 113 14 q 112 14 112 14 l 110 12 q 109 12 109 12 q 106 10 107 11 l 105 9 l 104 9 l 104 9 l 103 9 l 100 8 q 99 7 100 7 q 96 6 98 7 q 94 5 95 6 q 87 3 91 4 q 68 0 77 1 q 50 2 58 -1 q 33 9 40 5 q 22 21 26 15 q 12 42 14 33 q 9 55 10 50 q 9 59 9 58 q 9 60 9 60 q 13 70 9 66 q 22 75 16 74 q 32 71 28 75 q 37 61 36 67 l 37 61 l 37 61 q 37 60 37 61 q 37 60 37 60 q 37 58 37 60 q 38 49 37 55 q 44 37 40 43 q 56 28 48 31 q 66 26 61 26 q 80 29 73 27 q 85 31 83 30 q 87 31 86 31 q 90 32 88 32 q 91 33 90 33 l 93 33 l 94 34 l 94 34 q 98 36 96 35 l 100 37 q 100 37 100 37 q 101 37 100 37 l 102 38 q 104 40 103 39 q 105 41 105 40 q 108 42 106 41 q 134 70 121 53 q 161 105 148 85 q 185 147 173 125 q 208 194 197 170 q 229 245 220 219 q 245 296 238 270 q 238 291 242 294 q 157 251 204 269 q 104 240 133 242 q 73 242 90 239 q 42 258 56 245 q 22 288 28 270 q 22 288 22 288 q 20 296 21 292 q 19 304 20 300 q 18 311 18 307 q 18 313 18 312 q 18 316 18 315 q 18 317 18 317 l 18 321 l 18 321 l 18 323 l 18 325 l 18 329 q 19 334 19 332 q 19 336 19 335 q 19 338 19 337 q 20 345 20 341 q 21 352 20 349 q 28 383 24 368 q 98 492 49 446 q 155 531 123 516 q 189 541 171 538 q 227 538 208 544 q 260 517 246 532 q 271 502 267 510 q 272 500 271 501 q 275 494 274 497 l 277 490 l 279 486 q 281 479 281 482 q 282 477 282 479 l 283 476 l 283 475 l 283 473 l 285 469 q 286 466 286 467 q 287 460 286 463 l 288 452 q 292 418 292 435 q 291 387 292 403 q 292 389 292 388 q 295 396 294 394 q 296 397 295 397 q 296 399 296 399 l 296 401 q 305 412 299 408 q 319 413 311 415 q 329 405 326 411 q 330 391 332 399 q 329 387 330 391 m 220 319 l 220 319 q 258 349 242 334 q 258 350 258 349 q 259 358 258 354 q 263 418 264 388 q 260 447 262 433 l 259 454 q 258 458 258 456 q 257 461 257 460 l 256 465 l 256 466 l 255 467 q 255 467 255 467 q 255 467 255 467 l 255 467 q 254 470 254 469 q 252 475 253 473 l 251 477 l 250 481 q 247 485 248 483 q 246 486 247 486 q 239 497 243 492 q 218 510 230 506 q 193 511 206 513 q 180 509 186 511 q 167 503 173 507 q 119 471 140 491 q 59 374 76 428 q 52 347 54 360 q 52 344 52 346 q 52 340 52 342 q 51 334 51 337 q 50 331 51 332 q 50 327 50 329 l 50 323 l 50 322 l 50 321 q 50 321 50 321 q 50 321 50 321 q 50 321 50 321 l 50 321 l 50 317 q 50 317 50 317 q 50 314 50 315 q 50 312 50 313 q 51 309 50 310 q 52 302 51 305 q 53 298 52 300 q 53 297 53 298 q 57 288 55 292 q 63 281 60 284 q 102 273 78 271 q 146 282 125 275 q 220 319 189 298 z "},"\u0000":{"ha":694,"x_min":68,"x_max":627,"o":"m 68 0 l 68 972 l 627 972 l 627 0 l 68 0 m 102 34 l 593 34 l 593 939 l 102 939 l 102 34 m 220 779 q 260 808 241 798 q 336 828 296 828 q 436 796 398 828 q 474 709 474 764 q 458 643 474 676 q 399 555 443 609 q 332 465 357 500 q 308 398 308 430 q 324 308 308 372 l 302 308 q 279 408 279 374 q 334 556 279 460 q 389 703 389 652 q 367 764 389 742 q 305 787 345 787 q 258 775 279 787 q 220 748 241 765 l 220 779 m 264 227 l 302 266 q 316 273 310 273 q 331 265 323 273 l 369 224 q 375 211 375 217 q 368 196 375 203 l 330 154 q 316 144 321 144 q 302 151 309 144 l 261 199 q 256 212 256 205 q 264 227 256 218 z "},"\u001d":{"ha":694,"x_min":68,"x_max":627,"o":"m 68 0 l 68 972 l 627 972 l 627 0 l 68 0 m 102 34 l 593 34 l 593 939 l 102 939 l 102 34 m 220 779 q 260 808 241 798 q 336 828 296 828 q 436 796 398 828 q 474 709 474 764 q 458 643 474 676 q 399 555 443 609 q 332 465 357 500 q 308 398 308 430 q 324 308 308 372 l 302 308 q 279 408 279 374 q 334 556 279 460 q 389 703 389 652 q 367 764 389 742 q 305 787 345 787 q 258 775 279 787 q 220 748 241 765 l 220 779 m 264 227 l 302 266 q 316 273 310 273 q 331 265 323 273 l 369 224 q 375 211 375 217 q 368 196 375 203 l 330 154 q 316 144 321 144 q 302 151 309 144 l 261 199 q 256 212 256 205 q 264 227 256 218 z "}," ":{"ha":166,"x_min":0,"x_max":0,"o":""}," ":{"ha":166,"x_min":0,"x_max":0,"o":""},"!":{"ha":164,"x_min":28,"x_max":183,"o":"m 49 87 q 38 91 41 87 q 35 99 35 94 l 37 142 q 37 151 37 150 q 38 160 37 158 l 39 176 q 45 231 41 200 l 47 248 l 58 325 l 64 359 q 86 475 74 417 l 98 531 q 105 558 101 545 l 109 574 l 123 631 q 144 711 136 682 l 149 726 q 165 739 152 739 l 170 739 q 183 722 183 735 l 182 717 l 155 622 l 143 576 l 136 545 q 109 431 123 498 l 101 391 l 94 353 l 91 338 q 73 227 85 312 l 68 186 l 66 157 q 65 154 65 156 q 64 149 65 151 l 62 100 q 57 90 61 94 q 49 87 54 87 m 45 1 q 33 13 35 2 l 29 41 l 28 49 q 33 61 28 55 q 46 66 37 66 q 58 62 52 66 q 64 46 64 58 l 62 38 l 60 14 q 45 1 60 1 z "},"\"":{"ha":161,"x_min":6,"x_max":135,"o":"m 58 431 q 56 426 58 431 q 46 408 54 420 q 35 392 37 395 l 32 387 q 23 381 28 382 q 14 383 18 380 q 7 391 9 386 q 9 401 6 396 l 9 401 l 12 406 q 18 418 14 410 q 20 422 19 420 q 26 439 24 431 q 31 456 30 449 l 33 471 q 38 484 33 479 q 50 490 43 489 q 63 485 58 490 q 68 473 68 480 q 64 448 66 452 q 58 431 62 442 m 125 431 q 123 426 125 431 q 112 408 121 420 q 102 392 104 395 l 98 387 q 90 381 95 382 q 80 383 85 380 q 74 391 75 386 q 75 401 73 396 l 75 401 l 78 406 q 84 418 80 410 q 86 422 85 420 q 93 439 90 431 q 98 456 96 449 l 100 471 q 104 484 100 479 q 117 490 109 489 q 129 485 124 490 q 135 473 134 480 q 131 448 132 452 q 125 431 129 442 z "},"#":{"ha":307,"x_min":2,"x_max":299,"o":"m 281 481 q 202 473 247 481 q 184 398 197 455 q 183 394 184 396 q 182 391 182 392 l 242 404 q 254 393 254 404 q 245 382 254 385 q 178 368 243 381 l 171 332 q 170 326 171 328 q 167 297 167 310 q 166 290 167 292 l 166 275 q 153 260 166 260 q 144 263 148 260 q 140 273 140 267 l 139 291 q 140 316 139 310 q 141 329 141 322 q 144 350 142 335 q 145 357 145 353 l 146 359 q 95 347 120 353 q 92 328 94 336 l 89 294 l 90 272 q 77 257 90 257 q 62 269 64 257 l 61 303 q 62 307 62 304 q 62 316 62 313 q 64 338 62 319 q 34 330 62 338 q 20 327 23 327 q 10 330 16 327 q 2 345 2 334 q 15 362 2 357 l 52 368 q 68 370 62 370 l 69 373 q 83 444 75 408 q 81 443 81 444 q 36 429 52 435 q 28 427 31 427 q 9 446 9 427 q 22 462 9 458 q 38 466 29 464 q 61 471 46 468 q 91 478 75 475 l 102 526 q 119 538 106 538 q 138 521 138 536 q 127 486 133 503 l 172 494 l 181 531 q 198 545 184 545 q 216 528 216 543 q 210 501 215 522 q 286 508 264 508 l 288 508 q 297 494 299 505 q 281 481 294 483 m 100 376 l 150 385 q 165 465 157 427 q 119 454 141 460 q 100 376 111 424 z "},"$":{"ha":354,"x_min":-1,"x_max":339,"o":"m 324 527 l 324 527 q 336 485 333 506 q 338 448 339 465 q 338 435 338 441 q 338 431 338 433 q 336 420 337 425 q 336 416 336 418 q 334 409 334 412 q 333 403 334 406 q 331 395 332 398 q 330 391 330 393 q 328 384 329 387 q 327 381 328 382 q 324 373 326 376 q 319 359 319 359 q 310 349 317 352 q 297 349 304 346 q 287 358 290 351 q 286 371 284 364 l 286 371 q 292 385 286 371 q 294 392 292 388 q 294 394 294 393 q 296 400 295 397 q 298 406 297 403 q 298 410 298 408 q 300 416 299 413 q 301 422 300 418 q 302 427 301 424 q 302 435 302 431 q 303 439 303 437 q 304 449 304 444 q 302 480 304 463 q 273 547 298 514 q 248 570 262 559 q 244 556 245 563 q 214 429 229 500 q 197 357 205 394 q 182 283 190 321 q 182 281 182 282 q 182 279 182 280 q 193 263 187 271 q 253 160 227 214 q 273 104 267 134 q 275 74 276 90 q 270 43 275 58 q 262 29 267 36 q 253 17 258 22 l 252 16 l 252 15 q 252 15 252 16 q 251 15 252 15 q 251 15 251 15 q 251 14 251 14 q 250 14 250 14 l 250 14 l 248 12 l 246 11 q 245 9 245 10 q 245 9 245 9 q 241 7 243 8 q 240 6 241 7 q 239 5 239 6 l 237 5 l 233 3 q 229 1 231 1 q 226 0 227 0 q 197 -3 211 -5 q 171 1 183 -2 q 146 12 157 6 q 146 8 146 10 q 146 6 146 7 q 145 0 146 3 q 145 -7 145 -4 q 144 -18 144 -13 q 144 -21 144 -20 q 144 -28 144 -24 q 144 -45 144 -37 q 144 -61 144 -54 q 144 -66 144 -64 q 144 -74 144 -71 q 144 -85 144 -79 q 144 -93 144 -89 q 144 -97 144 -95 q 145 -100 145 -98 q 145 -106 145 -103 q 146 -111 146 -109 q 146 -119 146 -119 l 146 -120 q 143 -130 146 -125 q 134 -134 140 -134 q 124 -131 128 -134 q 119 -122 120 -127 q 119 -113 119 -122 q 117 -101 118 -108 q 117 -99 117 -100 q 117 -94 117 -96 q 117 -86 117 -90 q 116 -67 117 -77 q 116 -45 116 -57 q 116 -27 116 -37 q 116 -20 116 -24 q 117 -18 116 -19 q 117 -6 117 -12 q 117 0 117 -3 q 117 8 117 4 q 117 10 117 9 q 118 23 118 16 q 118 24 118 24 q 118 26 118 26 q 110 32 114 29 q 108 33 109 33 q 106 35 107 34 l 105 35 l 104 36 l 104 37 l 102 38 q 99 40 100 39 q 94 43 96 42 q 88 47 92 45 q 87 49 87 48 q 85 51 85 50 q 80 54 82 52 q 75 59 77 57 q 66 66 71 62 q 64 67 65 66 q 60 71 62 69 q 54 76 57 73 q 44 85 49 81 q 19 110 28 100 q 14 115 16 113 q 3 125 3 125 q -1 135 -1 130 q 3 144 -1 140 q 13 149 8 149 q 23 144 18 149 l 23 144 q 33 134 23 144 q 38 129 35 132 q 62 106 47 119 q 68 100 66 103 q 73 97 71 98 q 78 92 75 94 q 80 90 79 91 q 84 87 82 89 q 90 82 87 85 q 96 77 93 79 q 101 73 98 75 q 103 71 102 73 q 105 71 104 71 q 111 66 108 68 q 121 59 115 62 q 121 64 121 62 q 121 71 121 67 q 123 79 122 75 q 123 87 123 83 q 123 92 123 90 q 125 104 124 98 q 127 121 126 113 q 128 132 127 126 q 129 140 129 136 q 132 157 130 149 q 133 170 132 163 q 134 176 134 172 q 138 206 136 191 q 140 213 139 210 q 149 273 144 243 q 133 296 141 284 q 116 321 124 309 q 100 349 108 335 q 75 407 85 377 q 59 468 64 437 q 60 533 54 500 q 90 591 66 566 q 146 623 114 616 q 177 627 161 627 q 206 623 192 627 q 224 618 216 621 q 234 654 230 640 q 238 668 236 662 q 241 680 239 675 q 243 688 243 688 q 252 699 245 696 q 265 701 258 703 q 276 692 273 699 q 277 679 279 686 l 277 679 l 277 679 q 275 670 277 679 q 268 646 273 661 q 256 604 263 628 q 298 568 281 589 q 324 527 315 549 m 227 148 l 227 148 q 174 236 204 192 q 170 208 172 222 q 168 201 169 205 q 163 172 166 186 q 161 153 162 162 q 159 138 160 146 q 159 136 159 137 q 157 128 158 132 q 156 118 157 123 q 154 101 155 109 q 153 95 154 98 q 152 84 153 90 q 151 75 152 79 q 151 68 151 71 q 150 62 151 64 q 149 52 149 56 q 149 47 149 49 q 149 42 149 44 q 179 28 163 34 q 217 27 199 22 q 219 28 218 27 q 221 28 220 28 l 223 30 l 224 30 q 224 31 224 31 q 225 31 224 31 q 227 31 226 31 q 227 32 227 32 q 227 32 227 32 q 227 32 227 32 l 229 33 l 231 35 l 231 35 l 231 36 l 232 37 q 238 45 235 40 q 243 54 241 49 q 244 98 250 73 q 227 148 239 123 m 211 564 l 211 564 q 216 586 214 576 q 199 591 208 589 q 176 593 189 593 q 153 591 165 593 q 113 569 130 586 q 92 526 96 552 q 91 473 86 500 q 127 363 100 417 q 157 315 140 340 q 166 363 161 340 q 182 436 174 401 q 211 564 197 508 z "},"%":{"ha":334,"x_min":-9,"x_max":319,"o":"m 308 585 l 308 585 q 317 574 315 581 q 317 561 319 568 l 317 561 l 317 560 l 18 -71 l 18 -71 q 11 -78 16 -76 q 0 -77 5 -79 q -7 -70 -5 -75 q -7 -60 -9 -64 l -7 -60 l -6 -59 l -6 -59 l -6 -58 l 62 90 l 96 164 q 98 169 97 167 q 100 172 99 171 l 284 575 l 284 575 l 284 575 q 294 585 288 582 q 308 585 301 587 m 189 429 q 184 422 187 426 q 176 415 180 418 q 174 413 176 414 q 154 401 165 406 q 110 392 133 392 q 87 395 98 392 q 66 404 76 397 q 48 421 55 410 q 47 422 48 422 q 45 427 46 425 q 43 432 44 429 q 41 437 42 434 q 41 437 41 437 q 41 439 41 439 q 40 444 40 441 q 40 465 39 454 q 41 467 41 466 q 42 473 41 471 q 43 478 43 475 q 45 482 44 480 q 58 509 51 498 q 60 513 58 511 q 64 520 62 517 q 70 529 67 525 q 76 537 73 534 q 78 540 77 539 q 81 544 81 544 q 83 547 82 545 l 84 547 q 88 550 84 547 q 88 550 88 550 q 89 551 89 551 q 90 551 89 551 q 90 551 90 551 q 91 552 91 552 q 95 554 93 553 q 98 555 97 555 q 100 556 99 556 q 105 558 102 557 q 134 560 117 562 q 165 547 151 557 q 180 534 173 541 q 191 517 186 526 q 203 476 201 499 q 200 453 203 465 q 199 450 199 451 q 198 448 199 448 q 196 442 197 445 q 195 441 196 441 q 189 429 195 439 m 172 460 l 172 460 q 174 475 174 467 q 164 502 172 490 q 156 512 161 507 q 147 519 152 517 q 129 526 137 526 q 116 525 121 527 q 113 524 115 525 q 113 524 113 524 q 112 523 112 524 q 111 522 111 523 q 110 522 110 522 q 109 522 110 522 q 109 522 109 522 q 108 521 108 521 q 106 520 107 520 q 106 519 106 519 q 105 518 106 519 q 103 515 104 517 q 97 509 100 513 q 94 504 96 506 q 92 501 93 503 q 88 496 90 498 q 86 492 87 494 q 75 471 80 483 q 70 447 70 459 q 73 436 71 441 q 81 427 76 431 q 94 422 87 424 q 95 421 95 422 q 96 421 96 421 l 98 420 q 100 420 99 420 q 102 420 101 420 q 104 420 103 420 q 111 419 107 419 q 143 426 127 419 q 157 435 151 429 q 159 436 158 435 q 162 439 161 438 q 164 441 163 440 q 166 445 165 443 q 167 446 167 446 l 167 446 l 167 446 l 168 446 l 168 448 l 169 449 q 170 452 169 450 q 170 453 170 452 q 172 456 171 454 q 172 458 172 457 q 172 460 172 459 m 241 121 l 241 121 q 252 105 247 114 q 264 64 262 87 q 261 41 264 52 q 260 37 260 39 q 259 35 260 36 q 257 30 258 33 q 256 28 256 29 q 254 24 256 26 l 253 22 l 252 20 l 252 20 l 252 20 l 252 20 q 252 20 252 20 q 252 19 252 20 q 252 19 252 19 q 252 19 252 19 q 251 19 252 19 q 251 18 251 18 q 250 16 250 18 q 244 9 248 14 q 237 3 241 5 q 235 1 237 2 q 215 -12 226 -7 q 171 -20 194 -20 q 161 -20 166 -20 q 159 -20 160 -20 q 156 -19 157 -19 q 154 -19 155 -19 l 151 -18 l 149 -18 q 127 -8 137 -15 q 109 9 116 -2 q 109 10 109 9 q 106 14 107 12 q 104 20 105 17 q 102 24 103 22 q 102 26 102 25 q 102 27 102 26 q 101 31 101 29 q 101 52 100 42 q 102 57 102 54 q 102 58 102 57 q 103 62 102 60 q 105 68 104 65 q 106 70 106 69 q 119 98 112 86 q 121 101 119 100 q 125 108 123 105 q 130 115 127 112 q 130 117 130 116 q 137 125 134 121 q 139 128 138 127 q 142 132 142 132 q 144 134 143 134 l 145 135 q 149 138 145 135 q 149 138 149 138 q 150 138 149 138 l 150 138 l 151 139 q 152 140 151 139 q 156 142 154 141 q 159 144 158 143 q 161 144 160 144 q 162 145 161 144 q 163 145 163 145 q 165 146 164 146 q 166 146 165 146 q 195 148 178 151 q 227 134 212 145 q 241 121 234 129 m 233 47 l 233 47 q 234 62 235 55 q 225 90 233 77 q 217 100 222 95 q 208 107 212 104 q 190 115 198 114 q 177 113 182 115 q 176 113 176 113 q 176 113 176 113 q 174 112 175 112 q 174 111 174 112 q 172 111 173 111 q 172 110 172 111 q 171 110 171 110 q 171 110 171 110 l 170 110 l 170 110 q 170 109 170 110 q 170 109 170 109 q 168 108 168 109 q 167 107 168 107 q 166 106 167 106 q 164 103 165 105 q 158 96 161 100 q 153 89 156 93 q 149 83 151 87 q 147 80 148 82 q 136 59 141 71 q 131 35 130 47 q 134 24 132 29 q 142 16 137 19 q 155 9 148 12 l 157 9 l 159 9 q 161 8 160 8 q 163 7 162 8 q 165 7 164 7 q 171 7 168 7 q 204 14 189 7 q 218 22 212 17 q 220 24 219 23 q 223 27 222 26 q 225 29 224 28 q 227 33 226 31 q 228 33 227 33 l 228 34 l 228 34 l 228 35 l 229 35 l 229 37 q 231 39 230 38 q 231 41 231 40 q 232 44 232 42 q 233 45 233 45 q 233 47 233 47 z "},"&":{"ha":371,"x_min":7,"x_max":376,"o":"m 362 798 l 362 798 q 373 789 370 795 q 375 776 376 783 q 374 775 374 775 l 326 621 l 325 618 q 319 610 323 612 q 310 610 315 608 q 302 616 304 612 q 302 617 302 616 q 301 618 302 617 l 300 619 q 296 623 298 621 q 289 629 293 626 q 273 637 281 635 q 265 640 269 640 q 256 641 260 641 q 241 637 248 640 q 226 627 233 633 l 222 623 l 219 620 q 217 617 218 618 q 216 616 217 616 l 215 614 q 214 614 215 614 q 214 613 214 613 q 207 596 210 605 q 205 589 206 593 q 205 587 205 588 q 204 584 205 585 q 203 577 204 581 q 204 557 203 568 q 208 538 205 547 q 214 519 210 528 q 222 500 217 509 q 226 495 224 498 q 227 492 227 494 q 229 490 228 491 q 233 484 231 487 q 237 479 235 481 q 239 477 238 478 q 241 475 240 476 q 245 471 243 473 q 260 460 252 465 q 275 455 268 456 q 287 448 283 454 q 290 435 291 443 q 276 421 287 423 l 275 421 q 218 402 245 416 q 206 397 212 399 q 204 395 205 396 q 203 395 203 395 q 191 387 197 391 q 165 370 178 379 q 142 349 153 359 q 121 326 131 338 q 85 273 100 301 q 58 216 69 245 q 39 155 46 186 q 35 92 33 123 q 39 63 35 77 q 45 50 41 56 q 47 46 46 47 q 48 44 47 45 q 50 43 49 43 q 50 41 50 42 q 52 39 51 40 q 62 31 56 34 q 73 25 67 27 l 77 24 l 79 24 l 81 24 l 81 24 l 83 24 l 87 24 q 88 23 87 23 q 88 24 88 24 l 90 24 q 91 24 91 24 q 93 24 92 24 q 95 24 94 24 q 100 24 98 24 q 125 36 113 28 q 149 55 138 44 q 185 106 170 78 q 214 163 201 134 q 237 224 227 193 q 256 286 248 255 q 262 308 259 297 l 286 414 l 286 414 q 292 422 288 420 q 302 424 297 425 q 311 418 308 422 q 313 408 314 414 l 313 408 q 298 343 307 376 q 294 328 296 336 l 180 -176 q 174 -184 178 -181 q 163 -186 169 -187 q 155 -180 158 -184 q 153 -170 152 -175 l 217 112 q 207 93 212 102 q 167 37 191 64 q 140 14 155 24 q 105 0 124 4 q 98 -1 101 -1 q 96 -1 96 -1 q 85 -2 90 -2 l 81 -2 l 80 -2 l 79 -1 l 79 -1 l 79 -1 l 76 -1 l 71 -1 l 66 1 q 33 22 46 6 q 30 26 31 24 q 28 27 29 26 q 26 30 28 28 q 26 32 26 31 q 22 38 24 35 q 15 56 18 47 q 9 91 9 73 q 14 159 7 126 q 33 225 20 193 q 61 286 45 257 q 79 315 69 301 q 98 343 88 330 q 121 370 109 357 q 145 394 132 382 q 202 434 171 418 q 226 444 214 439 q 225 445 225 444 q 223 446 224 446 q 216 454 219 450 q 214 456 215 454 q 213 457 214 456 q 207 465 210 461 q 195 486 200 475 q 186 509 189 497 q 180 532 182 520 q 176 555 177 543 q 176 579 176 567 q 178 589 177 584 q 178 591 178 590 q 179 594 178 593 q 181 604 180 599 q 191 627 184 616 q 192 627 192 627 q 193 629 193 629 l 195 632 q 196 633 195 633 q 199 637 198 636 l 201 640 l 202 640 l 203 641 l 203 642 l 203 642 l 208 646 q 229 661 218 654 q 256 667 242 666 q 269 666 262 667 q 282 663 276 665 q 304 650 294 658 q 305 650 305 650 q 306 650 305 650 l 340 785 q 349 795 342 792 q 362 798 355 799 z "},"'":{"ha":87,"x_min":6,"x_max":68,"o":"m 58 431 q 56 426 58 431 q 46 408 54 420 q 35 392 37 395 l 32 387 q 23 381 28 382 q 14 383 18 380 q 7 391 9 386 q 9 401 6 396 l 9 401 l 12 406 q 18 418 14 410 q 20 422 19 420 q 26 439 24 431 q 31 456 30 449 l 33 471 q 38 484 33 479 q 50 490 43 489 q 63 485 58 490 q 68 473 68 480 q 64 448 66 452 q 58 431 62 442 z "},"(":{"ha":233,"x_min":26,"x_max":398,"o":"m 377 751 l 377 751 q 376 751 376 751 q 373 751 374 751 q 371 751 372 751 q 370 751 370 751 q 369 751 369 751 q 364 751 367 751 q 357 749 361 750 q 341 745 350 748 q 340 745 340 745 q 338 744 339 744 q 338 743 338 744 q 336 743 337 743 q 332 741 334 742 q 331 741 332 741 q 325 737 328 739 q 321 735 323 736 q 318 734 319 734 q 310 728 314 731 q 307 726 308 728 q 298 721 302 724 q 250 675 275 703 q 226 646 238 661 q 201 611 214 629 q 157 533 178 575 q 117 444 135 491 q 86 349 100 397 q 66 251 73 300 q 56 155 58 201 q 60 64 56 107 q 75 -14 65 22 q 99 -78 86 -50 q 102 -84 101 -81 q 106 -91 104 -87 q 111 -100 109 -95 q 113 -102 111 -101 q 116 -109 114 -106 q 119 -113 117 -111 q 125 -123 122 -118 q 130 -131 127 -127 q 131 -131 131 -131 q 136 -138 134 -135 q 138 -140 137 -139 q 141 -144 140 -142 q 144 -148 142 -146 q 145 -149 144 -149 q 153 -158 153 -158 l 153 -159 q 156 -169 157 -163 q 151 -178 156 -174 q 142 -181 147 -182 q 132 -176 136 -180 q 124 -167 132 -176 q 123 -165 123 -166 q 119 -161 121 -163 q 117 -158 118 -160 q 115 -155 116 -157 q 113 -153 114 -154 q 109 -147 111 -150 q 106 -144 108 -146 q 102 -138 104 -141 q 96 -128 99 -134 q 90 -118 93 -123 q 88 -117 89 -117 q 81 -104 85 -111 q 78 -97 79 -100 q 77 -94 77 -96 q 74 -90 75 -92 q 48 -22 60 -60 q 31 61 37 16 q 27 155 26 106 q 35 255 28 204 q 56 357 43 307 q 87 456 69 408 q 127 547 105 504 q 174 629 149 591 q 199 665 186 648 q 224 698 212 683 q 277 748 251 728 q 287 755 282 752 q 291 758 289 756 q 301 764 296 761 q 304 766 302 765 q 308 768 306 767 q 316 772 312 770 q 322 775 319 774 q 324 776 323 775 q 326 777 325 776 q 328 777 327 777 q 350 784 340 782 q 352 785 351 784 q 359 785 356 785 q 364 786 362 786 q 368 787 366 786 q 368 787 368 787 q 371 787 370 787 q 372 787 372 787 q 374 787 373 787 q 376 787 375 787 q 378 787 377 787 q 380 787 380 787 q 393 781 388 786 q 398 769 398 777 q 393 756 398 762 q 380 751 388 751 l 380 751 l 380 751 q 377 751 380 751 z "},")":{"ha":207,"x_min":-243,"x_max":130,"o":"m -222 -146 l -222 -146 q -220 -146 -220 -146 q -218 -146 -219 -146 q -215 -146 -216 -146 q -214 -146 -214 -146 q -213 -146 -214 -146 q -208 -145 -211 -145 q -201 -144 -205 -144 q -185 -139 -195 -142 q -184 -139 -184 -139 q -182 -138 -184 -138 q -182 -138 -182 -138 q -180 -138 -181 -138 q -177 -136 -178 -136 q -176 -135 -176 -136 q -169 -132 -172 -134 q -165 -130 -167 -131 q -162 -128 -163 -129 q -154 -123 -158 -125 q -151 -121 -153 -122 q -142 -115 -146 -118 q -94 -70 -119 -98 q -70 -40 -82 -56 q -46 -5 -58 -24 q -1 73 -22 31 q 39 161 20 115 q 69 257 56 208 q 90 355 83 306 q 99 451 98 404 q 96 541 100 498 q 80 620 90 584 q 56 683 70 656 q 53 690 55 686 q 50 696 52 693 q 45 705 47 701 q 43 708 44 707 q 40 714 41 711 q 37 719 39 717 q 31 728 34 724 q 25 736 28 732 q 25 736 25 736 q 20 744 22 741 q 18 746 19 745 q 15 750 16 748 q 12 753 14 751 q 11 755 12 754 q 3 764 3 764 l 3 764 q 0 774 -1 769 q 4 783 0 780 q 14 787 9 787 q 23 782 20 786 q 32 772 23 782 q 33 770 33 772 q 36 767 35 769 q 39 764 37 765 q 41 760 40 762 q 43 758 42 760 q 47 753 45 755 q 49 750 48 751 q 54 744 52 747 q 60 734 57 739 q 66 724 63 729 q 67 722 66 723 q 75 709 71 716 q 78 703 77 706 q 79 700 79 701 q 81 695 81 698 q 107 628 96 666 q 124 545 119 590 q 129 450 130 500 q 120 351 127 401 q 100 249 113 299 q 68 150 86 198 q 28 58 50 102 q -18 -24 7 14 q -43 -60 -30 -43 q -68 -92 -56 -77 q -122 -142 -95 -122 q -132 -149 -127 -146 q -135 -152 -133 -151 q -145 -159 -140 -155 q -148 -160 -146 -159 q -152 -162 -150 -161 q -161 -167 -157 -165 q -167 -170 -163 -168 q -169 -170 -168 -170 q -170 -171 -169 -170 q -173 -172 -171 -172 q -195 -178 -184 -176 q -197 -179 -195 -178 q -203 -180 -200 -180 q -209 -180 -206 -180 q -212 -181 -210 -180 q -212 -181 -212 -181 q -216 -181 -214 -181 q -216 -181 -216 -181 q -218 -181 -217 -181 q -220 -181 -219 -181 q -222 -181 -221 -181 q -225 -181 -225 -181 q -237 -176 -233 -181 q -243 -163 -242 -171 q -237 -151 -242 -156 q -224 -146 -232 -146 l -224 -146 l -224 -146 q -222 -146 -224 -146 z "},"*":{"ha":239,"x_min":23,"x_max":188,"o":"m 176 481 l 176 481 q 184 478 181 481 q 188 469 188 475 q 184 461 188 465 q 176 458 181 458 l 132 457 l 150 433 q 152 424 153 429 q 147 416 151 419 q 138 414 143 414 q 130 418 134 415 l 104 450 l 75 407 q 68 402 73 403 q 58 404 63 401 q 53 411 54 406 q 54 419 52 415 l 76 456 l 40 454 q 28 459 33 454 q 23 469 24 463 q 27 480 23 476 q 39 486 32 485 q 40 486 39 486 l 74 484 l 55 507 q 51 518 50 512 q 57 528 52 524 q 69 532 62 532 q 79 526 75 531 q 80 526 80 526 l 101 498 l 121 532 q 130 539 124 537 q 142 537 136 541 q 150 528 148 534 q 149 517 152 522 q 148 515 149 516 l 126 483 l 176 481 z "},"+":{"ha":303,"x_min":43,"x_max":272,"o":"m 258 256 l 258 256 q 268 252 264 256 q 272 242 272 248 q 268 233 272 237 q 258 229 264 229 l 173 227 l 157 116 q 152 107 156 110 q 141 104 147 104 q 133 110 136 105 q 130 119 130 114 l 142 227 l 60 224 q 48 230 53 224 q 43 242 43 235 q 47 255 43 250 q 60 260 52 260 q 60 260 60 260 l 146 258 l 161 384 q 167 396 161 391 q 180 399 173 400 q 192 393 188 399 q 195 380 196 387 q 195 380 195 380 q 195 379 195 380 l 178 258 l 258 256 z "},",":{"ha":94,"x_min":7,"x_max":61,"o":"m 20 13 q 24 28 22 22 l 26 43 q 31 55 26 50 q 43 61 35 60 q 55 56 50 61 q 61 44 60 52 q 57 19 58 24 l 51 3 l 37 -14 l 33 -19 q 25 -25 30 -24 q 15 -23 20 -26 q 9 -15 10 -20 q 10 -5 7 -10 l 10 -5 l 13 -1 q 19 12 15 4 q 20 13 20 12 z "},"-":{"ha":358,"x_min":84,"x_max":313,"o":"m 300 247 l 300 247 q 310 243 306 247 q 313 233 313 239 q 310 224 313 228 q 300 220 306 220 l 102 216 q 90 221 95 216 q 84 233 85 226 q 89 246 84 241 q 102 251 94 251 q 102 251 102 251 l 300 247 z "},"­":{"ha":358,"x_min":84,"x_max":313,"o":"m 300 247 l 300 247 q 310 243 306 247 q 313 233 313 239 q 310 224 313 228 q 300 220 306 220 l 102 216 q 90 221 95 216 q 84 233 85 226 q 89 246 84 241 q 102 251 94 251 q 102 251 102 251 l 300 247 z "},".":{"ha":73,"x_min":19,"x_max":57,"o":"m 33 47 l 33 47 q 46 47 40 50 q 56 37 53 44 q 56 28 57 32 l 54 12 q 48 2 53 5 q 38 0 44 -1 q 27 9 30 1 l 21 24 q 22 38 19 32 q 33 47 25 45 z "},"/":{"ha":253,"x_min":4,"x_max":248,"o":"m 6 -143 q 18 -113 6 -143 q 19 -111 19 -112 q 21 -106 20 -109 q 24 -98 22 -102 q 26 -92 25 -95 q 31 -79 28 -85 q 43 -41 37 -62 q 46 -33 45 -37 q 62 16 54 -10 q 64 22 62 19 q 77 69 71 45 q 82 84 79 77 q 94 128 88 105 q 100 150 98 139 q 113 194 106 172 q 119 218 116 206 q 138 288 128 253 q 155 354 146 321 q 163 387 159 371 q 170 416 167 402 q 184 472 178 446 q 212 588 210 578 q 212 588 212 588 l 212 588 q 220 599 214 595 q 233 601 227 603 q 244 593 241 599 q 247 580 248 587 l 247 580 q 247 580 247 580 q 217 464 245 571 q 205 417 212 442 q 203 408 204 413 q 186 346 195 378 q 178 316 182 331 q 168 279 174 298 q 157 239 163 259 q 149 210 153 225 q 142 186 146 198 q 130 142 136 163 q 123 119 127 131 q 111 75 117 97 q 106 61 108 68 q 92 14 98 37 q 89 7 90 10 q 73 -41 81 -19 q 71 -50 72 -46 q 57 -87 64 -71 q 53 -100 55 -94 q 50 -107 52 -104 q 49 -111 50 -109 q 47 -115 47 -113 q 45 -121 46 -118 q 44 -123 44 -122 q 31 -154 31 -154 q 24 -161 28 -159 q 14 -161 19 -163 q 6 -154 8 -159 q 6 -144 4 -149 l 6 -143 l 6 -143 z "},":":{"ha":137,"x_min":60,"x_max":106,"o":"m 84 331 l 84 331 q 98 328 92 332 q 105 316 104 323 q 104 306 106 311 l 99 292 q 91 284 96 286 q 81 284 86 282 q 72 294 73 287 l 69 309 q 72 323 68 317 q 84 331 76 329 m 76 178 l 76 178 q 90 175 84 179 q 97 163 96 171 q 96 153 98 158 l 91 139 q 83 131 88 134 q 73 131 78 129 q 64 142 65 134 l 61 157 q 64 171 60 165 q 76 178 68 176 z "},";":{"ha":145,"x_min":48,"x_max":117,"o":"m 95 342 l 95 342 q 109 338 102 342 q 116 327 115 334 q 115 317 117 321 l 109 302 q 102 295 107 297 q 91 295 97 293 q 82 305 84 298 l 80 320 q 83 334 79 328 q 95 342 87 340 m 87 180 l 87 180 q 100 174 96 179 q 106 162 105 170 q 106 161 106 161 q 106 159 106 161 q 105 158 105 159 q 105 156 105 157 q 104 146 105 152 q 97 113 102 132 q 83 81 92 95 q 79 75 81 77 q 78 75 78 75 q 76 73 77 73 q 75 71 75 72 q 74 71 75 71 q 72 68 73 69 q 71 68 71 68 q 70 67 70 67 q 60 65 65 64 q 51 71 54 66 q 48 79 48 75 q 52 87 49 84 l 54 90 q 54 90 54 90 q 55 90 54 90 q 56 91 55 90 q 56 92 56 91 q 56 92 56 92 q 56 92 56 92 q 57 93 57 92 q 59 96 58 94 q 62 101 60 98 q 64 106 62 104 q 67 121 66 113 q 70 149 70 136 q 71 158 71 155 q 71 161 71 161 l 71 161 q 75 174 71 169 q 87 180 80 179 z "},"<":{"ha":268,"x_min":67,"x_max":208,"o":"m 201 145 l 201 145 l 205 136 q 205 126 208 131 q 199 118 203 121 q 188 118 193 116 q 180 125 183 119 l 180 125 l 176 134 l 172 142 l 168 149 l 162 157 l 157 165 l 151 172 l 145 178 l 138 185 q 136 187 138 186 q 132 191 134 189 q 130 193 131 193 q 125 197 127 195 q 122 199 123 198 q 117 203 120 201 q 115 205 116 203 q 110 208 113 206 q 107 210 109 209 q 102 213 104 211 q 99 214 101 214 q 94 217 97 216 l 86 221 l 78 225 q 70 234 72 228 q 70 245 67 239 q 74 252 71 249 l 75 252 l 88 264 l 102 277 l 115 290 l 127 303 l 139 317 l 151 332 l 161 347 l 172 363 q 184 370 177 369 q 197 368 191 372 q 204 356 203 363 q 201 342 205 349 q 201 342 201 342 q 201 342 201 342 l 191 327 l 178 311 l 165 296 l 153 281 l 138 267 l 124 252 l 113 242 q 115 241 114 241 q 118 239 117 239 q 124 235 121 237 q 127 233 125 234 q 133 229 130 231 q 136 227 134 228 q 141 222 138 224 q 144 220 142 221 q 149 216 146 218 q 152 213 151 214 q 157 208 154 211 q 159 205 158 207 l 166 198 l 173 190 l 180 182 l 186 173 l 191 164 l 196 155 l 201 145 z "},"=":{"ha":319,"x_min":52,"x_max":281,"o":"m 132 283 l 132 283 q 144 282 138 282 q 169 282 157 282 q 173 282 171 282 q 187 281 180 282 q 191 281 189 281 q 205 281 198 281 q 237 280 222 281 q 259 279 251 279 q 268 279 268 279 q 277 274 273 278 q 281 264 281 270 q 276 256 280 259 q 268 252 273 252 q 259 251 268 252 q 237 250 251 251 q 237 250 237 250 q 205 250 222 250 q 193 249 199 249 q 187 249 190 249 q 169 248 178 249 q 169 248 169 248 q 144 248 157 248 q 132 248 138 248 q 107 248 119 248 q 100 248 104 248 q 90 248 95 248 q 78 248 83 248 q 72 250 74 248 q 71 251 71 250 q 70 252 70 252 q 70 279 62 266 q 71 279 70 279 q 72 281 71 280 q 78 283 74 283 q 88 283 83 283 q 100 283 94 283 q 107 283 104 283 q 132 283 119 283 m 268 189 l 268 189 q 277 184 273 189 q 281 175 281 180 q 277 166 281 170 q 268 161 273 162 l 70 157 q 57 162 62 157 q 52 175 52 168 q 57 188 52 182 q 69 193 62 193 q 70 193 69 193 l 268 189 z "},">":{"ha":245,"x_min":67,"x_max":208,"o":"m 74 145 l 79 155 l 83 164 l 90 173 l 95 182 l 102 190 l 109 198 l 116 205 q 118 208 117 207 q 123 213 121 211 q 126 216 125 214 q 131 220 128 218 q 134 222 132 221 q 140 227 136 224 q 142 229 141 228 q 148 233 145 231 q 151 235 149 234 q 157 239 154 237 q 160 241 159 239 q 163 242 161 241 l 151 252 l 136 267 l 123 281 l 109 296 l 97 311 l 85 327 l 73 342 q 73 342 73 342 q 73 342 73 342 q 71 356 69 349 q 78 368 72 363 q 91 370 84 372 q 102 363 98 369 l 114 347 l 125 332 l 136 317 l 148 303 l 160 290 l 173 277 l 186 264 l 201 252 l 201 252 q 205 245 203 249 q 205 234 208 239 q 197 225 203 228 l 189 221 l 180 217 q 176 214 178 216 q 173 213 174 214 q 168 210 170 211 q 165 208 166 209 q 160 205 163 206 q 157 203 159 203 q 153 199 155 201 q 150 197 151 198 q 146 193 148 195 q 143 191 144 193 q 139 187 141 189 q 136 185 138 186 l 130 178 l 124 172 l 118 165 l 113 157 l 108 149 l 103 142 l 98 134 l 94 125 l 94 125 q 86 118 92 119 q 77 118 81 116 q 69 126 71 121 q 70 136 67 131 l 74 145 l 74 145 z "},"?":{"ha":254,"x_min":18,"x_max":288,"o":"m 272 604 l 272 604 q 282 581 279 593 q 284 531 288 555 q 275 484 281 507 q 259 440 268 462 q 220 356 241 397 q 176 279 199 316 q 133 209 154 242 q 123 192 128 200 q 121 191 122 191 q 121 189 121 189 q 119 186 120 187 q 118 184 119 185 q 113 176 116 180 q 102 158 108 167 q 95 146 98 152 q 93 142 94 144 q 91 138 92 140 q 90 136 90 138 q 87 132 88 134 q 79 117 83 124 q 78 115 79 116 q 75 111 77 113 q 74 108 75 109 q 73 104 73 106 q 71 101 71 103 l 70 100 l 69 98 q 68 95 68 97 q 67 92 68 94 q 66 90 66 91 q 66 88 66 89 q 65 87 65 87 q 63 81 64 84 q 61 73 62 77 q 60 69 61 71 q 60 67 60 68 q 59 64 60 66 q 58 59 59 61 q 58 55 58 57 q 56 49 57 52 q 54 19 54 30 q 53 8 53 8 l 53 8 q 48 -1 52 2 q 38 -5 44 -5 q 29 0 33 -4 q 26 10 25 4 l 26 10 q 26 21 26 10 q 27 31 26 25 q 28 35 28 33 q 30 49 28 41 q 30 53 30 51 q 31 60 31 56 q 32 64 32 62 q 33 64 32 64 q 33 69 33 67 q 34 73 33 71 q 35 75 35 75 q 35 79 35 77 q 38 88 37 83 q 39 92 39 90 q 40 95 39 94 q 41 96 40 96 q 41 98 41 98 q 43 102 42 100 q 43 102 43 102 q 44 105 43 104 q 45 110 45 107 l 46 112 l 47 113 q 49 116 48 115 q 49 117 49 116 q 50 119 50 118 q 51 120 50 119 l 52 121 l 52 122 l 53 123 q 56 130 54 127 q 60 138 58 134 q 64 144 62 141 q 68 152 66 149 q 71 156 70 154 q 73 159 72 157 q 81 174 77 167 q 91 190 86 182 q 92 192 92 191 q 96 198 94 195 q 98 201 96 199 q 98 202 98 201 q 99 203 98 203 q 100 206 100 205 q 110 220 105 214 q 111 222 111 222 q 153 292 132 256 q 196 369 176 330 q 233 450 217 408 q 248 492 241 471 q 256 534 253 513 q 254 573 258 555 q 236 602 249 591 q 204 616 222 612 q 202 616 203 616 q 195 617 199 617 l 191 618 l 186 618 q 184 618 185 618 q 182 618 183 618 q 180 618 181 618 q 177 618 178 618 l 174 618 l 174 619 l 174 619 q 174 619 174 619 q 174 619 174 619 q 174 619 174 619 q 174 619 174 619 q 174 619 174 619 l 172 618 q 168 618 170 618 q 164 618 166 618 q 159 618 161 618 q 150 618 155 618 q 146 617 149 617 q 134 614 140 616 q 105 602 117 610 q 72 564 81 587 q 62 522 64 541 q 62 494 62 504 q 64 487 63 489 q 64 485 64 485 l 64 484 q 60 471 64 477 q 49 464 56 465 q 36 467 41 463 q 29 479 31 471 l 29 479 q 28 480 29 479 q 28 482 28 481 q 28 492 28 486 q 28 525 26 503 q 41 577 30 547 q 60 606 48 591 q 88 631 71 620 q 126 645 106 641 q 127 646 127 646 q 136 647 132 646 q 140 648 138 648 q 146 649 143 648 q 151 649 149 649 q 157 650 154 649 q 163 650 160 650 q 168 650 165 650 q 168 650 168 650 q 173 650 170 650 l 174 650 l 175 650 l 176 650 l 178 650 q 181 650 180 650 q 183 650 182 650 q 186 649 184 649 q 189 649 188 649 q 192 648 190 649 q 194 648 193 648 q 195 648 195 648 q 199 648 197 648 q 209 646 204 647 q 211 646 210 646 q 255 625 234 641 q 272 604 265 616 m 33 -27 l 33 -27 q 46 -28 40 -25 q 56 -39 53 -32 q 56 -51 58 -45 q 55 -53 56 -51 q 54 -57 55 -54 q 52 -70 53 -62 q 52 -71 52 -70 q 52 -73 52 -72 q 52 -75 52 -74 q 52 -77 52 -75 q 52 -82 52 -79 q 52 -83 52 -83 q 52 -93 54 -88 q 47 -100 51 -97 q 36 -102 41 -103 q 28 -96 31 -100 q 26 -94 28 -96 q 26 -90 26 -92 q 26 -90 26 -90 q 26 -90 26 -90 q 26 -90 26 -90 q 26 -90 26 -90 l 26 -90 q 26 -90 26 -90 q 26 -89 26 -89 q 26 -87 26 -88 q 25 -83 25 -85 q 25 -77 25 -81 q 24 -75 25 -76 q 24 -73 24 -74 q 24 -70 24 -71 q 22 -57 23 -62 q 21 -53 22 -54 q 20 -51 20 -51 l 20 -51 q 22 -37 18 -43 q 33 -27 25 -30 m 52 -85 l 52 -85 q 52 -85 52 -85 q 52 -85 52 -85 q 52 -85 52 -85 q 52 -83 52 -84 q 52 -83 52 -83 q 52 -85 52 -84 q 52 -85 52 -85 q 52 -85 52 -85 l 52 -85 m 52 -83 l 52 -83 q 50 -81 50 -81 q 52 -83 51 -82 q 52 -83 52 -83 q 52 -83 52 -83 z "},"@":{"ha":429,"x_min":3,"x_max":411,"o":"m 235 337 l 235 337 q 381 262 338 347 q 402 135 411 202 q 361 29 394 67 q 310 3 338 3 q 287 8 298 3 q 257 39 266 17 q 246 90 249 62 q 189 31 222 60 q 119 -1 155 1 q 101 3 110 -1 q 75 28 82 9 q 71 67 67 46 q 83 104 75 87 q 135 180 101 146 q 204 220 168 214 q 245 211 227 224 q 264 177 260 201 q 271 123 269 153 q 277 67 272 94 q 297 34 282 41 q 341 47 321 24 q 376 139 369 80 q 357 250 383 198 q 239 309 323 318 q 135 277 174 302 q 75 221 96 252 q 46 166 54 191 q 35 83 31 121 q 54 31 39 46 q 58 21 58 26 q 54 11 58 16 q 45 7 50 7 q 35 11 39 7 q 8 80 12 35 q 22 174 3 125 q 235 337 73 316 m 111 28 l 111 28 q 168 49 132 21 q 243 131 204 77 q 240 160 242 146 q 234 183 238 175 q 234 183 234 183 q 234 183 234 183 q 229 189 231 186 q 227 190 228 189 q 208 194 219 195 q 154 161 182 190 q 108 93 125 132 q 99 38 92 57 q 111 28 102 31 z "},"A":{"ha":604,"x_min":-67,"x_max":666,"o":"m 101 272 q 244 318 124 281 q 292 333 262 323 q 513 393 469 382 q 533 829 533 671 q 528 920 531 897 q 488 990 517 987 q 447 975 469 990 q 351 869 399 940 q 218 624 278 763 q 101 272 144 448 m 431 -721 q 416 -706 416 -721 q 484 12 447 -410 q 511 360 507 291 q 349 314 443 343 q 302 300 326 307 q 273 290 291 296 q 90 228 156 253 q 39 -85 54 66 q 37 -113 38 -103 l 36 -122 q 29 -136 35 -131 q 16 -140 23 -140 q -5 -119 -5 -140 q 47 212 12 68 q -46 178 -42 178 q -56 181 -51 178 q -67 199 -67 186 q -54 218 -67 213 l -21 230 q -1 237 -20 230 q 57 257 46 254 q 184 639 104 453 q 321 890 247 783 q 427 1004 374 966 q 486 1025 456 1025 q 561 936 543 1025 q 568 830 568 890 q 547 400 568 678 q 650 423 598 412 l 650 422 l 652 422 q 661 419 656 422 q 666 410 666 416 q 655 396 666 399 l 655 395 l 545 369 q 515 9 523 94 q 444 -709 464 -557 q 431 -721 442 -721 z "},"B":{"ha":614,"x_min":-123,"x_max":625,"o":"m 24 214 q 28 218 26 216 l 37 227 q 39 229 38 227 l 45 234 l 54 241 l 56 243 q 64 249 60 246 q 92 272 78 260 q 117 299 105 284 q 168 365 143 331 q 189 394 179 379 l 192 398 q 197 404 195 401 q 216 432 206 418 q 262 501 239 467 q 306 572 284 536 q 348 643 328 607 q 385 716 368 680 q 416 791 403 753 q 426 830 422 811 q 429 867 430 850 l 429 874 l 429 876 l 428 880 q 427 883 427 882 q 427 884 427 884 l 425 890 q 424 892 425 890 l 423 894 q 422 895 422 895 l 421 897 l 420 898 q 410 907 416 904 q 395 913 403 911 q 359 915 378 917 q 320 908 340 913 q 243 882 281 898 q 191 859 217 871 q 188 850 189 854 l 184 838 q 172 799 178 820 q 153 732 163 769 q 134 668 144 703 q 131 654 133 661 q 107 566 119 612 q 60 374 83 473 q 37 276 48 325 q 24 214 31 245 m -2 70 q 134 156 61 122 q 218 190 176 175 l 240 197 l 262 204 q 279 209 270 206 q 283 210 281 210 l 290 212 l 305 216 l 328 221 q 342 224 334 222 q 349 226 345 224 l 379 231 q 393 234 387 233 q 452 243 422 239 q 400 288 432 273 q 363 301 383 297 l 353 303 q 349 304 351 303 l 344 304 l 338 304 l 334 304 l 322 305 l 317 305 l 313 304 l 302 304 q 294 303 298 304 l 292 303 l 281 302 q 268 300 275 301 q 260 298 264 299 q 248 295 254 296 q 240 293 243 294 q 161 262 199 281 q 88 217 122 243 q 82 212 85 215 q 80 210 81 211 l 72 203 q 66 199 69 201 l 64 197 l 56 189 l 52 184 q 50 182 51 183 l 42 174 l 40 172 l 39 170 q 35 167 37 168 q 28 162 32 164 q 26 161 26 161 l 25 161 q 23 158 24 159 q 12 151 19 152 q 1 92 6 120 q -2 70 -1 81 m -123 -154 q -118 -104 -122 -113 q -102 -62 -111 -83 q -81 -22 -93 -41 l -75 -12 l -73 -7 l -62 7 q -58 14 -60 11 q -56 17 -57 15 q -31 47 -44 33 q -23 96 -28 71 q -7 186 -16 139 q 14 281 3 233 q 35 380 24 330 q 81 572 58 479 q 104 666 93 621 q 123 741 114 706 q 137 798 130 772 q 139 808 138 803 q 142 819 140 814 q 146 837 144 828 l 96 810 q 61 789 79 800 q 25 768 43 779 q 10 765 18 763 q -3 774 2 767 q -5 790 -7 782 q 4 802 -3 798 l 5 802 q 41 823 22 813 l 77 844 q 153 882 115 863 q 156 883 154 882 q 158 884 157 884 l 163 905 q 172 917 165 913 q 187 920 179 922 q 203 904 200 916 q 231 916 216 910 q 312 941 270 931 q 356 948 334 947 q 403 945 378 951 q 408 943 406 945 l 409 943 q 410 943 410 943 l 414 941 l 420 939 q 425 937 422 938 q 427 935 425 936 l 429 934 q 431 932 430 933 q 432 932 431 932 l 433 930 l 437 928 l 442 922 q 445 919 444 921 q 446 917 446 918 l 450 911 q 451 909 450 911 q 453 905 452 907 q 454 903 454 905 q 458 893 456 899 l 458 891 l 459 887 l 460 881 l 460 878 l 460 875 l 461 869 q 457 824 462 846 q 445 782 452 802 q 412 703 431 741 q 372 629 393 665 q 330 557 352 593 q 284 487 307 522 q 237 418 261 452 q 217 389 227 404 l 213 384 q 210 380 212 382 l 188 350 q 152 303 170 326 q 229 332 189 321 q 237 334 233 333 q 252 337 245 336 q 260 339 256 338 q 275 341 268 340 l 287 342 q 290 343 289 343 q 299 344 294 344 l 311 345 l 317 345 l 317 345 l 318 345 l 318 345 l 337 345 l 340 344 l 347 344 l 353 343 q 359 342 356 342 l 371 340 q 418 323 395 335 q 459 294 441 312 l 466 288 q 468 286 467 286 q 469 284 469 285 q 476 276 473 280 q 478 273 477 274 q 483 266 481 269 l 490 255 l 494 247 l 612 262 q 622 258 618 262 q 625 248 625 254 q 622 238 625 242 q 612 235 618 235 l 505 222 q 520 164 516 193 q 524 117 524 141 q 523 71 525 94 q 490 -82 516 -16 q 435 -193 464 -147 q 380 -266 410 -231 q 314 -330 350 -301 q 236 -380 278 -360 q 146 -406 193 -401 q 52 -399 98 -412 l 50 -399 q 46 -397 48 -398 l 41 -396 l 29 -392 l 28 -391 l 26 -391 l 26 -391 l 24 -390 l 18 -388 q 10 -384 14 -387 l 7 -382 q 5 -382 7 -382 q 2 -380 3 -381 l -9 -374 q -12 -372 -10 -373 q -14 -371 -13 -372 q -33 -357 -24 -364 q -92 -283 -70 -326 q -110 -240 -103 -262 q -121 -194 -117 -218 q -123 -154 -123 -174 m -96 -125 l -97 -148 q -94 -191 -97 -170 q -84 -231 -90 -212 q -68 -271 -77 -252 q -15 -335 -47 -308 q 2 -347 -7 -341 l 3 -348 l 6 -349 l 16 -355 l 18 -356 q 20 -357 19 -356 l 22 -358 l 29 -361 l 35 -363 l 37 -364 l 38 -364 l 39 -365 l 49 -368 l 54 -370 q 58 -370 56 -370 q 59 -371 58 -371 q 142 -377 100 -382 q 222 -353 184 -372 q 294 -306 261 -334 q 355 -245 328 -279 q 407 -175 383 -212 q 455 -76 430 -138 q 486 73 480 -13 q 487 116 488 95 q 483 159 486 138 q 465 218 478 190 q 398 208 431 214 l 376 204 q 372 203 374 204 q 366 203 369 203 l 355 200 q 347 199 351 199 q 333 195 340 197 l 311 191 q 297 186 304 189 l 290 185 q 286 184 288 184 q 269 179 277 182 l 248 173 l 227 165 q 146 133 185 151 q 0 37 65 96 q -8 30 -4 34 q -11 12 -9 20 q -19 -109 -20 -64 q -16 -141 -18 -130 q -15 -147 -16 -144 q -14 -149 -15 -148 l -14 -151 l -14 -153 q -15 -163 -12 -158 q -24 -169 -18 -168 q -34 -167 -30 -170 q -40 -159 -39 -164 l -40 -158 l -41 -155 q -41 -153 -41 -154 q -43 -145 -42 -150 q -45 -109 -45 -132 q -43 -55 -45 -86 q -37 -2 -41 -31 l -41 -7 l -47 -16 l -53 -26 l -58 -35 q -78 -73 -69 -54 q -96 -125 -89 -98 z "},"C":{"ha":800,"x_min":-31,"x_max":831,"o":"m 831 258 q 755 120 780 155 q 675 21 711 56 q 634 -18 656 -1 q 590 -52 612 -35 q 492 -119 543 -89 q 456 -139 474 -130 q 174 -223 298 -223 q 18 -159 72 -223 q -16 -95 -4 -132 q -20 -81 -16 -93 q -22 -75 -20 -78 q -28 -37 -27 -53 q -30 -20 -28 -28 q -31 27 -31 -3 q -1 241 -31 136 q 203 650 60 455 q 411 879 302 786 q 526 956 471 930 q 586 971 558 971 q 618 965 608 971 q 623 963 621 964 q 625 962 624 962 q 673 861 673 926 q 636 696 673 790 q 617 683 631 683 q 610 684 614 683 q 597 704 597 690 q 600 714 597 707 q 627 809 614 749 q 633 863 633 833 q 608 926 633 901 q 604 928 606 927 q 602 929 603 928 q 600 930 600 930 q 590 932 600 930 q 506 901 557 932 q 366 785 435 857 q 117 442 217 635 q 1 23 1 224 q 4 -33 1 -20 q 6 -51 6 -42 q 10 -70 9 -68 q 14 -83 11 -71 l 18 -95 q 80 -170 37 -146 q 175 -193 121 -193 q 318 -167 239 -193 q 441 -113 386 -144 q 477 -93 460 -103 q 621 7 559 -45 q 789 231 725 109 q 795 244 792 238 q 802 259 800 256 q 806 269 804 263 q 814 276 808 274 q 831 267 827 279 q 831 258 831 262 z "},"D":{"ha":506,"x_min":-292,"x_max":568,"o":"m -10 -121 q -13 -121 -12 -121 l -24 -123 q -31 -124 -26 -124 q -36 -125 -33 -125 l -40 -125 q -46 -127 -43 -126 q -58 -129 -52 -128 q -177 -132 -127 -136 q -254 -125 -227 -129 l -281 -120 q -289 -115 -286 -119 q -292 -104 -292 -110 q -286 -96 -290 -99 q -276 -94 -281 -92 l -275 -94 l -250 -98 q -176 -104 -224 -102 q -62 -101 -128 -108 l -52 -99 l -45 -98 q -37 -96 -41 -97 q -28 -95 -33 -96 l -18 -93 q -11 -92 -14 -92 q -9 -5 -12 -55 q 35 365 2 155 q 100 730 70 572 q 124 850 115 806 l 134 895 q 142 908 136 904 q 157 911 149 913 q 171 903 166 910 q 173 887 175 896 l 163 842 q 138 722 153 798 q 69 358 105 566 q 39 163 52 258 q 20 -7 26 69 q 17 -85 17 -52 q 82 -64 49 -77 q 157 -27 119 -49 q 233 23 197 -5 q 368 165 307 82 q 422 252 397 206 l 425 257 q 430 264 427 260 q 433 273 431 269 q 435 277 434 274 l 438 282 l 441 288 q 444 293 442 290 q 447 300 445 296 q 468 349 458 324 q 520 559 508 450 q 511 773 533 669 q 474 871 498 825 q 414 949 450 916 q 332 996 377 981 q 288 1008 310 1005 l 283 1010 q 276 1010 280 1010 q 272 1010 274 1011 l 265 1011 q 254 1012 259 1012 q 248 1013 251 1013 q 241 1013 244 1013 q 152 1010 195 1015 q 72 991 109 1005 q 7 958 35 979 q -35 911 -20 937 q -53 859 -50 884 q -51 811 -55 832 q -50 809 -50 810 l -50 806 q -49 802 -50 804 q -48 801 -48 802 l -48 799 q -47 795 -47 798 q -47 794 -47 795 l -47 793 q -45 791 -45 792 l -43 785 q -42 783 -43 783 l -39 774 q -38 773 -39 774 q -37 770 -38 772 q -35 767 -37 768 q -33 762 -34 765 q -32 760 -33 762 l -32 760 q -25 749 -28 754 q -19 741 -22 745 l -18 739 q -17 738 -17 739 q -15 736 -16 737 l -14 736 l -9 730 q -5 715 -4 723 q -12 702 -5 707 q -27 697 -19 696 q -40 704 -35 698 l -41 704 l -45 709 l -46 710 q -47 712 -47 711 q -48 713 -47 713 q -50 716 -49 714 q -58 726 -54 720 q -67 740 -63 732 q -71 748 -69 744 q -73 753 -73 751 q -75 756 -75 754 q -76 758 -75 757 l -77 761 l -80 767 q -84 779 -81 772 q -85 781 -84 780 l -85 783 q -85 785 -85 783 q -87 791 -85 787 q -88 793 -87 791 q -89 797 -89 795 q -90 800 -89 798 l -90 804 q -92 863 -96 830 q -70 930 -87 896 q -16 989 -50 964 q 60 1028 17 1015 q 148 1048 102 1043 q 243 1050 195 1052 l 250 1050 l 253 1050 l 255 1049 l 256 1049 q 261 1049 259 1050 q 269 1048 265 1048 q 277 1048 273 1048 q 281 1047 279 1048 q 290 1046 286 1047 l 294 1046 q 345 1032 319 1041 q 438 976 396 1013 q 505 887 479 938 q 544 781 532 836 q 553 555 568 669 q 498 337 541 442 q 476 287 488 311 q 472 279 474 283 q 470 273 471 276 l 469 272 l 469 270 l 467 267 l 464 261 q 461 256 463 259 l 458 249 q 453 241 456 245 l 451 237 q 393 146 425 189 q 252 0 330 60 q 172 -53 213 -31 q 92 -90 132 -76 q 18 -114 54 -105 l 19 -127 q 23 -159 21 -149 q 24 -165 24 -163 q 25 -167 24 -166 l 25 -170 l 26 -171 q 25 -181 27 -176 q 16 -188 22 -185 q 6 -186 12 -189 q 0 -178 1 -184 l -1 -175 q -1 -173 -1 -174 q -3 -165 -3 -170 q -9 -130 -7 -153 l -10 -121 z "},"E":{"ha":652,"x_min":-20,"x_max":682,"o":"m 199 -168 l 178 -168 q 168 -166 174 -166 q 51 -108 97 -156 q -1 -21 14 -64 q -20 93 -20 22 q 6 240 -20 160 q 290 583 72 434 l 295 586 q 157 631 186 586 q 155 633 157 632 q 154 636 154 635 q 145 671 145 655 q 214 806 145 725 q 309 897 258 857 q 511 1016 424 991 q 517 1017 515 1017 q 532 1019 519 1018 q 557 1021 541 1021 q 600 1013 581 1021 q 635 951 635 996 q 572 800 635 899 q 555 791 566 791 q 544 795 549 791 q 535 812 535 802 q 539 824 535 818 q 599 954 599 905 q 593 975 599 969 q 551 987 581 987 q 532 985 534 987 q 522 983 525 985 q 488 973 515 983 q 328 874 409 939 q 184 711 224 789 q 174 670 174 687 q 288 614 174 614 q 367 618 318 614 q 376 615 372 618 q 380 606 380 612 q 374 593 380 597 l 351 581 q 343 572 346 578 q 334 563 343 568 q 142 404 224 496 q 17 157 41 286 q 10 87 10 122 q 71 -89 10 -23 q 151 -136 103 -125 l 170 -140 q 176 -141 176 -140 l 186 -142 q 455 -5 315 -142 q 542 94 507 47 q 647 252 646 248 q 655 266 652 258 q 667 273 661 273 q 675 270 670 273 q 682 260 680 267 q 618 154 680 248 q 534 44 610 136 l 487 -9 q 294 -146 397 -104 q 264 -157 265 -157 q 239 -163 262 -157 q 236 -164 237 -163 q 226 -165 231 -164 q 199 -168 221 -167 z "},"F":{"ha":268,"x_min":-136,"x_max":747,"o":"m 747 1003 q 740 988 746 994 q 726 982 734 983 l 726 983 l 725 983 l 673 983 l 648 984 q 639 985 643 985 q 622 985 630 985 l 570 985 l 544 985 q 531 985 538 985 l 518 984 l 467 982 l 454 982 l 441 981 l 389 978 l 376 977 l 363 976 l 312 971 q 307 970 309 971 l 299 970 l 261 965 l 235 963 l 184 955 l 179 954 q 171 954 175 954 l 158 951 l 146 949 l 130 873 l 99 718 l 68 562 q 60 512 64 537 l 54 484 l 47 446 l 41 408 q 208 437 118 424 q 269 444 239 440 q 329 449 299 446 q 385 451 358 451 q 436 451 412 452 q 441 450 439 451 l 448 450 l 458 450 q 477 448 468 449 l 479 448 q 495 446 488 447 l 497 446 l 503 446 q 505 445 504 446 q 509 444 507 445 q 512 444 511 444 q 517 444 515 443 q 524 441 521 443 q 533 440 530 441 l 541 438 q 550 433 547 437 q 552 422 553 428 q 546 414 551 417 q 536 412 541 411 l 535 412 l 528 413 q 526 414 527 413 q 519 415 524 414 l 513 416 q 508 416 511 416 q 501 417 505 417 l 494 418 l 492 418 q 477 420 485 419 q 474 420 475 420 q 458 420 467 420 q 454 421 456 421 q 446 421 450 421 l 442 421 q 435 421 439 422 q 386 421 412 422 q 332 418 359 420 q 273 411 302 415 q 212 403 242 408 q 34 368 115 387 q 27 328 30 348 l 14 250 q 5 199 9 224 q 1 172 3 185 l -5 132 l -10 93 l -16 54 l -18 34 l -20 15 q -24 -14 -22 1 q -30 -64 -27 -39 l -36 -143 l -43 -221 l -43 -222 q -48 -233 -43 -229 q -60 -238 -53 -238 q -71 -233 -67 -237 q -76 -224 -75 -230 q -81 -183 -80 -203 q -80 -144 -81 -163 q -74 -66 -79 -104 q -51 87 -64 11 q -31 195 -41 141 q -30 204 -31 199 q -22 255 -26 230 l -9 334 q -6 358 -7 346 q -7 357 -7 358 l -9 357 q -81 339 -54 347 l -109 332 q -123 334 -117 330 q -133 346 -130 338 q -132 361 -136 355 q -119 371 -127 368 l -91 378 q -17 395 -64 385 q 1 399 -9 397 q 2 401 1 400 q 3 412 3 407 l 17 490 q 21 513 20 502 l 22 517 q 22 522 22 519 q 25 540 23 531 q 32 616 29 578 q 36 691 35 653 q 32 766 36 728 q 16 836 28 803 q -27 886 2 871 q -42 891 -34 889 q -59 894 -50 893 q -93 890 -76 893 q -104 892 -99 889 q -109 900 -109 895 q -108 909 -111 905 q -101 915 -106 913 q -76 924 -89 920 q -60 930 -68 928 q -52 932 -55 931 q -35 937 -43 935 q -26 941 -31 939 q -5 947 -15 943 q -1 947 -3 947 q 8 950 4 948 q 25 954 16 952 l 51 960 l 63 964 l 102 972 q 106 972 104 972 q 111 973 109 973 l 123 1037 q 132 1050 125 1046 q 147 1053 139 1055 q 160 1044 156 1051 q 163 1029 165 1037 l 163 1028 l 153 982 l 165 984 q 174 985 170 985 q 179 986 176 986 l 205 990 l 230 995 l 256 998 l 282 1002 l 296 1004 l 304 1004 q 309 1005 306 1004 l 360 1010 l 365 1010 q 373 1012 369 1012 l 386 1013 l 439 1017 l 543 1023 l 569 1023 l 622 1023 q 639 1024 630 1024 q 648 1023 644 1024 l 674 1023 l 726 1023 q 740 1017 734 1023 q 747 1003 746 1011 m 75 803 l 92 882 l 103 941 l 82 937 l 57 931 l 32 926 q 16 922 24 924 q 7 920 11 921 q 3 918 5 919 q -18 913 -7 916 l -19 913 q -15 911 -17 912 q 20 884 5 901 q 41 847 33 866 q 60 769 56 808 q 63 737 62 753 l 75 803 z "},"G":{"ha":855,"x_min":-23,"x_max":1103,"o":"m 526 -174 q 579 -43 554 -109 q 522 -78 549 -59 q 414 -178 462 -121 q 330 -298 365 -233 q 275 -434 294 -363 q 268 -469 270 -452 q 266 -503 265 -486 q 268 -519 266 -512 q 271 -532 269 -527 q 275 -534 273 -534 l 276 -536 l 277 -536 q 286 -534 279 -536 q 298 -528 292 -532 l 311 -517 q 336 -493 324 -506 l 354 -472 l 370 -450 q 382 -435 376 -443 q 459 -308 424 -374 q 526 -174 495 -243 m 296 908 l 299 912 l 302 913 l 310 921 q 326 935 317 928 l 326 935 q 338 945 332 940 q 343 949 340 947 q 417 997 377 977 q 460 1014 437 1008 q 509 1018 484 1020 l 515 1018 l 519 1017 l 522 1017 q 532 1013 526 1015 q 534 1013 532 1014 q 557 1002 546 1008 l 559 1000 l 562 998 l 564 997 q 567 994 566 996 l 570 992 l 577 986 q 593 968 585 977 q 629 884 619 928 q 643 797 640 840 q 646 753 645 774 q 646 731 646 742 q 646 709 646 720 q 639 695 645 701 q 625 690 633 689 q 611 696 616 690 q 606 711 605 702 l 606 711 q 606 732 606 721 q 606 752 606 742 q 604 793 605 772 q 591 873 601 835 q 562 945 582 914 q 550 959 556 954 q 546 963 548 962 q 544 965 545 964 l 540 968 l 538 969 l 536 970 q 522 978 530 975 q 519 979 521 978 l 514 980 l 512 980 q 509 981 511 980 l 505 981 q 469 978 488 983 q 433 964 451 973 q 365 921 397 947 q 361 918 363 919 q 349 907 355 913 l 348 907 q 333 894 340 901 l 325 888 l 323 887 l 321 884 l 309 873 q 304 869 307 871 l 302 866 q 246 805 273 837 q 151 667 193 741 q 79 517 110 595 q 32 379 51 450 q 19 306 24 342 l 18 296 q 12 129 6 212 q 22 47 14 87 q 33 8 27 28 q 50 -28 41 -10 q 73 -59 60 -45 l 80 -65 l 83 -67 q 87 -71 85 -69 q 90 -73 89 -72 q 95 -76 92 -75 l 99 -77 l 101 -79 l 102 -79 l 107 -81 l 111 -83 l 113 -83 q 115 -84 114 -83 q 120 -84 117 -85 q 122 -85 121 -85 q 129 -85 125 -85 l 131 -85 q 138 -85 134 -86 q 175 -77 157 -84 q 245 -37 212 -62 q 310 16 279 -13 q 425 138 371 73 q 530 271 479 203 q 628 409 581 338 q 675 479 652 444 l 699 515 q 709 534 704 524 q 711 541 711 537 l 711 545 l 712 545 q 715 554 714 549 q 721 565 715 561 q 733 568 726 569 q 746 558 743 567 l 752 543 q 735 391 747 466 q 705 242 723 316 q 640 17 677 127 q 641 18 641 17 q 792 47 715 43 q 946 38 869 52 q 1093 -4 1022 24 q 1100 -12 1098 -7 q 1101 -22 1103 -16 q 1094 -29 1099 -27 q 1084 -29 1089 -31 q 941 9 1014 -3 q 794 19 868 24 q 651 -10 720 14 q 627 -20 639 -15 l 616 -49 q 558 -189 590 -120 q 490 -326 528 -259 q 410 -455 454 -393 q 398 -471 404 -463 l 381 -494 l 374 -501 q 362 -515 368 -509 q 333 -544 349 -530 q 317 -557 326 -550 q 296 -567 307 -562 q 290 -568 293 -568 l 283 -570 q 267 -568 275 -570 q 253 -561 259 -566 q 243 -550 247 -555 q 241 -545 241 -547 l 240 -544 q 239 -543 239 -543 q 238 -538 239 -540 q 235 -526 235 -532 q 232 -505 233 -515 q 235 -465 232 -484 q 243 -425 238 -445 q 301 -282 263 -350 q 390 -157 338 -215 q 504 -54 441 -98 q 593 -1 547 -24 q 667 251 637 123 q 696 397 684 323 q 707 477 703 437 q 703 473 705 475 l 698 464 q 651 393 675 429 q 553 254 603 323 q 446 120 501 185 q 329 -5 392 55 q 262 -60 298 -34 q 186 -104 228 -87 q 140 -114 164 -112 l 134 -115 l 127 -114 q 117 -113 123 -114 l 115 -113 q 106 -111 111 -113 q 103 -110 104 -111 l 100 -109 l 98 -109 l 93 -106 q 24 -43 47 -84 q 6 -1 14 -22 q -6 41 -1 20 q -18 127 -16 84 q -12 300 -23 214 q -12 311 -12 304 q 1 388 -9 337 q 19 449 7 413 q 49 529 31 484 q 123 684 80 608 q 220 827 165 760 q 278 891 248 861 l 281 894 q 286 899 283 897 l 296 908 z "},"H":{"ha":562,"x_min":-203,"x_max":665,"o":"m 43 215 l 61 347 q -10 319 26 334 q 20 288 9 307 q 43 215 38 257 m -43 -494 l -45 -493 q -57 -480 -56 -490 q -39 -306 -58 -441 q 6 8 -5 -102 q 13 152 15 91 q 10 188 12 170 q -57 292 1 294 q -71 290 -64 292 l -73 290 l -79 287 q -155 246 -133 260 q -182 232 -176 232 q -200 241 -193 231 q -203 252 -203 246 q -202 259 -203 254 q -142 303 -199 270 q -78 330 -115 319 q 6 366 -33 351 q 64 387 54 385 l 66 389 q 97 657 81 513 l 98 705 q 109 931 112 848 q 85 987 104 988 q 64 979 79 987 q -30 866 14 943 q -53 817 -42 845 q -71 804 -58 804 q -79 805 -75 804 q -92 823 -92 810 q -79 859 -92 827 q 29 1002 -26 960 q 84 1026 58 1025 q 146 934 139 1028 q 146 875 148 898 q 142 786 144 816 l 138 710 l 102 400 q 176 422 131 411 q 373 466 264 448 q 472 479 444 477 q 589 1036 498 644 q 608 1051 593 1050 q 629 1032 628 1050 q 623 1004 629 1029 q 505 483 553 724 l 578 488 q 650 490 623 490 q 660 487 656 490 q 664 477 664 483 q 651 463 665 464 q 500 452 557 460 q 454 67 450 184 q 460 22 457 26 l 461 16 q 449 1 462 2 q 427 73 429 1 q 466 449 422 190 l 435 445 q 250 407 295 421 q 184 389 226 401 q 96 360 123 371 q -30 -481 50 22 q -43 -494 -32 -493 z "},"I":{"ha":199,"x_min":-125,"x_max":468,"o":"m 37 -50 q 31 -14 33 -37 q 34 110 28 33 q 84 479 47 271 q 154 844 121 687 q 180 963 170 919 l 191 1008 q 199 1021 193 1017 q 215 1024 205 1025 q 228 1015 223 1022 q 230 1000 232 1008 l 220 954 q 192 836 209 910 q 117 473 157 680 q 84 278 98 372 q 62 107 70 184 q 59 -12 56 31 q 62 -45 60 -34 q 64 -51 64 -48 l 64 -52 l 65 -55 l 66 -56 q 64 -66 67 -62 q 56 -73 61 -71 q 46 -71 51 -74 q 40 -64 41 -68 l 39 -60 l 38 -58 q 37 -50 37 -55 m 52 960 q 45 973 45 965 q 50 988 44 981 q 50 988 50 988 q 50 989 50 989 l 53 992 l 57 996 q 62 1002 59 999 q 70 1010 66 1006 l 74 1014 l 75 1014 q 79 1018 77 1016 q 102 1036 89 1027 q 132 1054 115 1045 q 166 1068 148 1062 q 205 1078 185 1075 q 247 1083 226 1082 q 288 1082 268 1084 q 303 1082 296 1082 q 308 1081 306 1081 l 327 1078 q 363 1072 346 1076 q 372 1069 368 1070 q 379 1067 376 1068 q 395 1063 387 1065 q 418 1056 408 1060 q 421 1055 419 1056 q 439 1049 431 1052 q 441 1048 440 1049 l 458 1042 q 466 1035 463 1040 q 466 1025 468 1030 q 459 1017 464 1019 q 449 1017 454 1015 l 432 1022 q 429 1023 431 1023 q 412 1028 422 1025 q 410 1029 411 1029 q 387 1035 399 1032 q 372 1038 380 1037 l 369 1040 q 365 1040 367 1040 l 357 1042 q 323 1047 340 1045 q 304 1049 314 1048 l 300 1049 q 286 1050 294 1050 q 249 1049 268 1050 q 212 1044 231 1048 q 178 1034 195 1040 q 149 1021 163 1028 q 124 1004 136 1013 q 105 989 113 996 l 102 985 l 102 985 q 98 982 100 983 q 98 981 98 981 q 92 975 94 978 l 91 974 q 87 970 89 972 l 83 966 l 81 962 q 67 955 75 956 q 52 960 59 954 m 50 -134 l 35 -135 l 34 -135 q 7 -137 20 -136 l 3 -137 q -15 -139 -6 -138 q -24 -140 -20 -140 l -37 -141 q -50 -142 -43 -142 q -57 -144 -54 -143 q -71 -145 -64 -144 q -87 -147 -81 -146 l -101 -150 l -102 -150 q -117 -146 -111 -151 q -125 -132 -123 -141 q -121 -117 -125 -124 q -108 -109 -116 -111 l -106 -109 l -92 -108 q -85 -107 -89 -107 q -75 -106 -81 -106 q -61 -105 -68 -106 q -54 -104 -58 -104 l -39 -103 q -28 -102 -34 -103 q -18 -102 -23 -102 q 1 -101 -9 -101 l 5 -101 q 32 -100 18 -100 l 34 -100 q 48 -99 41 -100 l 64 -99 q 90 -100 77 -99 l 112 -100 q 117 -100 114 -100 l 127 -100 q 138 -101 133 -101 q 142 -102 140 -102 q 152 -102 147 -102 l 156 -102 l 174 -104 q 182 -106 178 -105 l 193 -107 l 194 -107 q 204 -109 199 -109 q 208 -110 206 -109 q 214 -111 211 -110 q 221 -113 218 -112 l 236 -116 q 244 -122 241 -118 q 246 -133 248 -127 q 240 -141 245 -138 q 231 -142 236 -144 l 229 -142 l 216 -140 q 212 -139 214 -140 q 208 -138 210 -139 q 203 -138 206 -138 q 200 -137 201 -138 l 199 -137 l 190 -136 l 189 -136 q 179 -135 184 -135 q 170 -134 175 -134 q 154 -133 163 -134 q 146 -132 150 -133 l 90 -132 q 65 -133 77 -132 q 52 -134 59 -134 l 50 -134 z "},"J":{"ha":420,"x_min":-525,"x_max":676,"o":"m -415 -745 q -157 -589 -317 -743 q -155 -587 -156 -588 q 37 -334 -52 -491 q 184 -19 122 -186 l 174 -20 q -258 -210 -72 -50 q -431 -425 -363 -300 q -470 -514 -454 -468 q -494 -636 -494 -579 q -492 -665 -494 -656 q -492 -669 -492 -667 q -491 -671 -492 -670 q -415 -745 -481 -745 m 355 461 q 352 438 355 461 q 337 365 349 414 q 233 14 297 193 l 274 14 q 630 -41 452 14 q 640 -45 639 -45 l 667 -54 q 676 -66 676 -57 q 663 -80 674 -80 q 652 -77 660 -80 q 467 -30 551 -46 q 281 -14 388 -14 q 222 -16 239 -14 q -134 -612 68 -425 q -307 -745 -224 -699 q -415 -777 -363 -776 q -496 -741 -468 -777 q -520 -687 -514 -718 q -523 -674 -523 -676 q -524 -670 -523 -672 q -525 -636 -525 -658 q -500 -504 -525 -573 q -205 -131 -420 -281 q 98 -3 -61 -34 q 195 11 138 5 q 301 368 261 198 q 341 727 341 574 q 323 876 341 819 q 294 918 311 911 q 292 920 293 918 q 286 921 290 921 q 277 922 281 922 q 260 919 264 920 q 252 917 256 917 q 245 915 248 916 q 117 842 185 896 q 87 846 100 832 q 92 879 75 861 q 129 904 103 887 q 235 951 171 932 q 272 959 252 958 l 273 960 q 378 728 378 960 q 368 553 378 642 q 355 461 362 509 z "},"K":{"ha":778,"x_min":-123,"x_max":782,"o":"m -40 158 q 6 162 -17 161 l 9 186 l -40 158 m 358 108 q 381 101 370 104 q 433 88 407 94 q 494 79 464 82 q 756 178 684 58 q 769 184 761 184 q 775 182 772 184 q 781 170 782 177 q 779 163 781 167 q 730 103 760 129 q 484 45 640 28 q 418 55 452 48 q 294 87 369 65 q 136 120 200 115 q 127 121 132 120 q 117 122 123 121 q 106 123 111 122 q 56 124 81 124 l 31 123 q 26 49 26 90 q 30 -5 26 9 q 32 -14 31 -5 q 18 -27 32 -27 q -1 54 -1 -27 q 2 122 -1 83 q -95 108 -47 118 l -100 107 q -122 125 -117 107 q -123 135 -123 131 q -109 155 -123 149 q 14 224 -64 178 q 151 858 51 463 l 151 857 l 207 1066 q 226 1081 212 1081 q 247 1061 247 1081 q 232 1006 247 1057 q 161 747 191 859 l 160 747 q 48 245 81 436 q 282 419 156 311 q 300 435 291 428 q 361 492 331 463 q 385 516 373 505 q 503 650 456 590 q 720 1031 680 892 q 739 1048 724 1048 q 745 1046 742 1048 q 760 1027 760 1042 q 745 983 760 1023 q 661 814 716 910 q 612 736 634 767 q 460 544 526 618 q 316 404 406 486 q 304 394 307 397 q 256 355 296 387 q 54 212 157 275 q 42 205 47 210 l 36 163 l 59 164 q 139 159 92 164 q 141 159 140 159 q 201 150 179 155 q 292 127 267 136 l 358 108 z "},"L":{"ha":282,"x_min":-44,"x_max":735,"o":"m -25 -110 q -41 -83 -38 -110 q -44 -1 -44 -57 l -43 26 q -7 420 -43 138 q 5 500 -3 444 q 31 644 24 616 q 60 765 35 659 q 124 970 85 871 q 189 1113 149 1042 q 204 1122 193 1122 q 212 1120 208 1122 q 221 1105 221 1114 q 219 1097 221 1101 q 79 713 136 944 q 33 479 56 617 q 29 456 31 467 q 7 291 22 410 q -15 40 -9 157 q -16 -7 -15 22 q -16 -62 -16 -42 q 467 39 150 39 q 723 24 549 39 q 735 9 735 22 q 723 -3 734 -3 l 710 -2 q 503 5 603 5 q 100 -52 262 5 q 97 -53 99 -52 q 85 -58 94 -54 q 3 -98 46 -73 q -25 -110 -15 -110 z "},"M":{"ha":1008,"x_min":-47,"x_max":989,"o":"m 781 -450 l 778 -450 q 767 -436 767 -447 l 767 -433 q 951 665 905 219 q 965 895 965 796 q 946 1066 962 1035 q 910 1100 930 1098 q 639 768 827 1100 q 519 551 598 697 q 360 289 389 309 q 345 282 355 283 q 334 284 337 282 q 317 360 317 296 q 330 532 319 438 q 342 728 342 667 q 334 790 342 782 q 321 779 330 790 q 235 634 286 739 q 59 184 121 404 q -7 -73 22 63 q -26 -90 -12 -90 q -44 -80 -39 -90 q -47 -66 -47 -75 l -29 14 q 87 924 -3 212 q 94 937 88 932 q 106 941 100 941 q 127 921 127 941 q 81 606 127 918 q 21 186 28 243 q 155 544 83 380 l 165 563 q 212 660 174 586 q 334 821 290 815 q 370 764 367 821 q 372 728 372 752 q 353 479 372 656 q 345 345 345 390 q 347 313 345 323 q 385 367 359 326 q 496 563 414 413 q 840 1094 722 994 q 911 1125 876 1125 q 946 1109 935 1123 q 950 1105 949 1107 q 989 900 989 1066 q 976 663 989 798 q 793 -439 937 247 q 781 -450 791 -450 m 350 305 l 349 306 l 350 305 z "},"N":{"ha":705,"x_min":-52,"x_max":695,"o":"m -37 -55 q -48 -44 -45 -52 q -49 -29 -52 -37 l -49 -28 l -45 -20 q -41 -7 -43 -16 q -37 3 -39 -2 q -35 9 -35 6 l 78 977 q 86 991 79 986 q 101 995 92 996 q 114 987 109 994 q 119 972 119 981 l 7 114 q 134 409 54 229 q 231 617 178 507 q 351 844 285 727 q 422 960 385 902 q 464 1017 442 989 q 511 1071 485 1045 q 538 1096 524 1084 q 554 1107 546 1101 q 572 1116 563 1112 q 593 1122 582 1120 q 616 1122 604 1124 q 639 1114 629 1120 q 644 1110 642 1112 q 648 1106 646 1108 l 650 1105 l 650 1104 q 651 1104 650 1104 q 651 1104 651 1104 q 652 1103 651 1103 l 656 1099 q 660 1094 658 1096 l 663 1089 q 665 1086 663 1088 q 665 1084 665 1085 q 668 1080 667 1082 q 675 1061 672 1071 q 685 1025 682 1043 q 692 952 691 988 q 691 808 695 880 q 680 668 687 738 q 644 396 665 528 q 603 143 625 264 q 561 -82 581 23 q 492 -418 519 -294 q 472 -512 479 -479 l 465 -545 q 458 -554 463 -551 q 448 -555 454 -557 q 440 -550 443 -554 q 438 -539 437 -545 l 445 -507 q 465 -412 452 -473 q 532 -77 492 -288 q 573 149 552 28 q 613 401 594 269 q 647 671 633 532 q 658 810 654 741 q 659 950 662 881 q 651 1019 657 985 q 643 1050 648 1035 q 637 1065 640 1058 l 635 1067 q 635 1069 635 1068 q 633 1071 634 1069 l 631 1074 q 630 1076 631 1074 q 610 1088 621 1086 q 586 1084 600 1090 q 573 1077 579 1081 q 560 1068 566 1073 q 536 1046 547 1058 q 492 995 512 1022 q 452 940 471 968 q 382 826 415 884 q 265 600 318 711 q 169 393 212 491 q 36 78 82 196 q 1 -11 13 20 q -7 -35 -5 -26 l -10 -43 q -21 -54 -14 -51 q -37 -55 -28 -58 z "},"O":{"ha":699,"x_min":9,"x_max":672,"o":"m 29 178 q 19 235 22 207 q 13 291 14 263 q 10 345 10 317 q 16 450 9 399 q 33 546 21 500 q 96 709 54 640 q 139 772 115 744 q 188 819 163 799 q 192 822 191 820 q 194 823 193 822 q 197 825 195 824 q 201 827 199 826 q 203 830 202 829 q 212 835 208 833 q 220 840 216 838 q 224 842 222 841 q 231 846 228 844 q 235 848 234 847 q 237 849 237 849 q 241 851 239 850 q 247 854 244 852 l 254 857 q 257 858 256 857 q 263 860 260 859 q 275 864 269 862 q 290 868 284 866 q 298 870 295 869 l 301 871 l 311 873 q 326 870 319 874 q 335 859 332 866 q 332 845 336 851 q 319 837 328 839 l 317 837 l 310 835 l 307 835 q 300 833 304 834 l 300 833 q 288 830 295 831 q 279 827 284 829 q 273 825 276 825 q 271 824 271 824 l 264 821 q 259 819 262 820 l 257 818 q 255 817 256 817 q 245 812 250 814 l 245 812 q 235 806 240 809 q 228 802 231 804 q 224 800 226 800 l 221 796 q 219 795 220 796 q 217 794 218 795 q 214 791 216 793 q 171 751 192 775 q 130 694 149 726 q 70 539 92 629 q 54 446 59 495 q 47 346 48 397 q 50 293 47 319 q 55 239 52 266 q 65 185 60 212 q 79 131 71 158 q 100 78 88 104 q 127 27 111 52 q 163 -19 142 3 q 210 -56 184 -41 q 214 -57 212 -56 l 224 -62 l 234 -66 q 236 -66 235 -67 q 238 -67 237 -67 q 241 -68 240 -68 q 252 -72 246 -71 l 260 -73 l 260 -74 l 262 -74 l 263 -75 l 267 -75 q 327 -71 297 -79 q 383 -44 357 -62 q 431 -5 409 -27 q 509 94 476 41 q 564 204 541 147 q 629 431 612 317 q 640 542 637 488 q 642 596 642 570 q 638 649 641 623 q 620 747 633 701 q 583 833 606 795 q 525 899 558 872 q 452 935 491 924 q 380 941 414 944 q 320 926 347 937 q 275 903 294 915 q 246 882 258 892 q 241 877 243 879 q 238 875 239 876 q 236 873 237 874 q 235 871 235 872 q 233 869 233 871 q 229 867 231 868 l 223 861 q 214 857 220 857 q 204 860 209 857 q 200 868 201 864 q 203 877 199 873 l 210 883 q 210 884 210 883 q 212 886 211 884 q 217 890 214 888 q 222 895 219 892 q 227 899 224 897 q 260 923 239 909 q 309 948 280 936 q 378 965 339 961 q 461 959 417 970 q 544 918 506 947 q 608 846 582 888 q 648 755 634 804 q 669 652 663 705 q 672 597 671 625 q 671 542 672 570 q 660 427 669 485 q 595 193 643 311 q 537 80 572 136 q 457 -24 505 24 q 403 -68 433 -49 q 337 -100 373 -89 q 261 -105 300 -111 l 256 -104 l 254 -104 l 251 -103 l 242 -102 q 228 -98 236 -100 q 224 -96 227 -97 l 216 -94 l 216 -93 l 208 -90 l 193 -83 l 191 -81 q 136 -40 160 -64 q 96 11 113 -16 q 66 66 79 38 q 44 122 54 94 q 29 178 36 151 z "},"P":{"ha":538,"x_min":-54,"x_max":706,"o":"m -39 222 q -49 226 -45 222 q -54 236 -53 230 q -50 245 -54 241 q -40 250 -46 250 q 5 252 -18 250 q 5 259 5 256 q 6 283 5 271 l 7 320 q 9 344 8 332 q 9 357 9 350 l 12 393 q 14 406 13 400 q 16 430 14 418 l 19 467 l 24 503 q 27 533 25 518 q 28 540 28 536 q 28 541 28 541 q 33 576 31 559 q 35 589 34 583 q 39 613 37 601 l 44 649 l 51 686 l 57 722 q 72 794 64 758 q 87 866 79 830 q 105 937 96 902 q 124 1009 114 973 q 134 1021 127 1017 q 149 1023 141 1025 q 161 1013 157 1020 q 163 998 165 1006 l 163 998 q 144 928 153 963 q 127 857 135 892 q 111 785 119 821 q 97 714 104 750 l 85 642 l 79 607 q 75 583 77 595 q 73 570 75 577 l 68 536 l 68 534 q 68 528 68 531 q 64 498 66 513 l 60 463 l 56 427 q 54 403 55 414 q 53 390 54 397 l 52 372 l 50 354 q 50 341 50 347 q 48 317 49 330 l 46 281 l 46 258 q 45 256 45 257 q 75 259 60 257 q 97 353 85 307 q 147 515 118 435 q 213 673 176 595 q 251 749 231 711 q 292 823 271 787 q 391 964 335 897 q 420 996 405 981 q 453 1025 436 1011 q 490 1050 471 1039 q 532 1069 510 1062 q 581 1074 556 1076 q 627 1057 606 1070 q 662 1023 648 1042 q 684 982 675 1003 q 703 895 699 939 q 701 808 706 851 q 657 641 691 721 q 569 492 623 561 q 445 373 515 425 q 295 289 375 321 q 130 240 215 256 q 110 237 120 238 l 100 180 q 83 14 87 97 q 81 -69 81 -28 q 82 -111 81 -90 q 83 -132 83 -121 l 84 -142 q 85 -151 85 -147 l 85 -152 q 81 -167 86 -161 q 67 -174 76 -174 q 53 -171 59 -175 q 45 -159 47 -167 l 37 -123 l 35 -114 l 33 -104 l 26 -68 q 24 -56 24 -62 q 23 -50 23 -53 l 20 -31 q 19 -26 20 -28 q 18 -13 18 -19 l 13 24 l 12 38 l 12 43 l 9 61 l 8 79 l 7 98 l 6 117 l 6 121 q 5 135 5 128 l 5 172 q 4 196 4 184 q 4 209 5 203 l 4 224 q -39 222 -18 223 m 134 343 q 116 266 124 304 q 119 267 117 267 q 125 268 122 267 q 283 315 207 283 q 427 397 360 347 q 545 511 494 446 q 628 653 596 576 q 669 811 661 729 q 670 892 673 852 q 652 970 667 933 q 635 1003 646 988 q 609 1028 624 1019 q 577 1040 594 1038 q 542 1036 560 1042 q 475 998 506 1025 q 445 971 459 986 q 417 941 431 957 q 323 805 365 878 q 283 732 302 769 l 273 713 q 264 695 269 704 q 246 658 255 677 l 246 657 q 182 503 211 581 q 134 343 154 424 m 62 186 l 70 231 q 45 228 58 229 l 45 209 q 45 196 45 203 q 45 173 45 184 l 46 136 q 47 122 46 130 l 47 119 l 48 100 l 49 84 q 62 186 54 135 z "},"Q":{"ha":687,"x_min":6,"x_max":791,"o":"m 6 395 q 9 457 7 426 q 26 575 15 518 q 54 684 37 632 q 134 863 85 787 q 186 928 159 900 q 239 976 212 957 q 244 979 242 977 q 246 980 245 979 q 251 983 249 982 q 253 985 252 984 q 257 987 255 985 q 260 989 258 987 q 262 989 260 989 q 263 990 262 990 q 267 992 264 991 l 269 994 l 279 999 q 288 1002 283 1001 q 291 1004 290 1004 q 293 1005 292 1004 l 297 1006 q 302 1008 300 1008 q 313 1013 309 1010 q 318 1014 316 1013 q 333 1018 326 1016 q 344 1020 339 1019 q 349 1021 347 1021 l 357 1022 l 360 1022 l 369 1023 q 384 1019 378 1024 q 392 1005 391 1014 q 388 990 393 997 q 374 983 382 984 l 372 983 l 364 982 q 361 981 363 982 q 355 981 359 981 q 352 980 353 981 q 342 978 347 979 q 332 976 337 977 q 326 974 329 975 l 321 972 q 317 970 319 972 q 314 970 315 970 q 312 969 313 970 q 309 968 310 968 q 307 967 308 967 l 301 964 q 296 962 298 964 q 290 960 294 961 q 286 957 288 958 q 283 956 285 956 q 283 956 283 956 q 281 955 282 955 l 280 954 q 276 951 278 953 q 274 950 275 951 q 272 949 273 949 q 269 947 270 948 q 266 945 267 946 q 262 943 264 944 q 214 901 239 926 q 168 841 191 876 q 90 672 122 771 q 63 568 75 623 q 47 454 52 513 q 43 393 45 424 q 43 373 43 383 l 43 347 l 43 340 l 43 332 q 56 206 45 269 q 71 143 62 174 q 94 83 81 113 q 126 27 107 53 q 171 -18 145 1 l 177 -23 l 181 -26 l 184 -27 q 186 -28 185 -28 q 191 -31 189 -30 l 197 -34 l 200 -36 q 203 -37 201 -37 q 204 -37 203 -37 l 212 -41 l 216 -42 l 219 -43 q 224 -45 222 -44 l 227 -45 q 288 -44 256 -52 q 347 -18 319 -37 q 399 22 374 -1 q 469 102 437 59 q 466 105 467 104 l 464 107 q 455 116 460 112 l 450 121 q 446 124 448 123 q 409 150 428 140 q 372 163 390 160 q 340 164 354 165 q 315 159 325 163 q 300 153 305 156 q 297 152 298 153 l 296 151 l 296 151 q 280 149 288 146 q 268 158 273 151 q 266 173 264 165 q 275 186 267 181 l 275 186 l 277 187 q 283 190 279 189 q 303 198 290 194 q 336 203 317 202 q 379 201 356 205 q 427 183 403 196 q 471 151 450 170 q 474 149 472 150 l 481 142 q 487 135 484 138 l 490 132 q 554 246 526 187 q 606 371 584 308 q 626 435 617 403 q 635 467 631 450 q 639 482 637 474 l 641 490 l 642 498 q 673 745 673 626 q 664 859 673 805 q 632 960 654 914 q 578 1038 610 1006 q 507 1083 545 1069 q 433 1092 469 1095 q 400 1087 416 1091 q 371 1078 385 1084 q 325 1055 344 1067 q 321 1053 323 1054 q 316 1049 319 1050 q 307 1043 311 1046 q 304 1040 306 1042 q 294 1032 298 1036 q 290 1029 292 1031 q 288 1027 290 1028 q 286 1025 287 1027 q 283 1023 285 1024 l 281 1021 q 279 1019 280 1021 q 279 1019 279 1019 q 276 1016 277 1017 l 270 1010 q 260 1006 265 1006 q 250 1010 255 1006 q 247 1020 247 1015 q 251 1029 247 1025 l 260 1039 q 264 1042 262 1040 q 264 1043 264 1042 q 269 1046 267 1044 l 270 1048 q 276 1053 273 1050 q 288 1062 281 1057 q 291 1065 290 1063 l 300 1072 q 307 1076 303 1074 q 310 1078 309 1077 q 361 1104 331 1092 q 394 1114 376 1110 q 431 1120 412 1118 q 515 1109 471 1124 q 598 1059 560 1095 q 659 972 635 1023 q 693 865 682 923 q 704 745 703 807 q 673 491 704 622 l 665 458 q 656 426 661 442 q 636 361 648 393 q 584 232 614 296 q 514 109 553 169 q 513 107 513 108 q 511 105 512 106 q 512 104 512 105 q 513 104 513 104 l 519 94 q 525 86 522 90 l 532 75 q 540 62 536 68 l 544 56 q 546 54 545 55 q 547 52 547 52 l 550 47 q 555 41 553 44 q 559 36 557 39 q 564 31 562 34 q 569 26 566 28 q 572 22 570 24 q 611 -5 590 5 q 653 -16 632 -16 q 693 -12 675 -17 q 726 1 711 -7 q 749 14 740 7 l 764 24 q 768 28 768 28 q 778 32 772 33 q 787 28 783 32 q 791 18 791 24 q 787 9 791 13 q 781 4 786 8 q 765 -9 776 -1 q 739 -24 755 -16 q 701 -40 723 -33 q 652 -47 679 -47 q 598 -34 625 -46 q 549 -1 571 -22 q 546 2 548 1 l 538 10 q 529 20 534 16 q 523 28 526 24 l 520 32 q 518 34 519 33 l 511 44 q 496 66 504 55 q 491 74 494 71 q 490 75 491 75 q 422 -2 460 34 q 365 -47 396 -27 q 296 -78 334 -68 q 218 -79 258 -87 l 216 -79 q 209 -77 212 -77 l 205 -75 l 203 -75 q 203 -75 203 -75 q 202 -75 203 -75 q 202 -74 202 -75 q 201 -74 201 -74 q 201 -74 201 -74 l 199 -73 l 191 -70 l 190 -70 l 168 -59 q 165 -57 167 -58 l 163 -56 q 157 -52 160 -54 l 150 -47 q 98 5 119 -24 q 61 68 76 35 q 37 133 47 100 q 20 199 26 166 q 6 331 8 266 l 6 395 z "},"R":{"ha":516,"x_min":-47,"x_max":720,"o":"m -43 235 q -47 244 -47 239 q -43 254 -47 250 q -35 258 -39 258 l -34 258 q 16 260 -9 258 l 16 291 l 18 328 q 19 353 18 340 q 20 366 20 359 l 21 384 l 22 403 q 24 416 23 409 q 26 439 24 428 l 29 477 l 33 513 q 37 543 35 528 q 38 551 37 547 l 38 552 q 43 587 40 570 q 44 600 43 593 q 47 624 46 612 l 66 734 q 80 807 73 770 q 96 880 87 843 q 113 951 104 916 q 132 1024 121 987 q 141 1036 134 1032 q 157 1038 149 1040 q 169 1028 165 1036 q 171 1013 173 1021 q 151 942 161 977 q 134 871 142 906 q 117 799 125 835 l 102 727 l 96 691 l 90 654 l 83 618 q 80 595 81 607 q 78 582 79 589 q 73 547 75 565 l 73 546 q 71 538 72 543 q 68 509 69 524 l 63 473 l 60 437 q 57 413 58 425 q 56 400 56 406 l 54 382 l 53 363 q 52 350 53 357 l 51 327 l 49 290 q 48 267 48 278 l 48 264 q 82 268 65 265 q 103 362 92 315 q 154 526 125 446 q 220 685 183 607 q 221 686 220 686 q 239 724 230 705 q 248 743 243 734 q 251 748 250 745 q 258 762 255 755 q 300 838 278 800 q 399 980 343 912 q 429 1012 414 996 q 463 1042 445 1027 q 500 1067 480 1056 q 543 1086 520 1080 q 593 1090 567 1093 q 640 1073 618 1088 q 675 1038 662 1059 q 697 997 689 1019 q 711 954 706 976 q 717 909 715 931 q 715 821 720 865 q 671 652 705 732 q 581 502 636 571 q 456 381 526 433 q 304 296 385 330 q 138 248 223 264 q 118 244 128 246 q 108 187 113 216 q 102 144 104 165 q 224 60 161 98 q 259 42 241 51 q 294 25 276 33 q 330 10 312 17 q 368 -1 349 3 q 405 -10 386 -7 q 443 -14 424 -14 q 481 -14 462 -16 q 518 -7 500 -12 q 528 -9 524 -6 q 534 -17 533 -12 q 533 -27 536 -22 q 525 -33 530 -32 q 484 -41 505 -39 q 441 -41 463 -43 q 400 -37 420 -40 q 360 -28 380 -33 q 321 -15 340 -22 q 283 0 302 -8 q 246 18 264 8 q 211 37 229 27 q 98 112 152 71 q 90 20 93 66 q 88 -64 88 -22 q 90 -106 88 -85 l 90 -112 q 90 -127 90 -119 q 85 -148 90 -137 q 83 -158 86 -154 q 73 -163 79 -162 q 64 -161 68 -163 q 59 -153 60 -158 l 58 -151 q 47 -112 48 -132 l 47 -107 l 45 -98 l 39 -62 q 37 -50 37 -56 l 35 -43 l 33 -24 q 32 -19 32 -22 q 30 -6 31 -12 l 25 31 l 24 45 l 24 50 l 22 68 l 20 87 l 19 105 l 18 124 q 18 128 18 126 q 17 142 18 135 l 16 179 l 16 179 l 16 180 q -14 207 0 193 q -43 235 -29 220 m 47 144 q 48 129 47 136 l 48 125 l 50 107 l 50 89 l 52 71 l 52 58 q 61 141 56 100 l 47 152 l 47 144 m 142 352 q 124 275 132 313 q 127 275 125 275 q 132 277 130 276 q 292 325 215 292 q 437 408 370 357 q 555 523 503 457 q 639 665 606 589 q 680 825 671 742 q 681 906 684 865 q 663 983 677 947 q 646 1017 656 1002 q 620 1042 635 1032 q 589 1053 606 1052 q 553 1050 572 1055 q 486 1012 518 1038 q 456 985 471 1000 q 429 955 442 970 q 334 818 376 891 q 293 744 313 781 l 286 730 q 283 726 285 728 l 274 707 q 256 669 265 688 l 256 669 q 191 513 220 592 q 142 352 163 433 m 68 193 q 76 238 72 216 q 47 235 62 237 l 47 188 q 65 173 56 180 q 68 193 66 183 z "},"S":{"ha":701,"x_min":-133,"x_max":723,"o":"m -133 393 l -133 417 l -132 429 l -131 441 l -130 447 l -130 452 l -128 464 q -127 471 -127 468 q -126 475 -126 473 q -125 479 -125 477 q -123 487 -125 484 q -97 575 -113 532 q -61 657 -81 617 q 31 808 -20 737 q 142 937 82 878 q 272 1038 202 996 q 347 1071 307 1059 l 351 1072 l 356 1074 q 363 1076 359 1075 q 366 1076 365 1076 q 383 1079 374 1078 q 387 1080 385 1079 q 394 1080 390 1080 l 400 1080 q 407 1081 404 1081 l 422 1081 l 427 1080 l 438 1079 q 448 1077 443 1078 l 453 1076 q 456 1075 454 1076 q 458 1074 457 1075 q 460 1074 459 1074 q 468 1072 465 1072 q 475 1068 471 1070 q 478 1067 477 1067 q 479 1066 479 1067 q 487 1063 484 1065 q 490 1061 488 1062 q 495 1059 492 1059 l 497 1057 q 497 1057 497 1057 q 498 1057 498 1057 q 498 1057 498 1057 q 498 1057 498 1057 l 498 1056 l 500 1055 l 504 1053 q 534 1029 519 1042 q 541 1023 537 1026 l 547 1017 q 550 1013 549 1015 q 553 1009 552 1011 l 559 1002 l 562 998 l 565 995 q 567 992 566 994 q 570 987 568 989 l 573 983 q 580 971 576 977 q 594 938 589 955 l 595 937 q 597 930 596 933 q 599 924 598 927 q 600 921 599 922 q 602 909 602 915 q 604 904 603 906 q 608 871 606 887 q 608 838 609 854 q 606 806 608 822 q 595 748 602 776 q 561 647 581 692 q 522 566 541 602 q 458 458 483 494 q 439 431 446 440 q 434 425 436 427 l 432 422 q 418 414 427 415 q 404 418 410 412 q 396 431 397 423 q 399 446 395 439 l 401 448 q 403 450 402 450 q 406 455 404 452 q 424 481 412 464 q 487 585 449 516 q 524 663 505 619 q 557 758 543 705 q 567 811 563 783 q 569 840 568 825 q 569 868 570 854 q 565 897 568 882 q 564 901 565 899 q 562 911 564 906 q 562 914 562 913 l 560 918 l 559 921 q 557 926 558 923 q 546 953 553 939 q 541 962 543 958 l 535 970 q 534 972 534 971 l 532 975 l 529 978 q 526 983 528 981 l 524 984 q 523 986 524 985 l 508 1001 q 482 1021 496 1012 l 479 1023 l 478 1024 l 477 1024 l 476 1025 q 469 1029 472 1027 q 463 1032 465 1031 q 461 1033 463 1032 q 458 1034 460 1033 q 454 1036 456 1035 q 450 1037 452 1036 q 447 1038 448 1038 q 446 1038 446 1038 q 444 1039 445 1038 l 439 1040 q 436 1040 438 1040 l 432 1042 l 428 1042 q 424 1042 426 1042 q 357 1035 391 1045 q 291 1006 323 1025 q 168 910 226 967 q 60 786 111 854 q -29 642 11 718 q -90 479 -69 564 l -91 473 q -92 469 -91 471 q -92 465 -92 467 l -94 458 l -96 442 l -98 427 l -98 416 l -98 410 l -98 395 q -92 353 -97 374 q -77 317 -87 334 q -52 287 -67 299 l -48 283 l -45 282 q -43 281 -45 281 l -39 278 q -38 277 -39 277 q -35 275 -37 276 l -26 271 l -22 269 q -22 269 -22 269 l -17 267 q 0 260 -9 263 q 3 259 1 260 q 24 253 14 256 l 68 241 q 103 232 85 237 q 244 193 174 214 q 331 163 288 180 q 333 163 332 163 q 335 162 334 162 q 363 184 349 174 q 409 215 386 201 q 455 239 432 229 q 498 256 477 249 q 514 261 507 259 q 519 263 517 262 q 540 269 530 266 q 612 281 580 278 q 666 282 644 283 l 682 282 q 685 281 684 282 l 693 281 q 696 281 694 281 l 699 281 l 711 280 q 720 275 716 279 q 723 265 723 271 q 718 256 722 259 q 708 253 714 252 l 697 254 l 694 254 q 691 254 692 254 l 684 254 q 680 255 682 254 l 665 255 q 614 253 644 256 q 547 241 585 250 q 528 237 537 239 q 522 235 525 235 q 508 230 515 233 q 467 214 488 223 q 423 191 445 203 q 380 162 401 178 q 364 149 372 156 q 414 123 390 138 q 453 96 434 111 q 486 62 471 81 q 509 17 501 42 q 513 -33 516 -7 q 500 -79 510 -58 l 495 -90 q 420 -188 452 -157 q 353 -243 388 -218 q 279 -286 317 -268 q 240 -302 260 -296 q 198 -314 220 -310 q 153 -315 177 -318 q 150 -314 152 -315 q 148 -313 149 -314 l 147 -313 l 142 -312 l 141 -312 q 136 -310 138 -311 l 130 -307 q 111 -291 119 -301 l 108 -287 l 106 -286 l 106 -285 q 105 -283 106 -283 l 104 -280 q 103 -278 103 -279 q 101 -274 102 -276 l 99 -269 q 98 -264 98 -266 q 98 -262 98 -263 l 98 -261 l 96 -257 l 96 -253 q 96 -245 96 -250 q 100 -203 96 -223 q 127 -130 111 -165 q 161 -65 142 -96 q 174 -43 167 -54 l 179 -35 l 184 -25 q 197 -5 191 -15 l 207 9 q 215 21 211 15 q 216 23 216 22 q 231 44 224 34 q 268 94 267 92 q 275 102 271 98 q 307 137 291 121 q 235 161 271 151 q 95 199 165 182 q 60 208 77 203 q 15 220 37 214 q -7 227 4 223 q -12 229 -9 228 q -30 235 -20 231 l -36 237 l -37 238 q -41 240 -39 239 l -52 245 l -56 248 q -58 249 -57 249 l -63 252 q -65 254 -64 253 q -68 256 -67 255 l -73 260 q -107 299 -94 277 q -126 345 -120 321 q -133 393 -132 369 m 397 95 q 337 125 368 112 q 297 83 316 106 l 241 7 l 231 -7 l 226 -15 q 222 -21 224 -18 q 210 -41 216 -31 l 204 -50 q 199 -58 201 -54 q 186 -80 193 -68 q 153 -143 169 -111 q 130 -210 138 -176 q 126 -244 125 -228 q 134 -272 126 -261 q 144 -280 138 -277 q 147 -282 146 -281 l 151 -283 l 154 -284 l 156 -284 q 159 -285 157 -285 q 193 -283 175 -287 q 266 -258 230 -277 q 335 -218 301 -241 q 398 -165 368 -194 q 467 -76 428 -136 l 471 -66 q 481 -29 479 -48 q 478 8 484 -10 q 460 42 473 26 q 397 95 435 73 z "},"T":{"ha":253,"x_min":-574,"x_max":726,"o":"m -571 1006 l -574 1008 q -571 1006 -572 1006 m 243 988 l 229 987 l 165 983 l 149 983 l 140 982 l 5 967 q -19 964 -6 966 l -57 959 l -62 958 q -73 957 -68 957 l -90 954 l -201 934 q -246 924 -224 930 l -296 920 q -110 720 -180 838 q 59 323 -41 602 l 74 423 l 82 460 q 88 492 85 476 l 90 499 q 90 500 90 500 q 98 536 94 518 q 102 549 100 543 q 107 574 104 561 l 117 610 l 126 648 l 136 684 q 158 758 146 722 q 180 831 169 795 q 205 903 192 867 q 231 976 217 940 q 242 987 234 985 l 243 988 m 78 186 l 73 79 q 72 64 72 73 l 72 61 l 71 41 l 71 25 q 82 -182 71 -66 q 100 11 101 -89 q 78 186 99 111 m -332 938 q -332 939 -332 939 q -321 949 -328 947 l -321 950 l -319 949 l -319 950 q -306 954 -312 953 q -302 954 -304 954 l -290 958 l -287 958 l -254 965 l -209 974 l -192 977 l -159 983 l -151 984 q -127 988 -138 986 l -94 993 l -79 995 l -68 996 q -62 997 -66 996 l -31 1002 l -24 1002 q 1 1005 -11 1004 l 66 1012 l 72 1012 l 72 1013 l 117 1016 l 117 1015 l 131 1017 q 136 1018 134 1017 q 146 1019 141 1019 l 162 1020 l 260 1024 l 292 1025 l 308 1025 q 311 1025 309 1025 l 324 1025 l 389 1025 q 441 1024 415 1025 l 519 1021 l 584 1016 l 602 1014 q 616 1013 609 1014 l 648 1010 l 712 1003 q 722 998 718 1002 q 725 987 726 993 q 720 978 724 981 q 710 975 715 975 l 709 975 l 645 981 l 613 985 l 597 985 l 581 987 l 517 989 q 496 991 507 991 l 453 991 l 440 992 q 389 992 414 993 l 325 991 q 312 991 318 992 l 309 991 l 293 991 l 256 989 q 258 988 257 989 q 270 977 267 985 q 271 960 273 969 l 270 960 q 245 890 256 926 q 220 818 232 854 q 197 745 209 782 q 176 673 187 709 l 157 600 l 148 564 q 142 539 145 551 q 139 526 141 533 l 131 492 l 131 490 l 130 483 q 123 452 126 468 q 91 267 92 279 l 89 243 q 117 112 103 205 q 118 -103 130 19 q 84 -242 106 -224 l 81 -239 q 67 -244 75 -245 q 53 -239 58 -244 q 46 -227 47 -235 l 39 -189 l 37 -169 l 33 -131 q 33 -119 33 -124 q 33 -112 32 -115 l 31 -92 l 31 -86 q 30 -73 31 -79 l 28 -34 l 28 24 l 29 43 l 30 62 l 30 66 q 31 81 30 75 l 33 120 q 35 145 33 132 q 35 156 35 151 q 45 235 42 222 l 48 269 q -58 558 26 366 q -216 827 -142 750 q -336 914 -291 903 l -334 926 q -334 935 -335 930 l -334 938 l -332 938 z "},"U":{"ha":806,"x_min":-5,"x_max":937,"o":"m 871 987 l 876 996 l 878 1002 q 896 1037 889 1025 l 903 1050 q 913 1059 907 1057 q 927 1058 920 1061 q 935 1047 933 1054 q 934 1034 937 1040 l 934 1034 l 926 1020 q 911 991 920 1009 q 907 982 909 987 q 902 970 905 977 q 895 954 899 962 q 886 932 890 944 q 880 920 883 926 q 871 896 876 908 l 865 881 q 855 854 860 868 q 849 838 852 846 q 839 808 844 823 q 833 790 836 799 q 824 761 829 776 q 817 739 821 750 q 800 684 809 712 q 795 664 798 674 q 785 627 790 646 q 779 606 782 616 q 777 597 779 602 q 775 589 776 593 l 770 567 q 766 550 768 558 q 762 536 764 543 q 762 532 762 534 q 755 505 758 519 q 752 490 753 498 q 749 474 750 482 q 745 458 747 467 q 743 448 744 453 l 742 443 q 741 439 742 441 l 736 411 l 732 395 l 731 385 l 730 379 q 729 374 729 376 q 724 347 726 360 q 719 315 722 332 q 715 293 718 304 q 709 252 712 273 q 693 128 701 189 q 681 12 686 68 q 673 -92 675 -43 q 671 -123 672 -109 q 671 -138 671 -131 l 671 -151 q 670 -160 671 -156 l 670 -180 q 671 -248 670 -220 q 672 -256 672 -252 q 673 -273 673 -265 q 675 -280 674 -276 q 676 -290 675 -286 l 678 -306 q 676 -316 679 -312 q 667 -321 673 -320 q 657 -319 661 -322 q 652 -310 652 -316 l 649 -294 q 648 -283 648 -289 q 646 -275 647 -279 q 645 -258 646 -267 q 644 -250 645 -254 q 642 -180 642 -220 l 642 -149 q 643 -138 643 -143 q 644 -122 643 -130 q 644 -91 644 -107 q 652 14 647 -41 q 663 132 656 71 q 679 256 671 193 q 685 298 682 277 q 688 320 687 309 l 694 353 q 699 385 696 368 q 700 391 700 387 q 702 401 701 395 l 705 417 q 709 437 707 427 q 711 449 710 443 l 712 454 q 714 465 713 460 q 718 481 715 473 q 724 511 721 496 q 724 512 724 511 q 730 540 727 526 q 731 543 730 542 q 739 574 734 559 q 743 596 741 585 q 745 605 745 601 q 750 622 748 613 q 753 635 751 628 l 763 673 q 769 693 766 683 q 771 701 770 697 q 662 475 720 586 q 581 332 624 403 q 492 195 539 262 q 390 65 445 127 q 267 -47 336 2 q 230 -68 249 -58 l 220 -73 l 216 -75 l 210 -77 q 207 -79 209 -78 l 190 -85 q 146 -94 169 -92 q 137 -95 142 -95 l 127 -95 l 124 -94 l 117 -94 l 115 -94 l 113 -94 l 107 -93 l 102 -92 q 59 -71 78 -86 q 43 -54 50 -62 q 30 -35 35 -44 q 3 47 9 5 q -5 132 -4 90 q -3 214 -5 173 q 16 378 3 297 q 81 699 41 541 q 123 858 101 779 q 169 1015 144 937 q 179 1027 172 1023 q 195 1029 186 1031 q 207 1019 203 1026 q 208 1003 210 1011 l 208 1003 q 160 848 182 926 q 117 690 137 769 q 79 532 96 612 q 49 373 62 453 q 30 212 35 293 q 27 132 27 172 q 34 53 28 92 q 57 -19 40 14 q 66 -34 61 -27 q 79 -47 73 -41 q 109 -62 92 -58 l 113 -63 l 117 -63 l 117 -64 l 121 -64 l 126 -64 l 138 -64 q 144 -64 141 -64 q 181 -56 163 -62 l 190 -54 q 195 -52 193 -52 q 199 -50 197 -51 l 203 -48 l 208 -46 l 216 -42 q 250 -22 234 -33 q 312 27 283 0 q 368 84 342 54 q 469 211 422 144 q 557 347 515 277 q 637 488 599 416 q 777 782 713 632 l 782 795 l 871 987 z "},"V":{"ha":605,"x_min":14,"x_max":837,"o":"m 42 812 q 51 892 46 857 q 62 981 58 949 l 66 1012 q 75 1025 68 1021 q 90 1029 81 1030 q 103 1021 98 1028 q 107 1006 108 1015 l 107 1006 l 102 975 q 91 888 98 945 q 73 734 82 823 l 72 734 q 64 652 68 695 q 54 441 57 553 q 60 208 50 329 q 77 87 64 146 q 94 28 84 56 q 121 -24 104 -1 l 123 -28 l 125 -31 l 137 -42 l 140 -45 l 141 -45 l 142 -45 l 143 -47 l 146 -48 q 147 -49 146 -48 l 149 -50 q 160 -52 155 -52 q 184 -47 172 -52 q 209 -33 197 -41 q 254 9 233 -14 q 295 59 275 33 q 367 166 333 111 q 430 278 400 222 q 541 504 490 392 q 706 918 642 730 q 760 1088 738 1011 q 794 1220 782 1164 q 808 1306 806 1276 l 810 1329 l 810 1337 q 814 1347 810 1343 q 824 1350 818 1350 q 833 1346 829 1350 q 837 1336 837 1342 l 837 1328 l 835 1303 q 821 1215 833 1272 q 787 1080 809 1158 q 734 909 766 1002 q 570 491 670 719 q 459 263 519 378 q 395 149 429 205 q 322 39 361 92 q 279 -14 302 12 q 229 -60 257 -39 q 198 -79 215 -71 q 159 -87 180 -87 q 138 -83 148 -86 l 132 -81 q 129 -79 131 -80 q 127 -78 128 -79 l 127 -78 l 125 -77 l 123 -75 l 121 -74 l 119 -73 l 119 -73 l 119 -72 l 115 -70 l 113 -68 l 111 -66 l 104 -60 l 98 -53 l 96 -50 l 93 -45 q 61 16 73 -16 q 43 79 50 47 q 23 204 28 142 q 16 442 14 328 q 26 654 19 555 q 39 812 33 741 l 42 812 z "},"W":{"ha":1050,"x_min":2,"x_max":1057,"o":"m 21 264 q 43 352 31 309 q 72 438 57 396 q 105 523 87 481 q 142 606 123 565 q 161 646 151 626 q 182 687 172 667 q 194 697 186 694 q 210 695 202 699 q 219 683 217 691 q 218 668 222 675 l 218 667 q 197 629 208 648 q 178 589 188 608 q 142 507 159 549 q 109 425 124 467 q 80 341 94 383 q 68 298 74 320 q 58 256 62 277 q 43 170 47 213 q 41 83 37 126 q 59 2 43 40 l 60 -1 l 60 -1 l 62 -3 l 64 -7 l 66 -13 q 68 -16 68 -14 q 80 -30 73 -24 q 94 -39 86 -35 q 109 -41 100 -41 l 113 -41 l 117 -40 q 119 -39 119 -39 q 126 -37 123 -39 l 133 -35 q 135 -33 134 -34 q 138 -32 136 -33 q 140 -31 139 -31 l 140 -31 q 144 -28 142 -30 q 177 -3 161 -18 q 234 63 208 26 q 282 137 260 99 q 323 216 304 176 q 358 297 342 256 q 366 321 363 309 q 378 377 372 349 q 402 469 389 423 l 403 471 q 410 479 405 476 q 420 479 414 481 q 427 474 425 478 q 429 465 430 469 q 424 425 427 444 q 408 326 416 376 q 401 278 404 302 q 376 93 386 185 q 366 -94 367 0 q 374 -278 363 -186 q 391 -368 380 -323 q 421 -453 402 -412 q 428 -467 425 -460 q 431 -473 430 -470 l 434 -478 q 443 -492 438 -485 q 453 -505 448 -498 l 456 -509 q 458 -513 457 -511 q 470 -525 464 -519 l 473 -529 l 474 -529 l 474 -530 l 475 -530 l 477 -532 l 479 -534 l 481 -536 l 484 -537 q 499 -544 492 -542 q 535 -540 516 -547 q 553 -532 544 -536 q 571 -520 562 -526 q 605 -492 589 -507 q 665 -423 637 -460 q 718 -347 693 -387 q 764 -268 742 -309 q 846 -100 809 -186 q 914 73 884 -15 q 968 252 944 161 q 1005 434 991 342 q 1017 526 1013 480 q 1023 619 1021 573 q 1009 803 1025 712 q 999 848 1004 825 q 985 891 993 869 q 967 933 977 912 q 945 972 957 954 q 918 1008 932 991 q 886 1040 903 1025 q 810 1088 852 1069 q 803 1096 805 1091 q 804 1106 802 1101 q 811 1114 806 1112 q 822 1113 817 1116 q 905 1061 867 1093 q 939 1027 923 1046 q 969 988 956 1008 q 994 946 983 968 q 1013 901 1004 924 q 1028 856 1021 879 q 1039 809 1034 833 q 1055 618 1057 714 q 1039 429 1053 523 q 1002 243 1025 335 q 948 62 979 151 q 880 -115 918 -28 q 798 -286 843 -202 q 696 -447 753 -370 q 632 -519 667 -486 q 594 -552 614 -537 q 572 -566 584 -559 q 548 -576 561 -572 q 521 -583 535 -582 q 491 -582 506 -585 q 463 -570 476 -578 q 458 -567 460 -569 l 457 -566 l 454 -564 l 452 -562 l 449 -559 l 448 -559 q 448 -558 448 -558 q 447 -558 448 -558 q 447 -558 447 -558 q 447 -558 447 -558 l 447 -557 l 446 -557 l 441 -553 q 428 -537 434 -545 l 425 -534 q 422 -531 424 -532 q 410 -513 416 -522 l 400 -497 q 397 -492 398 -494 l 394 -486 q 385 -470 389 -478 q 353 -378 364 -425 q 335 -283 341 -331 q 326 -93 323 -188 q 336 96 327 2 q 350 211 342 154 l 349 208 q 347 205 347 206 q 304 124 327 163 q 256 47 282 85 q 196 -23 229 9 q 159 -53 180 -39 q 155 -56 157 -55 l 154 -56 q 152 -58 153 -57 q 149 -60 151 -58 q 146 -60 148 -60 q 137 -65 142 -63 q 111 -72 125 -70 q 83 -68 97 -73 q 58 -54 68 -63 q 41 -34 47 -45 q 39 -31 39 -33 q 34 -23 36 -27 l 31 -17 q 29 -14 30 -15 q 28 -12 28 -13 q 5 81 9 33 q 7 174 2 127 q 21 264 12 219 z "},"X":{"ha":916,"x_min":-237,"x_max":943,"o":"m 229 527 l 223 518 l 220 514 q 215 507 218 510 q 212 501 213 504 l 210 498 q 205 490 208 494 q 241 338 221 415 q 294 170 263 253 q 327 88 309 128 q 368 13 345 49 q 421 -51 391 -23 q 488 -89 452 -79 q 562 -90 525 -99 q 597 -78 579 -85 q 629 -60 614 -70 q 688 -18 661 -41 q 737 28 714 5 q 816 119 783 77 q 871 195 849 163 q 890 223 882 210 q 905 244 899 235 l 917 262 q 925 268 920 267 q 935 266 930 269 q 941 257 940 262 q 939 248 943 252 l 928 229 l 913 208 q 894 179 905 195 q 838 102 871 146 q 758 8 805 58 q 707 -41 734 -16 q 645 -87 679 -65 q 609 -106 628 -97 q 569 -119 590 -114 q 525 -125 547 -125 q 479 -119 502 -125 q 437 -102 457 -113 q 400 -75 417 -90 q 341 -5 366 -43 q 297 74 316 33 q 262 157 277 115 q 208 328 230 243 q 178 448 191 389 q 166 429 172 438 q 153 408 160 418 q 146 395 150 401 q 139 382 142 389 q 126 361 133 372 q 123 355 125 358 q 117 344 119 349 l 107 326 q 70 258 88 292 q 47 213 58 235 q 35 189 41 201 q 27 174 31 181 q 18 155 22 164 q 7 134 12 144 q 1 121 4 127 q -26 65 -12 93 l -30 56 l -34 47 q -37 39 -36 43 q -42 29 -40 35 l -45 24 q -54 4 -49 14 l -59 -8 q -72 -37 -65 -22 q -110 -125 -93 -83 q -151 -225 -133 -180 q -182 -302 -170 -270 l -210 -370 l -210 -370 q -217 -377 -212 -375 q -227 -378 -222 -380 q -235 -370 -233 -375 q -235 -360 -237 -366 l -208 -292 q -179 -216 -196 -260 q -178 -214 -178 -215 q -151 -149 -166 -184 q -137 -114 -144 -132 q -99 -24 -120 -71 q -86 5 -93 -10 l -73 36 q -70 42 -71 39 q -65 52 -68 47 q -58 68 -62 60 l -50 87 q -27 135 -38 111 q -21 147 -24 141 q -11 169 -16 158 q 6 203 -3 186 q 18 227 12 215 q 41 273 29 250 q 64 317 53 295 q 78 342 71 330 q 84 354 81 349 q 87 360 86 357 q 94 371 90 366 q 97 377 96 374 q 111 401 104 389 q 117 412 114 406 q 137 446 127 429 q 142 455 139 451 q 157 481 150 468 q 164 491 161 486 q 167 496 165 493 l 166 496 l 166 496 q 122 707 142 608 q 104 795 113 753 q 79 914 91 861 q 54 1003 66 967 q 33 1055 42 1039 q 28 1061 31 1059 l 28 1062 l 27 1063 l 27 1064 q 26 1065 26 1064 l 26 1065 l 22 1069 q 18 1084 17 1076 q 24 1099 18 1093 q 39 1103 31 1103 q 54 1096 47 1102 l 57 1091 q 60 1088 58 1090 l 60 1087 q 62 1084 61 1086 q 68 1075 64 1080 q 92 1015 79 1054 q 142 803 117 937 q 159 715 151 761 q 195 541 176 633 l 196 543 q 200 549 197 546 l 220 581 l 241 610 q 241 611 241 611 l 248 619 q 252 625 249 623 q 258 635 254 630 q 262 640 260 637 q 283 667 273 654 q 298 685 291 677 q 305 694 301 689 l 309 699 l 316 707 q 328 720 322 713 q 333 725 331 722 q 350 743 342 735 q 361 753 355 748 q 363 755 361 754 l 366 759 l 367 760 l 368 760 l 370 762 l 372 764 q 399 784 385 775 q 430 797 413 792 q 463 799 447 801 q 493 789 479 796 q 534 756 519 774 q 559 723 549 739 q 585 672 578 690 l 590 658 l 591 652 q 591 637 594 644 q 578 627 587 630 q 564 628 571 625 q 553 640 556 631 l 553 640 l 547 656 q 524 702 541 673 q 504 730 516 716 q 475 754 492 745 q 439 758 458 763 q 418 750 429 756 q 397 735 408 745 l 395 733 l 394 732 l 394 732 l 393 731 q 387 726 390 728 q 380 719 384 722 l 377 715 q 361 699 368 708 l 355 693 q 345 682 350 687 l 334 669 q 326 661 330 665 l 313 644 q 294 619 303 632 l 288 612 q 281 604 284 608 l 273 593 q 273 591 273 592 q 245 553 259 572 q 237 539 241 546 l 232 532 l 229 528 l 229 527 z "},"Y":{"ha":928,"x_min":12,"x_max":947,"o":"m 662 138 q 671 212 667 176 q 686 448 685 330 q 683 567 686 508 q 673 684 680 626 q 663 742 669 713 q 656 769 660 755 q 655 772 655 770 q 654 775 654 773 l 653 777 q 646 756 649 767 q 629 701 637 728 q 612 632 621 666 q 600 587 606 610 q 570 474 586 530 q 496 257 539 362 q 447 155 474 204 q 386 61 420 106 q 307 -17 351 17 q 283 -33 295 -25 q 259 -45 271 -39 q 233 -56 246 -52 l 229 -58 q 227 -59 228 -58 q 220 -61 223 -60 l 213 -63 l 207 -64 l 205 -65 l 203 -65 l 199 -66 l 193 -67 q 178 -69 186 -68 q 149 -68 164 -71 q 120 -61 134 -66 q 94 -46 106 -55 q 57 -3 71 -27 q 45 21 50 9 q 36 45 40 33 q 17 142 21 94 q 12 235 12 190 q 20 409 12 327 q 39 564 28 491 q 83 812 61 709 q 118 971 104 916 q 128 1013 125 998 l 132 1027 q 141 1039 134 1035 q 157 1042 148 1044 q 169 1032 165 1039 q 171 1017 173 1025 l 168 1002 l 157 962 q 122 804 144 907 q 77 557 100 701 q 59 405 66 486 q 50 236 50 324 q 55 146 50 191 q 73 57 59 101 q 80 36 76 46 q 90 16 85 26 q 117 -16 101 -3 q 154 -31 133 -28 q 176 -32 164 -33 l 176 -32 q 186 -31 182 -31 l 195 -28 l 197 -28 l 197 -28 l 210 -25 q 215 -23 212 -24 q 216 -22 216 -23 l 220 -21 q 243 -12 232 -17 q 264 -1 254 -7 q 285 13 275 6 q 357 84 325 43 q 415 173 389 125 q 463 271 441 220 q 536 484 505 374 q 566 595 551 539 q 578 640 572 618 q 595 709 586 675 q 612 767 603 738 q 624 797 616 781 q 625 798 624 798 q 635 814 627 805 q 642 819 637 817 q 648 821 644 820 q 654 822 650 822 q 667 818 662 821 q 670 815 669 817 q 673 812 672 814 q 675 810 674 811 l 676 809 q 677 808 676 808 q 677 807 677 808 l 680 804 l 680 803 q 680 802 680 802 l 682 800 l 684 795 q 686 789 684 792 q 686 787 686 788 q 688 782 688 785 q 689 779 688 781 q 696 749 694 764 q 707 689 703 719 q 717 569 714 629 q 720 448 720 509 q 705 208 718 328 q 699 161 702 184 q 722 175 710 168 l 725 177 q 741 186 733 182 q 766 200 753 193 q 873 248 830 235 q 913 260 899 256 l 915 260 l 929 264 q 939 262 935 265 q 946 254 944 259 q 944 244 947 249 q 937 237 941 239 l 936 237 l 922 234 l 920 233 q 882 222 907 229 q 825 200 870 219 q 694 124 781 182 l 688 94 l 688 94 q 663 -27 677 33 q 587 -250 634 -143 q 533 -354 563 -304 q 467 -448 503 -404 q 387 -529 430 -492 q 372 -541 379 -534 q 364 -547 368 -543 l 353 -555 l 349 -557 q 342 -563 345 -560 q 294 -592 319 -579 q 267 -604 281 -599 q 237 -610 253 -609 q 219 -608 228 -610 q 201 -600 210 -606 q 189 -585 193 -593 q 183 -568 184 -576 q 181 -538 180 -553 q 184 -510 182 -524 q 199 -458 191 -483 q 261 -315 228 -377 q 302 -242 294 -254 q 414 -91 355 -160 q 655 134 534 47 l 662 138 m 654 98 q 437 -110 544 16 q 327 -258 379 -178 l 288 -324 q 228 -468 245 -421 q 214 -516 220 -492 q 212 -540 212 -528 q 213 -562 211 -551 q 220 -576 215 -572 q 235 -579 225 -580 q 257 -574 245 -578 q 279 -565 269 -570 q 324 -538 302 -553 l 331 -532 l 335 -530 l 345 -522 q 353 -515 349 -519 q 366 -505 359 -511 q 442 -428 407 -470 q 506 -337 477 -385 q 557 -237 534 -290 q 631 -19 603 -133 q 649 66 641 23 q 648 65 648 65 l 654 98 z "},"Z":{"ha":670,"x_min":-139,"x_max":1018,"o":"m -108 -64 q -92 -45 -108 -64 q -16 -13 -77 -25 q -6 -11 -11 -12 q 50 48 22 18 q 104 110 77 79 l 151 164 q 158 173 155 168 l 212 235 q 233 261 222 248 q 265 299 250 280 q 283 321 274 310 q 318 362 300 342 q 345 393 331 378 q 370 425 357 409 q 562 679 474 551 q 640 807 606 743 q 670 873 658 840 q 685 938 683 906 q 684 953 685 945 q 680 966 683 960 q 665 986 675 979 q 653 993 659 990 q 648 995 651 994 q 646 996 648 996 l 644 997 q 639 998 642 998 q 609 1003 625 1002 q 546 1002 577 1005 q 484 993 515 998 q 369 970 424 982 q 336 962 352 966 q 264 946 298 954 q 88 920 164 924 q 18 927 50 919 q -11 939 3 932 q -32 958 -24 947 q -39 968 -36 963 q -40 970 -39 969 q -43 977 -42 974 l -45 980 q -45 982 -45 981 q -46 983 -45 983 q -47 986 -46 985 l -47 987 q -47 989 -47 988 q -49 993 -48 991 l -49 995 q -50 996 -49 996 l -50 999 q -50 1000 -50 1000 l -50 1004 q -46 1020 -52 1013 q -33 1027 -41 1026 q -18 1024 -24 1029 q -10 1010 -12 1019 l -10 1007 l -9 1007 l -9 1002 q -9 1001 -9 1002 l -9 1000 q -8 998 -8 999 l -8 997 q -7 996 -7 996 q -7 995 -7 995 q -6 993 -7 994 q -5 990 -6 991 q -4 988 -5 989 q -3 987 -4 987 q -1 983 -2 985 q 10 973 3 978 q 29 965 18 968 q 87 959 52 958 q 256 982 157 961 q 328 997 291 989 q 361 1004 345 1000 q 479 1027 416 1016 q 543 1035 510 1031 q 612 1036 576 1038 q 648 1029 629 1034 q 654 1027 651 1029 q 657 1027 656 1027 l 660 1025 q 666 1023 663 1024 q 684 1013 675 1019 q 700 997 693 1006 q 710 978 707 988 q 715 958 714 968 q 717 937 717 947 q 711 898 716 917 q 700 862 707 880 q 668 793 686 826 q 587 662 631 726 q 392 407 497 533 q 378 390 385 398 l 366 375 q 340 344 353 359 l 330 332 l 287 281 q 262 251 274 266 q 233 218 248 234 q 206 186 220 201 l 179 155 l 138 106 q 125 92 132 99 q 70 29 98 60 q 39 -3 55 13 q 143 -6 92 1 l 153 -7 l 155 -8 l 157 -8 l 162 -9 l 167 -10 l 172 -12 l 173 -12 q 182 -14 177 -12 q 218 -24 200 -18 q 287 -51 254 -37 q 390 -96 340 -73 q 414 -106 402 -101 q 532 -157 475 -134 q 643 -195 589 -179 q 745 -214 696 -210 q 834 -211 793 -219 q 871 -200 854 -207 q 903 -184 888 -193 q 947 -144 931 -165 q 955 -136 951 -140 q 956 -134 955 -135 q 960 -130 958 -132 q 962 -127 960 -128 q 962 -125 962 -125 q 965 -121 964 -123 q 968 -116 967 -119 q 972 -111 970 -113 q 974 -108 972 -109 l 975 -105 q 976 -104 975 -104 q 978 -100 977 -102 q 979 -98 979 -99 l 981 -93 q 986 -85 984 -88 q 987 -83 986 -83 l 991 -74 l 991 -73 q 999 -66 994 -68 q 1009 -66 1004 -64 q 1016 -74 1015 -69 q 1016 -84 1018 -79 l 1012 -94 l 1010 -96 q 1006 -106 1009 -100 l 1005 -109 q 1002 -113 1004 -111 l 1001 -116 q 1000 -117 1001 -117 l 999 -120 q 998 -121 999 -121 q 996 -126 997 -124 q 993 -131 994 -129 q 989 -137 991 -134 q 987 -141 987 -139 l 985 -142 l 980 -151 q 979 -152 979 -151 l 978 -153 q 970 -163 975 -158 q 920 -210 951 -187 q 884 -229 903 -220 q 841 -243 863 -237 q 742 -248 795 -252 q 633 -229 690 -243 q 519 -191 578 -213 q 399 -141 460 -168 q 359 -124 379 -132 q 272 -87 316 -105 q 205 -62 239 -73 q 172 -52 189 -56 q 165 -50 168 -51 l 163 -50 l 159 -50 q 157 -49 158 -49 q 155 -48 156 -49 l 151 -47 l 149 -47 l 146 -47 l 146 -47 l 138 -45 q -6 -52 66 -35 q -9 -53 -7 -52 l -10 -53 q -47 -87 -28 -71 q -79 -114 -63 -101 q -98 -124 -83 -117 q -126 -117 -114 -131 q -108 -64 -139 -103 m -89 -84 q -62 -66 -75 -76 q -52 -57 -57 -62 q -73 -71 -62 -64 q -89 -84 -81 -77 z "},"[":{"ha":205,"x_min":28,"x_max":285,"o":"m 267 690 l 267 690 q 279 685 274 690 q 285 673 284 680 q 280 660 285 665 q 268 654 275 655 q 266 654 267 654 l 183 659 l 58 -64 l 144 -62 q 154 -65 151 -62 q 158 -75 158 -69 q 154 -84 158 -81 q 145 -89 151 -88 l 42 -91 q 32 -87 36 -91 q 28 -78 28 -83 q 28 -75 28 -77 l 158 675 q 163 683 159 680 q 171 687 166 686 l 172 687 l 267 690 z "},"\\":{"ha":261,"x_min":11,"x_max":255,"o":"m 252 -83 l 252 -83 l 253 -84 q 253 -95 255 -90 q 245 -102 251 -100 q 235 -102 240 -104 q 228 -94 230 -100 q 215 -64 228 -94 q 214 -61 214 -62 q 212 -56 213 -58 q 210 -52 211 -54 q 209 -47 210 -50 q 206 -40 208 -44 q 201 -28 204 -35 q 189 9 195 -11 q 185 18 187 14 q 170 66 178 41 q 168 73 169 70 q 153 121 160 96 q 149 135 151 128 q 136 179 142 157 q 129 201 132 191 q 117 245 123 223 q 109 270 113 258 q 102 299 106 285 q 90 338 96 319 q 81 376 85 357 q 73 406 77 391 q 56 468 64 438 q 54 477 55 473 q 41 524 47 502 q 12 640 14 631 q 12 640 12 640 l 12 640 q 14 653 11 647 q 25 661 18 659 q 39 659 33 663 q 47 648 45 655 l 47 648 q 47 648 47 648 q 75 532 49 637 q 88 476 81 506 q 96 447 92 462 q 104 414 100 431 q 121 347 113 381 q 140 278 130 313 q 146 254 143 266 q 158 210 152 232 q 165 188 161 199 q 177 144 171 165 q 181 129 179 136 q 195 82 189 104 q 197 75 197 79 q 212 27 205 50 q 216 18 214 22 q 228 -19 222 -2 q 233 -33 231 -26 q 235 -38 234 -35 q 237 -46 236 -42 q 239 -51 239 -49 q 241 -54 240 -52 q 252 -83 252 -83 z "},"]":{"ha":213,"x_min":8,"x_max":265,"o":"m 26 -91 l 26 -91 q 14 -86 19 -91 q 8 -74 9 -81 q 13 -61 8 -66 q 26 -56 18 -56 q 27 -56 26 -56 l 110 -60 l 235 663 l 149 661 q 139 664 143 661 q 135 673 135 668 q 139 683 135 680 q 148 688 142 687 l 251 690 q 261 686 257 690 q 265 677 264 682 q 265 674 265 675 l 135 -77 q 130 -85 134 -82 q 122 -88 127 -88 l 121 -88 l 26 -91 z "},"^":{"ha":186,"x_min":23,"x_max":156,"o":"m 154 410 l 154 410 q 155 403 155 403 q 153 392 156 397 q 144 387 150 388 q 135 389 139 386 q 129 397 130 392 l 129 397 q 127 405 129 397 q 122 425 125 412 q 119 437 121 430 q 112 429 115 433 q 99 416 105 422 q 75 397 86 406 q 58 385 64 389 q 56 384 57 385 q 53 382 54 382 q 51 380 51 380 q 38 378 45 377 q 26 386 31 380 q 24 399 23 393 q 32 410 26 406 q 33 411 33 411 l 33 411 q 35 412 33 411 q 37 413 35 412 q 39 414 37 414 q 56 425 45 418 q 77 441 66 432 q 89 451 83 446 q 98 462 94 456 q 101 466 100 464 q 101 467 101 467 l 101 467 l 102 468 l 102 468 l 102 470 q 103 472 102 471 l 104 473 l 104 474 q 105 476 105 475 q 106 477 106 477 q 109 479 108 478 q 112 481 110 480 q 116 483 113 482 q 121 483 118 483 q 128 481 125 483 q 130 479 130 480 q 132 478 131 479 q 133 477 132 477 l 134 476 q 138 470 136 473 q 138 470 138 470 q 142 460 140 465 q 146 445 144 452 q 150 431 149 437 q 154 410 153 418 z "},"_":{"ha":310,"x_min":9,"x_max":290,"o":"m 277 36 l 277 36 q 287 32 283 36 q 290 22 290 28 q 287 13 290 17 q 277 9 283 9 l 28 5 q 15 10 20 5 q 9 22 10 15 q 15 35 9 30 q 27 40 20 40 q 27 40 27 40 q 28 40 27 40 l 277 36 z "},"`":{"ha":157,"x_min":37,"x_max":130,"o":"m 124 406 l 124 406 q 129 397 128 403 q 126 387 130 392 q 118 382 123 383 q 108 385 113 382 q 104 387 108 385 q 99 390 102 389 q 95 393 97 392 q 94 395 94 394 q 88 399 91 397 q 87 400 87 399 q 85 401 86 401 q 83 404 85 402 q 83 404 83 404 q 80 407 82 405 q 77 410 79 408 q 75 413 75 412 q 73 414 74 414 q 67 422 70 418 q 67 422 67 422 q 63 427 64 425 q 61 430 62 429 q 56 439 58 435 q 54 441 54 439 q 51 446 52 444 q 47 454 48 450 q 41 465 43 460 q 40 467 41 466 q 40 467 40 467 q 39 469 40 468 q 39 470 39 470 q 39 483 37 477 q 49 493 42 490 q 63 492 56 495 q 72 483 69 490 q 73 481 73 482 l 73 481 q 73 480 73 481 q 73 479 73 480 q 74 478 73 479 q 77 468 75 474 q 80 462 79 465 q 83 457 81 460 q 83 455 83 456 q 87 448 85 451 q 90 445 88 446 q 92 440 91 442 q 92 439 92 440 q 97 433 95 436 q 98 431 98 432 q 100 430 99 431 q 101 429 100 429 q 102 427 102 427 q 104 424 104 425 q 104 424 104 424 q 107 421 106 422 q 108 420 108 420 q 112 416 110 418 q 115 414 113 415 q 117 412 115 413 q 120 410 119 410 q 123 407 123 407 l 124 406 z "},"a":{"ha":317,"x_min":-40,"x_max":347,"o":"m 302 190 l 302 190 q 255 145 283 168 q 240 134 248 139 q 223 124 232 129 q 203 117 214 120 q 197 116 201 117 q 197 116 197 116 q 195 116 195 116 l 191 116 l 189 116 l 187 116 q 178 119 185 116 q 165 125 171 121 q 157 134 161 130 q 146 154 150 144 q 138 191 140 173 q 136 199 137 195 q 109 168 125 184 q 81 141 97 155 q 42 117 64 127 q 16 110 31 111 q 9 110 13 109 q 7 110 8 110 q 5 110 6 110 q 5 110 5 110 q 1 111 3 110 q -3 111 -1 111 l -5 112 l -6 113 l -7 113 q -7 113 -7 113 q -7 113 -7 113 q -7 113 -7 113 q -7 113 -7 113 q -7 113 -7 113 q -7 113 -7 113 l -7 113 l -9 114 l -13 115 q -18 118 -16 117 q -20 119 -19 119 q -26 125 -23 122 q -35 139 -32 132 q -38 168 -40 154 q -33 193 -37 181 l -31 199 l -29 205 q -27 209 -28 208 q -26 211 -27 210 l -26 214 l -25 214 l -25 215 l -24 216 q -13 238 -19 228 q 0 257 -7 248 q 28 291 13 276 q 60 317 43 307 q 65 320 62 319 q 68 321 66 321 q 71 323 69 322 q 76 326 73 324 q 94 331 85 330 q 126 329 112 334 q 132 326 130 328 q 137 323 135 325 q 140 321 139 322 q 142 320 141 321 q 145 317 144 318 q 150 313 150 313 l 150 313 q 158 298 157 307 q 160 283 159 291 q 163 256 162 271 q 165 232 164 245 q 168 195 165 214 q 174 163 169 178 q 180 151 176 156 q 188 144 183 146 l 189 144 l 189 144 l 191 143 q 191 143 191 143 q 191 143 191 143 q 191 143 191 143 l 192 143 q 193 143 193 143 q 194 143 193 143 q 195 143 194 143 q 197 144 196 144 q 212 149 204 145 q 225 157 218 152 q 239 166 233 161 q 282 207 264 186 q 312 250 304 237 q 315 256 314 254 q 315 256 315 256 q 318 260 317 258 q 319 264 319 264 l 320 264 q 328 271 323 269 q 338 271 333 273 q 345 263 343 268 q 344 252 347 258 q 344 252 344 252 q 344 252 344 252 q 344 252 344 252 q 342 248 344 252 q 339 243 340 245 q 335 237 337 240 q 318 210 331 229 q 302 190 311 201 m 90 186 l 90 186 q 125 228 113 212 q 133 238 130 234 q 132 254 132 246 q 128 277 130 267 q 125 288 127 283 q 123 290 124 289 q 120 294 123 290 q 119 296 119 295 q 118 297 119 296 q 117 298 118 298 q 116 299 117 298 q 114 301 115 300 q 98 304 109 304 q 74 294 87 302 q 47 273 60 286 q 21 242 33 259 q 0 205 9 225 l -1 204 l -1 203 l -1 203 l -1 203 l -2 201 q -3 199 -3 200 q -4 195 -4 197 l -6 191 l -7 186 q -12 166 -11 176 q -9 149 -12 156 q -1 140 -7 142 l 1 138 l 2 138 l 2 138 l 3 138 l 5 137 q 6 137 6 137 q 14 137 9 136 q 31 142 22 138 q 63 162 49 150 q 90 186 78 174 z "},"b":{"ha":363,"x_min":-32,"x_max":397,"o":"m 180 121 q 189 238 189 181 q 188 272 189 266 q 184 292 187 279 q 161 319 177 319 q 114 286 137 318 q 85 216 85 248 q 102 158 85 180 q 120 140 116 140 q 129 134 124 137 q 180 121 155 122 m 197 713 q 222 803 214 766 q 236 903 236 864 q 235 937 236 934 q 142 746 191 879 q 39 349 82 562 q 197 713 132 535 m 257 151 q 279 164 257 151 q 373 267 301 177 q 384 272 378 272 q 392 269 388 272 q 397 260 397 266 q 394 251 397 255 q 377 230 379 231 q 283 137 342 184 q 243 108 262 119 q 199 91 224 98 q 181 33 194 63 q 145 -33 168 3 q 42 -113 92 -113 q -20 -43 -3 -109 q -32 52 -32 0 q -14 229 -32 117 q -16 237 -16 233 q -14 248 -16 239 q 109 756 36 524 q 129 809 117 781 q 155 867 140 838 q 238 977 203 977 q 248 975 243 977 q 267 954 263 968 q 271 912 271 941 q 258 812 271 861 l 258 806 q 247 761 254 788 q 227 696 241 733 q 224 688 226 692 q 28 266 155 505 q 24 254 25 259 q -3 45 -3 115 q 21 -71 -3 -31 q 43 -86 31 -85 q 100 -49 68 -86 q 175 92 156 20 q 137 102 153 95 q 81 141 101 115 q 59 201 62 168 l 58 216 q 62 243 58 231 q 94 302 72 276 q 134 338 111 326 q 162 346 147 346 q 208 302 196 346 q 214 256 212 295 q 206 124 214 166 q 257 151 214 124 z "},"c":{"ha":242,"x_min":-28,"x_max":281,"o":"m 214 177 q 103 92 161 123 q 36 75 66 75 q -1 85 15 75 q -28 148 -28 102 q -1 252 -26 197 q 66 346 26 312 q 116 371 92 370 q 155 313 155 371 l 154 303 q 135 285 153 285 q 119 305 119 288 q 119 310 119 307 q 117 336 119 333 q 104 332 112 336 q 56 285 81 317 q 12 197 24 233 q 1 138 0 161 q 50 104 5 96 q 139 144 95 111 q 210 216 174 170 q 253 275 245 262 q 269 276 257 283 q 277 262 281 269 q 214 177 244 215 z "},"d":{"ha":340,"x_min":-24,"x_max":436,"o":"m 177 229 q 232 300 214 273 l 233 302 q 234 304 234 302 l 235 304 q 231 310 232 307 l 231 310 l 230 313 q 229 315 230 313 q 229 316 229 315 q 228 317 229 317 l 228 318 q 227 320 227 319 q 226 321 227 321 l 224 324 q 224 325 224 324 q 221 328 222 326 l 218 333 q 217 334 217 333 q 205 344 212 338 q 198 349 202 347 l 194 352 q 193 353 193 352 l 192 353 q 191 353 191 353 q 189 354 190 353 l 188 354 l 187 355 l 185 355 q 182 355 184 355 q 181 356 182 356 q 178 357 180 356 q 173 357 175 357 q 151 355 162 358 q 103 332 127 351 q 59 286 79 313 q 49 273 54 279 l 48 271 l 47 269 l 45 265 q 43 262 43 264 q 40 258 41 260 q 24 227 31 243 q 12 193 17 210 q 7 160 8 177 l 8 156 l 8 152 q 9 146 8 149 q 9 144 9 145 q 10 142 9 143 l 10 140 q 11 139 10 140 q 12 137 11 138 l 12 134 l 13 133 l 13 132 l 14 130 l 14 129 l 15 129 l 15 128 q 16 127 15 127 q 16 126 16 127 q 17 125 17 125 l 21 121 q 31 117 24 118 q 58 125 43 117 q 87 142 73 132 q 136 185 114 162 q 177 229 159 208 m 317 687 q 325 713 317 687 q 340 758 333 740 q 356 789 347 774 q 374 815 363 804 q 388 828 378 822 q 400 831 393 831 q 416 827 409 832 q 424 820 420 823 l 428 814 l 431 804 q 435 792 435 796 l 435 788 q 432 774 436 781 q 421 767 429 768 q 407 770 413 766 q 401 781 401 774 l 399 785 q 399 791 399 787 q 387 772 392 784 q 372 743 379 760 q 347 675 364 726 q 311 538 330 624 q 270 332 287 433 q 275 325 275 330 q 273 315 276 319 l 269 307 q 266 302 267 305 l 265 302 q 259 257 262 279 q 254 218 256 237 l 252 205 q 245 156 249 180 q 240 111 243 132 q 237 85 239 98 q 235 68 237 77 q 233 47 235 58 l 232 31 q 231 14 231 22 q 227 -32 228 -12 l 222 -85 l 222 -86 q 218 -95 222 -92 q 208 -98 214 -99 q 199 -94 202 -98 q 195 -84 195 -90 l 199 -30 q 203 17 200 -9 q 204 33 203 24 q 208 69 205 50 l 208 71 q 210 94 209 82 q 212 114 211 104 q 214 127 213 120 q 217 160 216 143 q 223 209 220 184 q 228 247 226 228 q 199 211 215 230 q 157 165 180 189 q 104 118 134 140 q 71 98 90 106 q 52 90 62 93 q 28 87 41 87 q 15 90 22 87 q 3 96 8 92 q -7 106 -3 101 q -9 110 -9 108 l -11 111 l -14 117 l -15 119 l -16 120 l -16 121 l -18 127 q -19 131 -19 129 q -20 132 -20 132 q -20 134 -20 134 q -21 138 -21 136 q -22 140 -21 139 l -23 149 l -23 155 l -24 160 q -18 201 -24 181 q -5 239 -14 221 q 12 274 2 257 l 15 279 q 17 282 16 281 l 19 286 l 22 290 q 33 306 27 298 q 82 358 54 336 q 143 389 111 380 q 175 391 159 393 q 182 391 179 391 q 189 389 186 390 l 190 389 q 196 388 193 389 q 197 387 197 387 l 200 387 l 201 387 q 202 386 201 386 q 203 385 203 385 l 205 385 l 206 385 q 208 383 208 384 l 212 382 q 217 378 214 380 q 227 372 222 375 q 242 357 235 364 l 243 356 q 281 545 259 449 q 317 687 301 634 z "},"e":{"ha":213,"x_min":-23,"x_max":239,"o":"m 37 256 q 117 285 93 256 q 123 304 123 295 q 120 313 123 309 q 119 315 120 314 q 118 316 118 315 q 98 324 110 324 q 23 257 58 324 l 37 256 m 38 109 q 17 112 28 109 q -23 180 -23 125 q -15 227 -23 203 q 50 334 3 299 q 100 351 73 351 q 140 333 121 351 q 151 305 150 316 q 146 279 151 291 q 90 241 137 255 q 12 227 53 227 q 3 170 3 202 q 14 142 3 153 q 38 134 24 134 q 141 181 83 134 q 170 208 161 197 q 182 222 179 218 q 186 226 185 226 l 208 256 q 214 266 209 259 q 226 273 219 273 q 239 260 239 273 q 236 251 239 256 q 230 241 233 246 q 214 219 217 223 q 202 205 210 216 q 193 193 194 195 q 180 180 191 191 q 38 109 104 111 z "},"f":{"ha":408,"x_min":-47,"x_max":435,"o":"m 274 1057 l 273 1058 q 274 1057 273 1057 m 39 319 l 71 389 q 259 890 212 692 q 278 1025 278 966 q 275 1053 278 1043 l 271 1048 q 174 847 225 986 q 39 319 83 597 m 19 -444 q -35 -369 -20 -444 q -47 -210 -47 -311 q -12 215 -47 -57 q 48 546 9 383 q 170 933 96 753 q 255 1078 222 1054 q 279 1086 264 1086 q 300 1067 294 1082 q 304 1044 302 1061 q 305 1029 304 1034 q 166 541 302 864 q 26 235 66 308 q -13 -217 -13 -62 q 7 -397 -13 -350 q 19 -410 14 -409 q 39 -393 28 -410 q 85 -294 65 -361 q 125 -23 125 -166 q 98 172 125 79 q 85 243 85 214 q 111 268 88 268 q 135 260 121 268 q 184 228 149 253 q 251 188 224 199 q 298 176 277 176 q 361 199 335 176 q 410 263 394 228 q 420 271 413 271 q 428 268 425 271 q 435 257 435 265 q 431 245 435 251 q 428 241 429 244 q 303 146 378 151 q 218 170 250 146 q 115 237 125 234 q 123 195 115 222 q 123 192 123 194 q 127 181 126 187 q 157 -33 157 90 q 116 -304 157 -172 q 39 -438 86 -406 q 19 -444 29 -444 z "},"g":{"ha":393,"x_min":-55,"x_max":638,"o":"m 20 127 q 81 152 42 126 q 162 221 115 174 q 240 312 209 268 q 225 326 233 315 q 197 352 210 345 q 194 354 196 353 q 191 355 192 355 q 185 357 190 356 q 182 359 183 358 q 168 361 174 360 q 24 255 97 366 q -5 175 0 214 q -3 153 -6 163 q -2 148 -3 149 q -1 144 -1 146 q 1 140 -1 142 q 7 133 1 136 q 20 127 11 128 m 9 -664 q 69 -635 36 -664 q 155 -515 118 -591 q 256 -186 226 -373 q 150 -292 202 -229 q 3 -524 59 -399 q -22 -610 -20 -580 q -22 -632 -22 -614 q -8 -660 -22 -649 q 7 -664 -2 -663 l 9 -664 m 9 -691 q -22 -682 -9 -690 q -52 -617 -55 -662 q 21 -429 -47 -545 q 189 -211 94 -304 q 260 -146 237 -163 l 260 -150 q 277 10 268 -104 l 281 100 q 280 283 285 205 q 280 290 279 286 q 279 307 280 294 q 277 319 277 319 q 225 252 267 299 q 126 155 172 191 q 18 102 60 100 q -11 114 1 104 q -27 142 -19 122 q -30 157 -31 149 q -31 170 -31 158 q -21 222 -29 201 q 8 281 -12 249 q 16 294 12 287 q 125 387 65 364 q 174 395 151 397 q 208 387 197 393 q 214 385 212 387 q 220 381 219 382 q 221 381 220 381 q 223 379 222 380 q 226 377 224 378 q 229 375 227 376 q 232 374 230 374 q 235 372 235 373 q 241 367 238 368 q 248 359 248 361 q 255 353 255 354 q 262 345 256 353 q 271 363 268 356 q 273 367 271 365 q 274 374 274 370 q 288 385 277 386 q 301 372 302 385 q 299 361 301 368 q 306 304 302 347 q 307 279 306 292 q 309 248 309 260 q 309 231 309 241 q 308 98 311 156 q 307 51 306 64 q 290 -136 300 -55 q 366 -90 328 -108 q 548 -47 463 -42 l 574 -51 q 637 -83 638 -66 q 622 -96 634 -96 q 611 -92 616 -94 q 546 -75 580 -78 q 285 -174 425 -66 q 180 -527 255 -376 q 124 -616 157 -574 q 9 -691 70 -687 z "},"h":{"ha":431,"x_min":6,"x_max":457,"o":"m 441 222 q 415 186 437 215 q 348 100 381 139 q 297 78 326 78 q 231 166 252 81 q 209 230 218 210 q 186 258 199 254 q 181 260 184 260 q 156 246 168 260 q 41 -115 92 182 q 28 -127 40 -127 q 9 -64 10 -127 q 7 2 7 -50 q 40 267 17 136 q 20 239 27 239 q 11 243 16 239 q 6 255 6 248 q 9 264 6 259 q 56 363 38 321 q 64 381 60 372 q 114 577 86 481 q 133 637 125 610 q 178 751 159 712 q 216 798 199 798 q 232 786 227 798 l 235 787 q 98 389 210 656 q 60 207 68 260 q 36 1 43 98 l 37 6 q 39 18 38 12 q 99 207 65 134 q 171 286 130 278 l 172 286 l 176 286 q 182 287 177 287 q 187 286 184 286 q 194 284 193 285 q 233 241 219 275 q 257 174 246 214 l 266 147 q 303 106 278 106 q 328 118 317 106 q 393 200 363 159 q 400 211 397 205 q 405 218 403 214 q 410 226 408 222 l 432 261 q 444 268 435 268 q 450 266 447 268 q 457 254 457 261 q 441 222 457 249 z "},"i":{"ha":197,"x_min":-23,"x_max":227,"o":"m 31 73 l 27 73 q -19 111 -10 73 q -23 153 -23 129 q -20 189 -22 172 q -7 253 -11 250 q 11 272 -5 272 q 28 254 28 270 q 26 244 28 249 q 25 242 26 243 l 16 210 q 5 135 5 171 q 27 100 5 100 q 115 156 60 101 q 201 263 165 205 q 213 269 205 269 q 227 256 227 269 q 224 248 227 252 q 134 136 186 187 q 31 73 75 77 m 22 292 q 11 297 16 292 q 6 307 6 301 q 12 328 6 315 q 31 345 19 345 q 38 342 34 345 q 47 329 47 337 q 42 312 47 323 q 33 297 37 302 q 22 292 28 293 z "},"j":{"ha":134,"x_min":-307,"x_max":401,"o":"m -242 -678 q -184 -646 -216 -677 q -101 -524 -136 -602 q -12 -192 -35 -380 q -114 -302 -64 -237 q -254 -538 -201 -412 q -276 -625 -275 -595 q -275 -647 -276 -629 q -260 -674 -275 -664 q -245 -677 -254 -677 l -242 -678 m -1 391 l -3 391 q -24 413 -14 392 q -28 428 -28 422 q -9 443 -27 444 q 7 427 1 443 q 13 406 14 411 q 9 397 13 401 q -1 391 5 392 m 22 296 l 24 289 l 23 289 l 25 274 q 28 244 27 256 q 28 227 27 237 q 32 93 32 151 q 32 46 31 60 q 21 -141 28 -60 q 96 -92 58 -112 q 271 -44 187 -43 l 277 -44 q 330 -53 307 -46 q 376 -73 352 -60 q 401 -95 401 -85 q 399 -102 401 -98 q 387 -108 394 -109 q 380 -106 383 -108 q 330 -81 356 -92 l 311 -76 q 275 -71 304 -75 q 17 -178 153 -68 q -77 -535 -6 -382 q -130 -626 -98 -583 q -187 -684 -157 -664 q -241 -705 -212 -702 l -246 -705 q -273 -696 -260 -705 q -305 -633 -307 -678 q -238 -443 -303 -561 q -78 -219 -170 -315 q -8 -152 -32 -170 l -8 -156 q 3 5 -2 -110 l 5 94 q -3 278 5 200 q -3 285 -3 281 l -3 286 q -4 296 -3 290 q -5 300 -4 298 q -6 313 -5 304 l -5 313 q -8 341 -8 337 q 6 353 -5 353 q 19 339 20 352 l 18 334 l 20 316 l 22 300 l 22 296 z "},"k":{"ha":335,"x_min":-3,"x_max":363,"o":"m 312 190 q 256 125 287 158 q 134 45 176 45 q 105 50 125 45 q 64 104 85 55 q 47 144 54 124 q 38 -12 38 52 q 40 -111 38 -61 q 27 -123 40 -122 q 13 -111 14 -123 q 9 -4 9 -39 q 18 171 9 103 q 26 246 27 238 q 12 229 18 229 q 0 235 7 229 q -3 243 -3 238 q -1 252 -3 247 q 81 443 66 382 q 88 467 84 454 q 96 491 92 479 q 211 786 193 786 q 225 774 222 786 l 226 774 q 102 410 201 648 q 75 303 81 339 q 150 375 91 320 q 212 430 186 409 q 229 443 221 436 q 273 463 254 460 q 289 459 283 463 q 298 447 296 455 q 300 437 300 439 q 297 428 300 433 q 287 423 294 423 q 278 427 283 423 q 273 435 273 431 q 245 420 260 431 q 117 303 214 398 q 64 252 94 281 l 60 231 q 67 183 60 212 q 106 90 79 125 q 137 75 118 75 q 229 138 163 75 q 288 202 259 170 l 294 210 l 299 218 l 339 269 q 350 275 343 275 q 358 271 354 275 q 363 261 363 268 q 360 253 363 257 q 350 239 355 245 q 312 190 332 215 z "},"l":{"ha":195,"x_min":5,"x_max":315,"o":"m 109 497 l 107 493 l 151 658 q 154 667 153 662 l 170 720 q 221 873 208 837 q 280 1004 237 918 q 297 1013 286 1013 q 304 1011 300 1013 q 313 997 313 1005 l 315 997 q 231 745 296 915 l 224 729 l 210 695 q 199 669 205 684 q 172 591 186 637 q 134 448 149 522 q 128 424 131 432 l 123 393 q 119 371 121 387 q 79 22 85 201 q 90 -232 72 -157 q 96 -262 96 -255 q 81 -274 96 -274 q 74 -272 78 -274 q 67 -255 70 -269 q 63 -237 64 -241 q 62 -229 62 -233 q 45 -21 44 -125 q 49 68 45 -1 q 65 228 56 162 q 81 341 74 295 q 41 269 69 315 q 34 258 37 262 l 33 258 l 26 247 q 18 243 22 243 q 9 247 14 243 q 5 256 5 251 q 11 273 5 264 l 12 275 q 15 281 14 277 q 81 414 52 340 q 109 497 96 454 z "},"m":{"ha":764,"x_min":-4,"x_max":798,"o":"m 753 177 q 733 144 745 162 q 578 -24 629 -24 q 562 -22 576 -24 q 541 5 547 -21 q 534 66 534 31 q 546 161 534 100 q 558 219 558 207 l 557 227 q 450 126 534 217 q 355 32 384 54 q 354 31 354 32 q 346 26 349 27 q 341 24 342 24 q 322 18 333 18 q 250 137 273 18 l 237 182 q 190 254 217 254 q 178 252 184 254 q 176 251 177 252 q 173 250 175 251 q 169 248 171 250 q 100 144 129 226 q 52 -121 64 44 q 48 -131 52 -127 q 39 -134 44 -134 q 30 -131 33 -134 q 18 -75 26 -128 q -4 178 3 -13 q -3 262 -4 224 q 2 275 -3 270 q 15 279 7 279 q 33 261 33 279 q 30 120 30 227 q 31 107 31 119 q 37 -4 31 75 q 155 271 69 220 q 191 281 170 281 q 222 269 208 281 q 263 190 248 245 q 277 136 275 149 q 321 45 300 45 q 327 47 325 45 q 330 48 329 48 q 387 99 342 50 q 436 151 422 134 q 535 245 508 229 q 559 254 549 254 q 567 253 563 254 q 574 250 572 252 q 576 248 576 248 q 578 246 577 247 q 579 244 578 245 q 581 241 580 242 q 585 220 585 234 q 570 142 585 202 q 562 62 562 102 q 576 4 562 4 q 589 7 580 4 q 648 69 605 14 q 732 193 690 123 l 740 206 l 739 207 q 772 267 756 235 q 784 274 777 274 q 791 272 787 274 q 798 260 798 267 q 787 235 798 256 q 753 177 779 218 z "},"n":{"ha":393,"x_min":-18,"x_max":423,"o":"m 24 119 q 56 201 37 166 l 56 201 q 101 258 77 243 q 124 269 113 269 q 136 270 124 270 q 140 269 138 269 q 142 269 141 269 q 184 229 167 264 q 217 135 196 205 q 245 102 229 102 q 300 139 264 102 q 343 186 328 169 q 357 204 352 198 q 359 206 357 205 q 362 210 360 209 q 370 221 364 214 q 389 248 385 241 q 393 252 390 250 q 399 260 397 257 q 409 266 402 266 q 416 264 412 266 q 423 252 423 259 q 401 217 423 248 q 389 200 394 208 q 378 188 385 195 l 378 187 q 363 168 374 180 q 305 105 344 146 q 246 71 273 71 q 184 150 207 78 q 136 242 159 239 q 132 243 135 243 q 75 176 102 235 q 47 104 60 144 q 20 -37 33 40 q 7 -49 18 -49 q -17 33 -12 -49 q -18 83 -18 58 q -17 125 -18 107 q -15 153 -16 127 q 30 359 3 359 q 47 340 47 357 l 47 337 q 14 125 21 221 q 11 64 11 93 l 18 95 q 22 111 20 103 l 21 111 l 24 119 z "},"o":{"ha":327,"x_min":-14,"x_max":351,"o":"m 128 151 q 155 217 145 176 q 159 252 159 239 q 148 295 159 279 q 132 304 140 304 q 131 305 131 304 l 122 306 q 83 291 97 304 q 62 240 62 270 q 83 183 62 210 l 84 182 q 128 151 102 159 m 315 212 q 224 138 273 165 q 155 120 189 120 l 142 121 q 140 119 141 121 q 137 116 139 117 q 129 108 135 114 q 96 87 111 92 q 93 85 96 86 q 90 84 91 85 q 66 80 78 81 q 23 94 41 80 q -14 186 -14 123 q -9 224 -14 195 q -9 225 -9 224 q -7 234 -9 230 q -5 243 -5 241 q -4 246 -5 245 q 0 259 -3 247 q 17 271 3 271 q 35 254 35 269 q 33 248 35 248 q 19 179 19 208 q 66 110 19 112 q 82 113 73 110 q 88 115 86 115 q 111 130 103 122 q 92 140 100 134 q 87 143 90 142 q 80 149 81 148 q 79 151 79 151 q 63 167 79 151 q 36 240 36 199 q 64 310 36 281 q 129 332 87 331 l 142 330 q 186 252 186 315 q 158 146 186 199 q 297 232 227 150 q 315 254 306 242 q 321 263 321 262 q 326 267 323 265 l 327 269 q 339 274 332 274 q 346 271 343 274 q 351 260 351 267 q 349 252 351 256 q 320 217 335 233 l 315 212 z "},"p":{"ha":353,"x_min":-54,"x_max":389,"o":"m 101 44 q 126 48 107 44 q 177 76 146 52 q 224 149 208 100 q 139 102 174 131 q 94 47 100 70 q 101 44 94 44 m -38 -425 q -52 -412 -52 -425 l -54 -340 q -52 -218 -53 -241 q -52 -188 -52 -203 q -51 -171 -52 -179 q -50 -156 -50 -163 q -48 -125 -50 -144 q -46 -88 -47 -106 q -35 35 -37 30 l -23 131 q -17 170 -19 151 q 5 289 -16 185 q 23 307 9 307 q 41 290 41 305 l 21 198 q 49 241 33 220 q 60 256 56 252 q 68 264 64 260 q 84 280 83 280 q 85 281 84 280 q 146 318 107 303 q 152 320 149 319 q 157 321 155 321 q 188 326 172 326 q 218 319 203 326 q 262 229 262 298 q 259 193 262 210 q 340 247 315 221 q 374 273 366 273 q 384 269 380 273 q 389 258 389 264 q 383 248 389 254 q 380 245 380 246 q 360 227 380 243 q 251 159 333 200 q 156 39 231 73 q 101 24 123 24 q 82 26 96 24 q 68 45 68 28 q 89 89 70 64 q 130 130 107 114 q 179 159 153 146 q 231 180 206 172 q 235 226 235 200 q 189 298 235 298 q 159 292 161 294 q 46 180 86 263 q -2 28 11 108 l -15 -49 q -28 -296 -28 -158 q -25 -411 -28 -331 q -38 -425 -25 -424 z "},"q":{"ha":636,"x_min":-19,"x_max":663,"o":"m 36 138 q 182 249 82 138 q 192 334 186 290 l 193 344 q 169 379 193 379 q 104 353 139 379 q 45 286 74 330 q 42 280 43 282 q 40 277 41 279 q 38 272 39 275 q 35 267 36 270 q 32 262 33 264 q 9 182 9 217 q 18 147 9 164 q 19 146 19 147 q 21 143 20 144 q 36 138 27 138 m 228 -382 q 200 -370 211 -382 q 163 -154 163 -332 l 162 -90 q 177 203 162 50 l 153 181 q 35 111 85 111 q 10 117 22 111 q 5 121 5 119 q -4 130 3 122 q -16 155 -7 135 q -19 185 -19 170 q 3 271 -19 220 q 16 295 5 273 q 21 303 19 301 q 85 378 48 349 q 172 414 127 414 q 232 368 229 410 q 194 -105 194 86 l 193 -202 q 216 -345 193 -308 q 227 -354 221 -354 q 273 -297 245 -354 q 336 13 336 -156 q 309 201 336 119 q 293 268 293 252 q 295 281 293 275 q 316 295 302 295 q 344 285 328 295 q 376 264 360 275 q 474 207 441 220 q 536 193 508 193 q 614 232 583 193 q 616 234 615 233 q 637 266 627 248 q 648 273 641 273 q 655 271 652 273 q 663 260 663 267 q 659 250 663 256 q 536 165 610 165 q 411 210 483 165 q 357 245 372 234 q 356 246 357 246 q 319 269 336 260 q 333 210 319 253 q 361 13 361 122 q 314 -270 357 -149 q 228 -382 273 -378 z "},"r":{"ha":393,"x_min":-48,"x_max":418,"o":"m 11 271 l 44 333 q 94 448 73 387 q 111 539 111 500 q 100 593 111 572 q 94 600 96 600 q 81 593 88 600 q 1 448 39 557 q -22 328 -22 382 q 11 271 -22 273 m 387 193 q 289 36 341 105 q 183 -51 224 -51 l 170 -51 q 130 53 130 -50 q 195 299 130 166 q 39 248 126 269 q 12 244 21 244 q -8 248 2 244 q -37 275 -28 255 q -48 328 -48 296 q -24 457 -48 382 q 31 575 -1 524 q 96 627 63 627 q 125 605 113 625 q 136 551 136 581 q 41 273 136 450 q 216 338 167 311 q 224 340 220 340 q 233 335 230 340 q 236 328 236 331 q 234 321 236 325 q 186 212 205 269 q 155 56 155 127 l 155 39 q 181 -25 157 -25 q 192 -24 183 -25 q 230 6 201 -24 q 333 152 279 58 q 363 208 349 180 q 389 259 377 234 q 391 262 390 261 q 393 266 392 264 q 405 273 397 273 q 412 272 408 273 q 417 267 416 270 q 418 260 418 263 q 417 254 418 258 q 391 200 404 227 l 390 200 q 387 193 389 197 z "},"s":{"ha":255,"x_min":-25,"x_max":288,"o":"m 81 -103 q 111 -98 96 -103 q 150 -60 131 -85 q 170 -1 170 -35 q 137 77 170 34 q 50 -77 50 -28 q 81 -103 50 -103 m 47 342 q 58 399 58 366 q 46 416 58 416 q 3 340 5 416 q 14 288 3 320 q 15 288 14 288 l 16 286 q 45 338 32 312 q 47 342 45 340 m 30 256 q 94 173 41 234 l 127 132 l 127 133 l 138 121 q 140 123 138 122 q 222 219 174 161 l 258 264 l 261 267 l 264 271 q 275 276 269 276 q 288 264 288 276 q 250 210 288 256 q 243 203 246 206 q 155 102 212 165 l 155 101 l 154 99 q 176 68 169 79 l 190 39 q 197 -2 197 19 q 171 -76 195 -43 q 127 -117 152 -101 l 128 -117 q 80 -129 101 -129 q 33 -107 47 -129 q 25 -79 25 -98 q 28 -49 25 -71 q 120 98 32 -16 q 43 189 77 149 q -24 345 -24 274 q -14 401 -25 370 q 27 444 -3 431 q 47 447 38 447 q 85 421 74 447 q 77 340 96 383 q 48 285 74 328 q 37 267 43 277 l 30 256 z "},"t":{"ha":202,"x_min":-98,"x_max":414,"o":"m 110 497 l 108 493 l 152 658 q 158 680 155 669 l 159 684 l 154 683 q 141 680 147 682 q 116 674 127 677 q 29 648 83 664 q -45 625 -18 633 l -73 616 q -86 616 -80 613 q -95 627 -93 620 q -95 641 -98 634 q -85 649 -92 647 l -84 649 l -56 658 q 20 680 -28 667 q 92 700 54 690 q 94 701 93 700 q 120 707 107 704 q 148 713 138 711 l 170 720 q 222 873 208 837 q 281 1004 238 918 q 298 1013 287 1013 q 305 1011 301 1013 q 314 997 314 1005 l 315 997 q 231 745 296 915 l 224 729 q 330 742 279 741 q 379 735 356 742 q 399 724 390 732 q 408 715 404 720 q 412 705 410 710 q 414 687 414 694 l 412 676 l 412 675 q 409 669 411 671 l 408 667 q 402 660 407 662 q 391 659 397 657 q 384 666 387 661 q 384 676 381 671 l 384 678 q 385 683 385 680 q 386 689 386 686 q 386 696 387 693 q 381 703 385 700 q 370 708 378 707 q 331 713 354 713 q 281 709 308 713 q 224 700 254 706 l 210 695 q 172 591 195 660 q 134 448 150 522 q 129 424 132 432 l 123 393 q 119 371 121 387 q 79 22 86 201 q 91 -232 73 -157 q 96 -262 96 -255 q 82 -274 96 -274 q 75 -272 79 -274 q 68 -255 71 -269 q 64 -237 65 -241 q 62 -229 63 -233 q 46 -21 45 -125 q 50 68 46 -1 q 66 228 57 162 q 81 340 75 295 q 42 269 70 315 q 35 258 38 262 l 34 258 l 27 247 q 18 243 23 243 q 10 247 14 243 q 5 256 5 251 q 12 273 5 264 l 12 275 q 16 281 14 277 q 82 414 53 340 q 110 497 97 454 z "},"u":{"ha":331,"x_min":-11,"x_max":362,"o":"m 47 104 l 47 104 q 47 104 47 104 q 47 104 47 104 q 47 104 47 104 q 47 104 47 104 q 47 104 47 104 q 47 104 47 104 q 47 104 47 104 m 31 227 l 31 227 q 27 205 28 216 q 22 160 23 182 q 24 138 22 149 q 29 119 26 127 q 39 107 33 111 q 45 104 41 105 l 45 104 l 46 104 l 47 104 l 47 104 q 47 104 47 104 q 47 104 47 104 q 47 104 47 104 q 49 104 48 104 q 64 112 55 106 q 79 127 72 119 q 106 163 94 144 q 153 245 132 203 l 158 255 l 162 264 l 162 264 q 170 271 165 269 q 180 271 175 273 q 188 257 189 266 l 188 256 q 186 239 186 248 q 185 221 185 230 q 189 187 184 203 q 195 174 191 180 q 203 165 198 168 q 214 162 208 162 q 229 164 221 161 q 258 180 243 169 q 283 203 271 190 q 336 276 308 230 l 336 276 q 344 283 339 281 q 355 281 349 284 q 361 273 359 278 q 359 262 362 267 l 359 262 q 303 184 330 214 q 274 158 290 170 q 237 138 258 145 q 214 135 226 134 q 189 142 201 135 q 179 150 184 145 q 172 159 175 154 q 163 180 165 170 q 159 197 161 189 q 131 148 146 172 q 102 107 118 127 q 83 88 94 98 q 71 80 78 84 q 56 74 64 76 q 46 73 52 73 q 43 73 45 73 l 41 73 l 41 73 l 41 73 l 39 73 l 39 73 l 39 73 l 37 74 l 37 74 l 36 74 l 33 75 l 31 76 l 28 77 l 24 79 q 22 80 23 79 q 21 81 21 81 q 0 106 6 92 q -8 133 -6 119 q -11 159 -10 146 q -7 210 -11 185 q -3 235 -5 222 q 0 247 -1 241 l 1 254 l 3 256 l 3 260 q 12 270 5 267 q 25 271 18 273 q 36 263 33 269 q 37 250 39 257 q 37 250 37 250 q 37 250 37 250 l 37 250 l 36 246 l 35 244 l 34 239 q 31 227 33 233 z "},"v":{"ha":335,"x_min":-3,"x_max":356,"o":"m 220 292 q 216 311 218 302 q 213 321 213 321 q 212 323 212 322 q 195 352 199 348 l 197 345 q 220 292 201 313 m 32 173 q 54 28 32 72 l 57 22 q 58 22 58 22 q 59 20 59 21 q 61 19 60 20 q 64 18 62 18 l 71 20 q 87 28 78 22 q 146 86 117 49 q 194 164 175 123 q 220 253 213 205 q 183 299 197 271 q 168 351 168 328 l 169 365 q 170 370 169 369 q 172 373 171 372 q 173 376 172 375 q 180 385 173 377 q 190 387 187 387 q 203 384 197 387 q 222 363 216 374 q 235 342 228 354 q 236 338 235 339 q 236 337 236 338 q 237 335 237 336 q 248 295 245 319 q 250 265 250 283 q 316 254 275 252 q 331 255 323 254 q 343 256 338 256 q 352 253 347 256 q 356 243 356 249 q 340 229 356 229 q 320 227 333 227 q 247 236 273 224 q 237 192 244 216 q 214 133 230 168 q 169 62 198 98 q 104 1 140 26 q 65 -14 82 -14 q 38 -5 52 -14 l 31 2 l 30 5 q 5 77 13 28 q -3 199 -2 118 q -3 233 -3 227 l -3 234 q -2 254 -3 250 q 3 267 -2 262 q 16 272 8 272 q 33 254 32 272 l 33 224 l 33 219 l 32 203 l 32 173 z "},"w":{"ha":436,"x_min":-45,"x_max":456,"o":"m 392 227 q 375 227 392 227 q 338 230 358 227 q 317 234 319 233 l 314 234 q 321 222 318 229 q 334 195 328 209 q 342 167 338 181 q 350 127 347 149 q 351 79 353 105 q 342 22 349 50 q 334 -6 338 7 q 323 -33 329 -20 q 296 -85 312 -60 q 254 -130 279 -110 q 225 -145 241 -139 l 221 -146 l 217 -147 q 210 -148 214 -148 q 208 -149 209 -149 l 195 -149 l 193 -148 l 190 -148 q 158 -134 173 -145 q 135 -110 144 -124 q 121 -82 126 -96 q 112 -53 115 -68 q 104 5 106 -24 q 103 49 103 26 q 98 37 100 43 q 80 7 90 22 q 56 -22 70 -9 q 22 -44 43 -37 l 18 -45 l 16 -45 q 12 -46 14 -46 q 10 -47 11 -46 l -1 -47 l -5 -46 q -8 -45 -6 -45 q -14 -43 -11 -45 q -15 -43 -14 -43 q -26 -35 -21 -39 q -37 -14 -35 -24 q -42 5 -41 -4 q -43 42 -45 24 q -36 113 -42 78 q -22 180 -31 146 q -14 214 -18 197 l -5 248 q 4 258 -2 254 q 18 259 10 261 q 28 251 24 257 q 29 237 31 245 l 20 205 q 11 172 15 189 q -3 106 3 140 q -12 41 -9 74 q -11 10 -12 25 q -8 -4 -10 3 q -3 -13 -5 -10 q -1 -15 -2 -14 l -1 -15 q 0 -16 0 -15 q 3 -16 1 -16 l 8 -16 q 9 -16 8 -16 l 11 -16 l 13 -15 q 36 -1 25 -12 q 56 23 47 9 q 72 51 64 36 q 98 112 87 80 q 109 144 104 127 l 110 144 l 110 147 q 114 176 112 161 l 116 175 q 114 176 115 176 q 122 188 116 184 q 136 189 128 191 q 146 182 142 188 q 149 170 150 176 l 144 142 l 142 115 q 138 61 138 88 q 138 7 136 34 q 144 -46 139 -20 q 151 -71 147 -58 q 162 -92 155 -82 q 176 -109 168 -102 q 195 -116 185 -114 l 197 -116 l 197 -117 l 208 -117 q 210 -116 209 -116 l 216 -115 q 235 -104 226 -111 q 270 -67 255 -90 q 296 -22 285 -46 q 305 3 301 -9 q 313 29 309 16 q 321 81 319 55 q 321 134 324 108 q 320 140 321 137 q 317 153 319 146 q 307 185 311 173 q 296 209 302 197 q 283 231 290 220 q 267 248 275 240 l 267 248 l 260 251 q 204 281 220 267 q 189 302 188 296 q 194 312 190 308 q 208 315 200 317 q 261 288 236 305 q 283 272 273 281 q 288 269 286 271 q 435 258 372 248 l 439 259 l 440 260 q 450 257 446 260 q 456 249 454 254 q 454 239 456 243 q 446 233 451 234 q 392 227 425 228 z "},"x":{"ha":462,"x_min":-74,"x_max":469,"o":"m -62 100 q -48 122 -56 111 q 7 197 -23 159 q 2 222 4 210 q -5 287 -3 257 q -8 385 -9 349 q -7 412 -8 402 l -7 422 q -2 434 -7 429 q 11 439 3 439 q 23 433 18 438 q 28 420 28 428 l 28 420 l 27 411 q 26 385 27 401 q 29 290 26 349 q 35 231 31 262 q 79 280 57 256 q 144 342 114 315 q 171 365 159 355 q 195 382 184 375 q 213 391 205 388 l 216 393 l 216 393 q 217 393 217 393 q 218 393 218 393 l 220 393 q 222 394 221 394 l 224 394 q 237 390 231 395 q 243 378 242 386 q 239 366 243 371 q 227 359 235 360 l 225 359 q 213 352 222 357 q 192 338 204 347 q 165 316 180 328 q 103 257 137 292 q 42 190 72 226 q 50 159 45 174 q 60 125 54 142 q 76 92 67 108 q 98 64 85 77 q 125 45 110 52 q 157 40 140 39 l 162 40 q 166 41 164 40 l 175 41 l 179 43 q 192 46 186 44 q 256 79 227 58 l 262 83 q 271 90 267 86 q 285 100 278 95 q 290 104 288 102 q 311 122 301 113 q 357 165 336 144 l 370 178 q 376 186 373 182 q 388 198 382 192 q 394 204 391 201 q 408 220 401 213 q 409 221 408 220 q 415 229 412 225 q 421 235 418 232 l 444 263 l 445 263 q 454 268 448 268 q 464 265 459 269 q 469 256 468 261 q 465 246 469 250 l 442 218 q 435 210 439 214 q 429 203 433 207 l 429 202 q 414 186 422 195 l 409 179 l 397 167 q 391 159 394 163 l 377 146 q 330 100 356 123 q 308 81 319 90 q 303 77 305 79 l 288 66 q 278 58 283 62 l 273 54 q 201 17 241 32 q 184 12 193 14 q 180 12 182 12 l 170 10 q 165 9 168 9 l 164 9 l 159 9 q 113 16 136 8 q 75 41 92 25 q 49 75 60 57 q 31 113 38 94 q 18 150 23 132 l 16 158 q -24 105 -5 132 q -45 75 -35 90 q -64 75 -54 67 q -62 100 -74 85 z "},"y":{"ha":470,"x_min":-63,"x_max":618,"o":"m 33 -737 q 93 -709 59 -737 q 182 -591 142 -667 q 288 -264 254 -450 q 180 -368 233 -306 q 28 -597 87 -473 q 2 -683 4 -652 q 1 -704 1 -687 q 16 -732 1 -722 q 30 -737 21 -736 l 33 -737 m 317 283 q 237 153 288 227 q 140 30 187 78 q 75 -21 104 -7 q 22 -35 47 -37 q 7 -33 13 -34 q 7 -32 7 -33 q -4 -28 6 -32 q -13 -22 -13 -22 q -14 -21 -14 -22 q -16 -21 -15 -21 q -20 -16 -17 -20 q -26 -10 -23 -14 q -57 105 -63 33 q -20 241 -52 161 q 3 289 -10 264 q 20 298 8 299 q 26 296 24 298 q 36 279 37 290 q 34 273 36 276 q -6 180 10 227 q -24 98 -21 138 q -2 12 -29 43 q 2 6 1 8 q 5 4 4 5 q 6 4 5 4 q 8 2 7 3 q 10 1 9 1 q 11 1 10 1 q 13 0 12 1 q 16 -2 14 -1 q 24 -3 17 -3 q 118 51 60 -6 q 214 169 164 96 q 294 300 260 237 q 305 323 300 311 l 309 329 q 311 330 309 330 q 313 332 312 331 q 317 334 315 333 q 323 334 319 334 q 335 326 331 334 q 345 256 339 318 l 347 226 q 347 216 347 221 q 348 206 347 210 l 348 192 q 349 170 349 181 q 349 152 349 162 q 345 19 349 77 q 343 -28 342 -14 l 336 -111 q 323 -215 329 -174 q 400 -170 362 -187 q 583 -131 497 -123 l 590 -132 l 605 -134 q 616 -149 618 -136 q 601 -161 614 -162 l 580 -158 q 511 -161 545 -155 q 317 -252 422 -174 q 205 -603 283 -454 q 148 -691 182 -650 q 88 -746 119 -728 q 33 -764 62 -763 l 28 -764 q 1 -754 14 -763 q -28 -690 -32 -734 q 49 -503 -22 -617 q 220 -288 123 -378 q 294 -224 269 -240 l 293 -228 q 302 -171 300 -188 q 313 -68 306 -139 l 319 21 q 322 129 321 71 l 321 152 l 321 169 q 321 205 322 186 q 320 212 320 208 q 319 227 321 216 l 317 283 z "},"z":{"ha":298,"x_min":-129,"x_max":539,"o":"m 220 -114 l 219 -114 q 205 -117 212 -116 q 162 -130 201 -118 q -55 -317 21 -180 q -78 -366 -68 -341 q -102 -531 -102 -444 q -84 -662 -102 -629 q -52 -695 -67 -696 q -8 -678 -32 -695 q 132 -458 66 -621 q 219 -131 209 -271 q 220 -114 220 -128 m 254 -85 q 292 -84 267 -84 q 454 -121 382 -84 q 538 -199 509 -150 q 539 -205 539 -202 q 526 -220 539 -220 q 514 -212 517 -220 q 441 -145 488 -168 q 290 -111 378 -111 q 260 -112 270 -111 l 257 -112 l 254 -111 q 253 -125 254 -118 q 252 -134 252 -128 l 248 -171 q 159 -469 227 -309 q 49 -661 108 -591 q -50 -722 -1 -720 l -54 -722 q -106 -673 -85 -720 q -129 -531 -129 -614 q -117 -414 -129 -471 q 15 -189 -86 -278 q 186 -96 92 -119 q 200 -92 197 -94 q 221 -87 203 -92 l 221 -79 q 214 -29 220 -52 l 213 -25 l 212 -25 l 202 -1 q 152 25 185 25 q 77 4 118 25 q 47 -12 50 -9 q 29 -21 31 -21 q 7 -31 13 -31 q -3 -26 1 -31 q -6 -17 -6 -21 q -3 -9 -6 -12 l 31 34 q 174 265 98 123 q 227 422 227 370 q 212 456 227 453 q 208 456 211 456 q 203 457 207 457 q 137 427 175 455 q 34 309 81 389 q 12 262 17 276 q -5 251 6 251 q -12 252 -8 251 q -12 281 -20 260 q 42 376 12 337 q 117 451 71 418 q 202 486 163 485 q 220 484 216 486 q 222 484 221 484 q 256 424 256 472 q 157 180 256 351 q 66 38 117 111 q 151 60 115 60 q 231 18 207 60 q 237 8 237 9 q 237 7 237 7 q 238 5 237 6 l 250 -36 q 254 -85 254 -59 z "},"{":{"ha":179,"x_min":17,"x_max":263,"o":"m 248 678 l 248 678 q 259 671 255 677 q 262 658 263 665 q 255 646 260 650 q 241 644 249 642 q 241 644 241 644 q 241 644 241 644 q 241 644 241 644 l 235 645 l 233 645 l 233 646 l 231 646 l 229 646 q 225 646 227 646 q 222 646 224 646 q 219 646 220 646 q 216 646 218 646 q 196 642 205 646 q 187 636 191 640 q 180 629 183 633 q 169 608 174 620 q 162 582 165 595 q 157 555 159 569 q 150 511 153 532 q 148 498 149 505 q 138 441 144 469 q 127 383 134 412 q 119 355 123 369 q 108 326 114 340 q 90 298 102 312 q 95 292 93 295 q 100 271 100 281 q 101 254 102 262 q 96 222 100 237 l 94 214 l 92 207 l 88 193 q 85 185 87 189 q 73 136 79 161 q 60 80 66 108 q 52 23 54 52 q 53 -32 49 -5 q 59 -56 54 -45 q 71 -75 64 -68 q 80 -81 75 -79 q 91 -85 85 -84 q 116 -87 102 -88 l 116 -87 q 125 -91 121 -87 q 130 -100 130 -94 q 127 -110 130 -106 q 118 -115 123 -114 q 85 -113 102 -117 q 67 -107 76 -111 q 52 -97 59 -103 q 31 -68 38 -85 q 22 -37 24 -53 q 20 26 17 -5 q 27 86 22 56 q 39 144 32 115 q 54 202 46 174 l 58 216 l 60 223 l 62 230 q 66 256 65 243 q 66 267 66 262 q 64 275 65 273 q 63 277 63 277 q 62 278 62 277 q 62 279 62 278 q 60 280 62 279 q 59 281 60 281 q 59 281 59 281 q 58 281 58 281 q 58 281 58 281 q 58 281 58 281 q 58 282 58 281 q 58 282 58 282 q 58 282 58 282 q 54 281 56 281 q 44 286 48 282 q 41 296 41 290 q 44 304 41 300 q 51 309 47 307 l 52 309 l 52 309 l 53 309 l 55 310 q 58 310 56 310 q 62 311 60 311 q 63 311 63 311 q 64 312 64 311 l 65 313 l 66 313 l 68 315 l 69 317 q 82 338 77 325 q 91 363 87 350 q 98 390 95 376 q 117 503 110 445 q 119 515 118 509 q 125 559 122 537 q 125 560 125 560 q 130 589 127 574 q 138 618 132 604 q 153 649 142 634 q 165 662 158 656 q 180 673 172 669 q 216 681 198 681 q 218 682 216 682 q 224 682 221 682 q 227 681 225 681 q 232 681 229 681 l 237 680 l 239 680 l 240 680 l 241 680 l 248 678 l 248 678 z "},"|":{"ha":180,"x_min":69,"x_max":110,"o":"m 73 649 q 90 677 69 675 q 108 649 110 679 l 104 -84 q 90 -104 104 -104 q 76 -84 76 -104 l 73 649 z "},"}":{"ha":212,"x_min":9,"x_max":255,"o":"m 14 -84 q 18 -81 15 -82 q 31 -77 23 -77 l 31 -78 l 38 -79 l 41 -79 l 43 -80 l 47 -80 q 50 -81 49 -80 l 56 -81 q 77 -76 67 -80 q 85 -71 81 -74 q 92 -63 89 -67 q 103 -41 99 -54 q 111 -16 107 -30 q 115 12 113 -3 l 122 55 q 124 68 123 62 l 134 125 q 146 183 138 154 q 154 212 149 197 q 165 240 158 226 q 182 268 171 254 q 178 275 179 271 q 172 294 172 285 q 172 313 171 304 q 176 345 173 329 l 184 373 q 186 381 185 377 q 199 430 193 406 q 212 486 207 458 q 220 543 218 515 q 220 597 223 571 q 213 623 218 611 q 201 642 209 634 q 192 648 197 645 q 181 652 187 650 q 157 654 170 654 q 146 657 151 653 q 142 666 142 661 q 145 675 142 671 q 154 680 149 680 q 188 680 170 682 q 205 673 197 677 q 220 663 213 669 q 241 634 234 650 q 250 603 248 618 q 253 541 255 571 q 245 480 250 510 q 233 422 240 450 q 218 364 226 393 l 214 350 l 212 343 l 211 336 q 206 310 208 323 q 207 298 206 304 q 209 290 208 293 q 210 289 209 290 q 210 288 210 288 q 210 288 210 288 q 212 286 211 286 l 213 285 l 214 285 q 214 284 214 285 l 218 284 q 228 280 224 284 q 231 271 231 276 q 228 262 231 266 q 221 258 225 258 l 219 257 l 218 256 q 214 256 216 256 q 210 255 212 255 l 209 255 q 208 254 209 254 l 208 254 l 206 253 l 203 250 q 190 229 195 241 q 181 203 185 216 q 174 176 177 190 q 155 64 162 121 q 153 51 154 58 q 147 7 151 28 l 147 5 q 142 -22 145 -8 q 134 -53 140 -37 q 119 -83 130 -68 q 107 -96 114 -90 q 92 -106 100 -102 q 57 -115 75 -115 l 45 -115 q 40 -115 43 -115 l 35 -114 l 31 -114 l 24 -113 q 13 -105 17 -111 q 10 -92 9 -100 q 14 -84 11 -87 z "},"~":{"ha":305,"x_min":87,"x_max":257,"o":"m 256 273 l 256 273 q 256 271 256 273 q 256 271 256 271 q 256 263 257 268 q 254 250 256 258 q 250 242 253 246 q 242 234 247 237 q 236 231 239 232 q 235 230 235 231 q 235 230 235 230 q 235 230 235 230 l 235 230 l 234 230 l 233 229 l 233 229 l 233 229 l 233 229 l 231 229 q 218 228 224 227 q 198 234 207 229 q 175 247 186 240 q 166 252 170 250 q 152 259 159 256 q 140 262 145 262 l 139 263 q 139 263 139 263 q 139 263 139 263 q 139 263 139 263 q 139 263 139 263 q 139 263 139 263 q 138 263 138 263 l 137 262 q 137 262 137 262 q 137 262 137 262 l 136 262 l 136 262 l 136 262 q 135 262 136 262 q 134 262 134 262 q 132 262 133 262 q 128 258 130 260 q 125 252 126 255 q 123 245 123 248 q 123 245 123 245 q 123 241 123 243 q 123 240 123 240 l 123 239 q 117 227 122 232 q 104 222 112 222 q 92 228 97 223 q 87 241 87 233 q 87 241 87 241 q 87 241 87 241 q 87 242 87 241 q 87 242 87 242 q 87 243 87 243 q 87 244 87 244 q 89 252 88 248 q 92 264 90 257 q 102 279 95 271 q 120 293 109 288 q 126 294 123 294 q 130 295 128 295 q 132 296 131 295 l 134 296 l 134 296 l 134 296 l 135 296 l 135 296 l 136 296 l 138 296 q 141 296 139 296 q 144 295 143 296 q 165 288 156 293 q 182 279 174 283 q 191 273 187 275 q 211 260 202 265 q 222 257 218 257 q 224 256 223 256 q 224 256 224 256 l 224 256 l 225 257 l 226 257 q 226 257 226 257 q 226 257 226 257 q 226 257 226 257 q 226 257 226 257 q 226 257 226 257 q 226 257 226 257 q 226 257 226 257 q 226 257 226 257 q 226 257 226 257 q 227 258 227 258 q 228 260 227 258 q 229 265 229 262 q 229 270 229 268 q 229 270 229 270 q 229 272 229 272 l 229 272 q 233 282 229 278 q 243 286 237 286 q 252 283 248 286 q 256 273 256 279 z "},"¡":{"ha":152,"x_min":-20,"x_max":135,"o":"m -3 -174 l -7 -174 q -20 -157 -20 -169 q -12 -125 -19 -151 q 66 193 35 35 q 73 228 71 220 q 76 245 74 237 q 84 296 83 295 q 93 359 85 297 q 102 465 98 414 q 116 479 103 479 q 129 465 129 477 q 116 317 123 359 q 113 291 115 295 l 109 262 q 15 -161 88 110 q -3 -174 10 -174 m 119 498 q 105 503 111 498 q 100 517 100 508 l 102 536 q 103 552 102 536 q 118 564 104 564 q 130 552 129 563 q 135 516 134 529 q 119 498 135 501 z "},"¢":{"ha":323,"x_min":33,"x_max":290,"o":"m 282 437 l 282 437 q 288 410 287 422 q 290 388 290 398 q 288 357 290 368 q 287 347 287 347 q 280 335 286 340 q 267 332 275 331 q 255 338 260 333 q 252 351 251 344 l 252 351 l 252 352 q 253 361 252 352 q 254 388 254 370 q 254 406 255 396 q 250 427 253 416 q 240 445 246 437 q 224 454 234 452 q 211 454 218 456 q 204 432 208 444 q 189 375 197 405 q 173 314 180 345 q 158 251 165 283 q 145 188 151 219 q 134 125 139 156 q 130 96 132 111 q 130 95 130 96 q 126 68 127 81 q 121 26 123 46 q 121 26 121 26 q 123 26 123 26 q 150 39 138 31 q 190 75 174 56 q 215 108 206 93 q 228 132 224 123 q 230 137 229 135 q 231 138 231 138 q 231 140 231 140 l 232 141 q 239 148 234 146 q 250 148 244 150 q 257 141 255 146 q 256 130 258 136 q 256 127 256 130 q 255 127 256 127 q 252 120 254 124 q 238 94 248 111 q 211 56 229 77 q 165 15 193 35 q 132 -1 151 5 q 119 -4 125 -3 q 119 -7 119 -5 q 118 -7 119 -7 q 118 -16 118 -12 q 117 -28 117 -22 q 116 -47 117 -39 q 115 -62 116 -56 q 115 -79 115 -72 q 115 -85 115 -82 q 115 -92 115 -92 l 115 -93 q 111 -102 115 -98 q 101 -106 107 -106 q 92 -102 96 -106 q 88 -92 88 -98 q 88 -85 88 -92 q 88 -79 88 -82 q 88 -62 88 -72 q 88 -56 88 -59 q 88 -46 88 -51 q 89 -27 89 -37 q 90 -5 90 -17 q 90 -5 90 -5 q 90 -3 90 -4 q 90 -3 90 -3 q 90 -3 90 -3 q 68 9 77 1 q 52 26 58 16 q 37 68 41 47 q 34 111 34 89 q 35 153 33 132 q 41 195 37 174 l 42 206 l 44 217 q 48 237 46 227 q 71 321 56 280 q 105 397 84 361 q 155 461 125 434 q 183 480 168 472 q 186 492 185 486 q 210 568 201 540 q 217 589 215 582 q 220 597 220 597 q 229 607 222 604 q 242 608 235 610 q 253 599 250 606 q 253 586 256 593 q 253 586 253 586 l 253 585 q 250 578 253 585 q 243 557 248 571 q 221 489 235 532 q 231 488 227 489 q 252 479 242 486 q 267 467 260 474 q 282 437 278 452 m 157 383 l 157 383 q 169 428 163 406 q 133 381 149 408 q 100 310 114 348 q 79 231 87 272 q 75 211 77 221 l 73 201 l 71 191 q 66 151 68 170 q 64 111 64 130 q 66 73 64 91 q 77 42 70 55 q 93 27 84 31 q 97 71 94 48 q 100 99 99 85 q 101 100 101 100 q 105 130 102 115 q 115 193 110 161 q 127 258 121 225 q 142 321 134 290 q 157 383 149 353 z "},"£":{"ha":538,"x_min":-2,"x_max":543,"o":"m 532 40 l 532 40 q 541 33 538 38 q 542 23 543 28 q 541 23 542 23 q 534 5 541 21 q 507 -41 528 -13 q 479 -68 496 -55 q 437 -89 461 -81 q 386 -96 414 -97 q 330 -87 359 -96 q 325 -86 328 -87 q 323 -85 324 -85 q 316 -83 320 -85 q 309 -81 313 -82 q 302 -78 306 -79 q 293 -74 298 -77 q 288 -73 290 -73 q 286 -71 287 -72 q 281 -69 283 -70 q 278 -68 279 -68 q 275 -66 276 -66 q 267 -62 271 -64 q 260 -59 264 -60 q 248 -52 254 -56 q 220 -41 234 -46 q 159 -26 191 -30 q 132 -24 146 -24 q 114 -55 124 -40 q 85 -85 103 -71 q 65 -96 77 -92 l 64 -96 q 63 -96 63 -96 q 63 -96 63 -96 q 63 -96 63 -96 q 62 -96 63 -96 l 62 -96 l 60 -97 l 58 -97 l 55 -98 q 45 -99 50 -98 q 34 -100 39 -100 q 22 -98 28 -100 q 8 -92 15 -97 q 5 -88 6 -90 q 2 -84 3 -86 q -1 -75 -1 -79 q 0 -59 -2 -66 q 6 -48 3 -53 q 21 -33 13 -39 q 55 -12 37 -19 q 73 -5 64 -8 q 91 -1 81 -3 q 113 2 102 1 q 123 24 118 13 q 147 93 136 58 q 167 162 158 127 q 182 231 176 197 l 90 230 q 78 235 83 230 q 73 248 73 240 q 77 260 73 255 q 90 265 82 265 q 90 265 90 265 q 90 265 90 265 l 189 264 q 197 300 193 282 q 216 431 209 368 q 220 463 218 447 q 221 470 220 466 q 221 475 221 472 q 222 478 222 476 q 224 493 222 486 q 239 552 229 524 q 267 603 250 580 q 288 623 276 614 q 316 636 300 633 q 333 636 324 637 q 349 631 341 635 q 360 621 355 627 q 368 611 365 616 q 378 591 375 600 q 383 572 381 581 q 387 541 387 554 q 388 518 388 528 q 387 505 387 509 q 387 500 387 500 q 381 488 387 492 q 369 483 376 483 q 356 489 361 484 q 352 502 352 494 l 352 502 q 352 506 352 502 q 353 519 353 511 q 353 519 353 519 q 349 565 353 536 q 339 593 347 580 q 336 597 338 595 q 331 601 333 600 q 321 603 327 604 q 308 596 315 602 q 294 582 300 591 q 271 540 280 564 q 256 488 261 516 q 254 473 255 481 q 254 470 254 472 q 253 467 253 468 q 252 462 253 464 q 252 458 252 460 q 248 427 250 444 q 227 295 240 363 q 221 263 224 279 l 347 261 q 356 257 353 261 q 360 248 360 253 q 356 238 360 241 q 347 234 353 234 l 214 232 q 196 155 206 194 q 176 83 187 119 q 150 13 164 48 q 145 3 148 7 q 163 1 154 2 q 229 -16 198 -4 q 259 -28 245 -21 q 273 -35 267 -31 q 277 -37 275 -36 q 286 -41 282 -39 q 293 -45 290 -43 q 297 -47 295 -46 q 300 -48 298 -47 q 304 -50 302 -49 q 312 -53 308 -52 q 324 -58 318 -56 q 325 -58 325 -58 q 332 -60 328 -59 q 334 -61 333 -60 q 338 -62 336 -61 q 387 -70 363 -69 q 429 -64 410 -70 q 463 -47 448 -57 q 486 -24 477 -36 q 510 16 504 0 q 515 30 515 29 q 515 31 515 31 q 522 39 517 36 q 532 40 526 41 m 90 -38 l 90 -38 q 97 -28 94 -33 q 96 -28 96 -28 q 96 -28 96 -28 q 81 -32 88 -30 q 66 -37 73 -35 q 39 -54 51 -44 q 29 -64 33 -58 q 27 -68 28 -66 q 26 -70 26 -69 q 26 -70 26 -70 q 26 -70 26 -70 q 27 -71 27 -70 q 28 -71 28 -71 q 28 -71 28 -71 q 41 -71 34 -72 q 50 -70 45 -71 l 51 -69 l 54 -68 l 56 -68 l 56 -68 q 56 -68 56 -68 q 56 -68 56 -68 q 56 -68 56 -68 q 56 -68 56 -68 q 56 -68 56 -68 l 57 -68 q 68 -62 63 -66 q 90 -38 81 -52 z "},"¤":{"ha":427,"x_min":-1,"x_max":418,"o":"m 399 338 l 399 338 q 409 338 404 340 q 416 331 414 336 q 417 321 418 326 q 410 313 415 316 l 340 276 q 341 273 341 274 q 342 270 342 271 q 342 268 342 269 q 342 263 342 265 q 338 212 345 235 q 337 211 337 212 q 336 208 336 209 q 336 207 336 207 q 335 205 336 205 q 334 203 335 204 q 334 202 334 203 q 330 193 332 197 q 328 189 330 191 q 328 189 328 189 q 326 185 328 186 q 323 178 324 181 q 322 178 323 178 q 317 170 320 174 q 315 165 316 168 q 311 160 313 162 q 309 157 310 159 q 304 151 304 151 l 303 150 q 298 144 303 150 q 298 144 298 144 q 297 143 297 144 q 296 142 296 142 q 295 141 295 142 q 293 139 294 140 q 290 136 292 138 q 289 136 290 136 q 288 135 289 136 l 326 85 q 329 72 330 79 q 322 60 328 65 q 309 57 316 56 q 298 64 302 58 q 296 66 297 65 l 264 119 q 243 111 255 115 q 194 103 222 103 q 191 103 193 103 q 180 104 185 103 q 178 104 178 104 q 173 105 175 104 q 167 106 170 105 q 165 106 166 106 q 136 117 151 110 q 109 140 121 125 l 106 144 q 105 144 106 144 q 103 147 104 146 l 16 125 q 6 126 11 123 q -1 135 1 130 q 1 145 -1 140 q 9 151 3 149 l 92 179 q 91 181 91 180 q 91 183 91 182 l 90 188 q 90 191 90 189 q 90 193 90 192 q 90 195 90 194 q 90 202 90 199 q 91 205 90 203 q 92 211 91 208 l 92 213 l 92 216 l 93 220 l 94 224 q 95 229 94 227 q 96 233 96 231 q 101 245 98 239 q 101 246 101 245 q 104 254 103 250 q 107 258 106 256 q 109 261 108 260 l 113 269 l 117 277 l 121 283 l 121 284 q 121 284 121 284 q 121 284 121 284 q 121 284 121 284 q 121 284 121 284 q 122 285 121 285 l 122 286 l 123 286 l 124 288 l 126 291 l 131 298 q 133 300 132 299 q 134 301 133 301 l 136 304 l 142 312 q 146 316 144 314 q 148 318 147 317 q 150 321 149 319 q 155 325 152 323 l 161 330 l 134 395 q 134 405 132 400 q 141 412 136 410 q 151 413 146 414 q 159 406 156 411 l 189 349 l 189 350 l 191 351 q 197 353 195 352 q 200 355 199 354 q 206 357 203 356 q 209 357 208 357 l 214 359 q 216 359 215 359 q 218 360 217 360 q 221 361 220 360 q 227 361 224 361 q 264 359 246 364 q 297 344 283 355 l 300 342 l 302 340 l 304 338 q 306 337 305 338 q 311 333 308 335 q 315 328 313 331 q 316 327 315 328 q 317 326 317 326 q 319 323 318 325 l 321 320 q 329 308 326 314 l 399 338 m 304 222 l 304 222 q 307 260 309 239 q 307 264 307 262 q 306 270 307 267 q 304 275 305 273 q 304 276 304 275 q 301 283 302 279 q 293 299 298 292 l 291 302 q 290 303 291 302 q 290 304 290 303 q 288 305 288 304 q 286 308 287 307 q 283 311 284 309 q 281 312 282 311 l 280 313 l 279 313 l 277 315 q 256 325 267 322 q 231 327 244 328 q 228 326 230 326 q 225 326 227 326 q 224 326 224 326 q 222 325 223 325 l 219 324 q 217 323 218 323 q 213 322 215 323 l 207 319 l 205 319 l 204 317 l 201 316 l 198 314 q 196 313 197 314 q 191 309 194 310 q 188 307 189 308 q 184 304 186 306 l 178 299 q 176 296 177 298 q 174 294 174 295 q 172 292 173 293 q 169 289 170 290 l 164 283 l 162 281 q 161 280 161 280 q 159 277 161 279 l 155 271 l 153 268 l 152 266 l 151 265 q 151 265 151 265 q 151 265 151 265 q 151 265 151 265 l 151 264 l 147 258 l 143 252 l 140 245 q 138 243 139 244 q 136 239 138 241 l 134 232 q 127 182 122 205 q 127 178 127 180 q 130 174 129 176 q 131 171 130 172 q 153 149 138 156 q 173 140 162 143 q 178 140 176 140 q 178 140 178 140 q 182 139 180 139 q 184 138 183 139 q 191 138 188 138 q 195 138 193 138 q 233 144 216 138 q 258 156 249 149 q 261 158 260 157 q 263 159 262 159 q 264 161 264 160 q 265 161 264 161 q 266 162 266 161 q 267 163 267 162 q 269 165 269 164 q 271 166 270 165 q 271 166 271 166 q 271 167 271 167 q 272 168 272 168 q 275 171 274 170 q 277 173 277 172 q 279 176 277 174 q 281 178 279 177 q 283 180 281 180 q 286 185 284 182 q 288 189 287 187 q 292 195 290 192 q 294 198 293 197 q 295 201 294 199 q 296 204 296 202 q 298 208 298 205 q 300 212 299 210 q 301 214 300 214 q 301 215 301 215 q 302 216 302 216 q 302 218 302 217 q 302 218 302 218 q 304 222 303 220 z "},"¥":{"ha":354,"x_min":-26,"x_max":347,"o":"m 334 232 l 334 232 l 268 231 q 257 200 263 216 l 334 199 q 343 195 339 199 q 347 185 347 191 q 343 176 347 180 q 334 172 339 172 l 246 170 q 238 152 242 161 q 217 105 229 128 q 192 60 205 82 q 163 17 178 38 q 129 -22 147 -4 q 88 -57 110 -41 q 41 -83 66 -73 q -10 -98 17 -94 q -20 -95 -16 -98 q -26 -86 -24 -92 q -23 -76 -26 -81 q -14 -71 -20 -72 l -14 -71 l -14 -71 q 31 -58 9 -67 q 73 -35 54 -49 q 142 33 112 -7 q 169 74 156 53 q 193 117 182 95 q 214 163 204 140 q 216 169 215 165 q 216 170 216 170 l 77 168 q 65 173 70 168 q 59 185 60 178 q 64 198 59 193 q 77 203 69 203 q 77 203 77 203 q 77 203 77 203 l 229 201 q 232 209 230 205 q 239 231 235 220 l 77 228 q 65 233 70 228 q 59 245 60 238 q 64 258 59 253 q 77 263 69 263 q 77 263 77 263 q 77 263 77 263 l 249 260 q 262 304 256 282 q 285 402 275 353 q 302 500 294 451 q 291 482 296 491 q 267 448 279 465 q 238 417 253 432 q 207 389 223 402 q 172 366 190 376 q 131 349 153 355 q 109 346 120 347 q 83 349 96 345 q 77 352 81 351 q 75 353 77 353 q 75 353 75 353 l 73 355 l 72 355 l 71 356 l 70 356 l 69 357 l 69 357 l 66 359 q 66 359 66 359 q 61 364 64 361 q 49 387 52 375 q 43 431 43 409 q 47 473 43 452 q 54 513 50 494 q 62 554 58 534 q 72 589 67 572 q 73 593 73 591 q 85 633 79 613 q 94 644 87 640 q 107 645 100 647 q 117 636 114 642 q 119 623 121 630 q 118 621 119 622 l 118 621 q 104 584 111 603 q 92 546 98 565 q 82 507 86 527 q 74 469 77 488 q 71 431 71 450 q 75 395 70 411 q 81 381 77 387 q 83 380 82 380 q 83 379 83 380 l 85 378 l 85 378 q 85 378 85 378 q 85 378 85 378 q 85 378 85 378 l 85 378 l 86 377 l 87 376 l 87 376 q 88 376 88 376 q 89 376 88 376 q 92 374 90 375 q 125 374 106 370 q 159 389 142 379 q 191 410 176 397 q 247 464 222 433 q 270 495 260 479 q 290 529 281 512 q 305 565 298 547 q 312 589 309 576 q 314 601 313 595 l 316 600 q 316 602 316 601 q 316 602 316 602 l 314 603 l 314 603 l 314 604 q 321 613 316 610 q 332 614 326 616 q 341 608 338 612 q 344 598 344 604 q 338 547 341 572 q 330 497 334 522 q 312 397 323 446 q 288 298 302 347 q 277 260 283 279 l 334 259 q 343 255 339 259 q 347 245 347 251 q 343 236 347 239 q 334 232 339 232 m 341 597 l 341 597 q 341 596 341 597 q 341 596 341 596 l 342 596 l 341 597 z "},"¦":{"ha":163,"x_min":75,"x_max":111,"o":"m 106 296 q 102 286 106 290 q 93 282 98 282 q 83 286 87 282 q 79 296 79 290 l 76 650 q 94 679 79 678 q 110 650 110 680 l 106 296 m 75 179 q 80 192 75 186 q 93 197 85 197 q 105 192 100 197 q 111 180 110 187 l 111 179 l 108 -82 q 92 -109 105 -109 q 78 -84 78 -109 l 75 179 z "},"§":{"ha":338,"x_min":9,"x_max":320,"o":"m 104 -168 q 47 -110 56 -168 q 47 -94 47 -101 q 54 -63 51 -68 q 55 -58 54 -60 q 56 -54 56 -56 q 60 -43 58 -48 q 63 -36 62 -39 q 64 -31 64 -33 q 68 -22 68 -25 q 77 -4 73 -13 q 90 4 81 4 q 103 -10 103 1 q 94 -32 102 -16 q 90 -44 93 -37 l 81 -68 q 76 -104 76 -83 q 79 -123 76 -115 q 105 -138 88 -138 q 146 -125 123 -138 q 216 -20 211 -87 q 121 140 216 46 q 19 298 33 243 q 9 345 9 324 l 9 364 q 10 369 10 366 q 12 381 10 371 q 41 455 17 418 q 85 498 61 488 q 91 528 90 522 q 146 621 105 585 q 220 650 182 650 q 262 637 244 650 q 287 581 287 618 q 264 513 287 558 q 247 500 256 500 q 238 503 242 500 q 229 519 229 509 q 231 528 229 524 q 233 529 232 528 q 234 532 233 531 q 248 560 241 543 q 252 583 252 572 q 219 616 252 616 q 195 611 208 616 q 128 538 150 593 q 125 529 127 533 q 117 482 117 501 q 149 387 117 438 q 228 284 178 340 q 306 178 286 217 q 320 116 320 142 q 315 77 320 95 q 312 69 313 72 q 310 65 311 66 q 306 55 309 63 q 301 46 302 47 q 300 44 301 45 q 299 42 300 43 q 297 39 299 41 q 291 31 292 31 q 248 -10 277 8 q 237 -70 248 -42 q 142 -161 208 -135 q 104 -168 121 -168 m 243 20 q 269 47 264 37 q 272 51 271 50 q 273 54 273 52 q 275 56 274 55 q 286 80 284 73 q 292 117 292 92 q 283 157 292 140 q 281 161 282 159 q 279 165 281 163 q 277 170 278 168 q 205 264 260 203 l 176 299 q 87 457 100 385 q 59 415 68 438 q 56 407 56 408 q 51 393 51 397 q 50 390 50 391 q 49 386 50 388 q 48 383 48 385 q 47 378 48 382 q 44 347 44 368 q 94 231 52 288 q 152 158 119 197 q 243 20 229 72 z "},"¨":{"ha":221,"x_min":67,"x_max":177,"o":"m 82 439 l 82 439 q 96 438 90 441 q 104 427 102 434 q 104 416 106 421 l 100 402 q 93 394 98 396 q 82 393 88 391 q 73 403 75 395 l 69 418 q 71 431 67 425 q 82 439 75 437 m 153 438 l 153 438 q 167 436 161 439 q 176 425 174 432 q 176 415 177 419 l 171 400 q 164 392 169 395 q 153 391 159 389 q 144 401 146 393 l 140 416 q 142 430 138 423 q 153 438 146 436 z "},"©":{"ha":227,"x_min":3,"x_max":210,"o":"m 150 440 l 150 440 q 159 446 154 445 q 169 443 164 446 q 174 434 174 439 q 172 424 175 429 q 82 361 125 363 q 69 363 75 361 q 60 369 65 365 q 53 381 56 373 q 52 402 50 389 q 76 459 57 435 q 113 484 94 484 q 121 481 116 484 q 129 471 125 478 q 132 450 132 464 q 126 441 131 444 q 117 438 122 437 q 108 443 111 439 q 104 452 104 446 q 89 431 97 445 q 79 398 81 417 q 79 389 77 390 q 107 398 87 386 q 150 440 127 410 m 166 520 l 166 520 q 205 456 199 496 q 184 378 210 416 q 94 325 147 325 q 46 339 68 325 q 8 404 14 361 q 28 481 3 446 q 118 534 66 534 q 166 520 144 534 m 163 391 l 163 391 q 178 451 182 421 q 151 497 175 481 q 118 507 136 507 q 50 467 79 507 q 35 408 31 439 q 61 361 39 377 q 94 352 77 352 q 163 391 134 352 z "},"ª":{"ha":159,"x_min":5,"x_max":161,"o":"m 96 420 l 96 420 q 55 401 76 401 q 33 408 43 401 q 11 440 18 416 q 17 501 5 463 q 24 509 19 507 q 34 509 28 511 q 36 509 35 509 q 37 510 36 509 q 84 545 50 543 q 84 545 84 545 q 85 545 85 545 q 119 522 109 545 q 123 487 125 507 q 114 450 121 468 q 138 461 125 452 q 149 464 143 465 q 157 458 154 463 q 160 448 161 453 q 154 439 159 442 q 96 421 124 418 q 96 420 96 421 q 96 420 96 420 m 62 501 l 62 501 q 61 480 58 492 q 76 458 64 469 q 85 452 81 454 q 96 483 93 466 q 95 511 99 500 q 85 517 92 517 q 85 517 85 517 q 68 511 73 517 q 62 501 63 505 m 37 469 l 37 469 q 47 431 34 438 q 66 431 56 426 q 59 437 62 434 q 37 469 43 450 z "},"«":{"ha":340,"x_min":38,"x_max":314,"o":"m 90 262 l 90 262 q 136 222 117 245 q 147 209 142 216 q 188 134 178 162 q 195 98 198 105 q 183 108 191 91 q 130 187 163 154 q 51 241 97 220 q 43 248 46 243 q 39 261 38 254 q 45 273 40 268 l 46 273 q 117 339 85 302 q 178 417 149 376 q 184 418 186 431 q 170 377 182 405 q 137 318 158 349 q 90 262 117 286 m 205 262 l 205 262 q 252 222 233 245 q 263 209 258 216 q 304 134 294 162 q 311 98 314 105 q 300 108 307 91 q 246 187 279 154 q 167 241 213 220 q 159 248 162 243 q 155 261 154 254 q 161 273 156 268 l 162 273 q 233 339 201 302 q 294 417 265 376 q 301 418 303 431 q 286 377 298 405 q 253 318 274 349 q 205 262 233 286 z "},"¬":{"ha":267,"x_min":12,"x_max":253,"o":"m 236 527 l 236 527 q 248 523 243 527 q 253 511 252 518 q 253 509 253 510 l 249 444 q 244 435 248 438 q 235 431 240 431 q 226 435 229 432 q 222 444 222 439 l 218 492 l 25 496 q 15 500 19 496 q 12 510 12 504 q 15 519 12 515 q 25 523 19 523 l 235 527 l 236 527 z "},"®":{"ha":218,"x_min":-1,"x_max":207,"o":"m 163 515 l 163 515 q 201 451 196 491 q 180 372 207 410 q 91 319 143 319 q 43 334 64 319 q 4 399 9 356 q 24 476 -1 440 q 115 529 62 529 q 163 515 140 529 m 87 347 l 87 347 q 91 347 89 347 q 127 356 109 347 q 90 369 105 356 q 90 356 90 357 q 87 347 91 351 m 159 386 l 159 386 q 175 446 178 416 q 147 492 172 475 q 115 502 132 502 q 47 461 75 502 q 31 402 27 433 q 58 356 35 372 q 63 353 60 355 q 62 452 54 393 q 68 461 64 458 q 78 463 73 465 q 84 460 81 463 q 84 461 84 461 q 100 488 92 479 q 116 497 109 496 q 128 498 123 499 q 149 480 142 494 q 154 447 156 466 q 141 414 153 429 q 106 391 130 398 q 128 384 116 382 q 138 382 134 385 q 144 374 143 380 q 145 369 145 372 q 159 386 153 376 m 97 416 l 97 416 q 119 430 112 421 q 126 445 125 438 q 126 462 128 455 q 122 471 124 469 q 117 466 121 471 q 109 450 114 462 q 109 450 109 450 q 97 416 101 432 z "},"¯":{"ha":208,"x_min":16,"x_max":201,"o":"m 188 430 l 188 430 q 198 426 194 430 q 201 416 201 422 q 197 407 201 411 q 188 403 194 404 l 35 399 q 21 404 26 399 q 16 416 16 409 q 21 429 16 424 q 33 434 26 434 q 35 434 34 434 l 188 430 z "},"°":{"ha":147,"x_min":25,"x_max":135,"o":"m 80 515 l 80 515 q 119 499 103 515 q 135 460 135 483 q 119 421 135 437 q 80 406 103 406 q 41 421 58 406 q 25 460 25 437 q 41 499 25 483 q 80 515 58 515 m 80 433 l 80 433 q 100 441 92 433 q 108 460 108 449 q 100 480 108 472 q 80 488 92 488 q 61 480 69 488 q 52 460 52 472 q 61 441 52 449 q 80 433 69 433 z "},"±":{"ha":303,"x_min":26,"x_max":270,"o":"m 256 300 l 256 300 q 266 296 262 300 q 270 286 270 292 q 266 277 270 281 q 256 273 262 273 l 171 271 l 155 160 q 150 151 154 154 q 139 149 145 148 q 131 154 134 149 q 127 163 127 158 l 140 271 l 58 269 q 46 274 51 269 q 41 286 41 279 q 45 299 41 294 q 58 304 50 304 q 58 304 58 304 l 144 302 l 159 428 q 165 440 159 435 q 178 444 171 444 q 190 437 186 443 q 193 424 194 431 q 193 424 193 424 q 193 423 193 424 l 176 302 l 256 300 m 243 126 l 243 126 q 252 122 248 126 q 256 113 256 118 q 252 103 256 107 q 243 99 248 100 l 45 95 q 32 100 37 95 q 26 113 27 105 q 32 125 26 120 q 44 130 37 130 q 45 130 44 130 l 243 126 z "},"²":{"ha":177,"x_min":40,"x_max":284,"o":"m 164 522 l 164 522 q 165 520 164 521 q 165 515 165 517 q 165 514 165 515 q 165 509 165 512 q 165 505 165 507 q 164 504 165 505 q 164 500 164 503 q 163 499 163 500 q 162 494 163 496 q 162 493 162 494 q 161 490 161 492 q 161 488 161 489 q 159 486 160 486 l 159 483 l 159 483 l 159 482 l 158 481 l 158 481 q 157 479 157 479 q 156 477 157 477 q 155 474 156 475 q 153 469 154 471 q 147 456 151 463 q 145 452 146 454 q 143 448 144 450 q 141 444 142 446 q 138 438 140 441 q 136 435 137 437 q 134 429 135 432 q 127 418 130 424 q 118 402 123 410 q 98 371 108 386 q 96 368 97 370 q 79 341 87 354 q 72 328 75 334 q 71 325 71 326 l 71 325 q 73 325 72 325 q 74 326 73 325 q 76 326 75 326 q 96 335 87 330 q 98 336 97 335 q 100 336 98 336 q 115 345 109 341 q 127 350 123 348 q 132 351 132 351 q 142 351 138 353 q 150 344 147 349 q 149 333 151 338 q 142 326 147 328 l 142 326 q 138 324 142 326 q 127 319 134 323 q 113 312 121 317 q 111 311 111 311 q 107 309 109 310 q 85 299 98 304 q 81 298 83 298 q 81 298 81 298 q 77 297 79 297 l 75 296 l 73 296 q 72 296 73 296 q 72 296 72 296 q 68 296 71 296 l 67 296 q 66 296 66 296 l 66 296 l 64 296 l 63 296 q 63 296 63 296 q 63 296 63 296 q 62 296 62 296 q 62 296 62 296 q 62 296 62 296 q 62 296 62 296 l 62 296 l 61 296 l 60 296 q 53 298 57 296 q 52 299 52 298 q 49 301 50 300 q 48 302 48 301 q 45 305 46 303 q 42 311 43 308 q 41 313 41 311 q 41 315 41 314 q 41 329 40 323 q 45 339 43 334 q 53 356 49 348 q 70 384 61 370 q 72 387 71 385 q 91 418 82 403 q 97 429 94 423 q 100 434 98 431 q 105 444 102 439 q 108 450 106 447 q 110 452 109 451 q 112 458 111 455 q 112 458 112 458 q 116 465 114 462 q 117 469 117 467 q 123 481 120 475 q 124 485 123 483 q 125 489 125 487 q 126 490 126 490 q 127 492 127 492 l 127 494 l 127 494 l 127 494 l 128 496 q 132 509 131 503 q 132 510 132 509 q 132 511 132 511 q 132 512 132 511 q 132 513 132 512 q 128 511 130 512 q 121 508 124 510 q 111 499 114 503 q 109 496 109 497 q 109 496 109 496 q 109 496 109 496 q 109 494 109 494 l 109 494 q 104 482 109 487 q 92 476 99 477 q 79 481 84 477 q 73 494 74 486 q 73 494 73 494 q 73 494 73 494 q 73 495 73 494 q 73 496 73 496 q 73 496 73 496 q 74 502 74 499 q 75 504 75 503 q 75 506 75 505 q 75 507 75 506 q 77 511 76 509 q 83 521 80 516 q 102 537 91 530 q 117 544 109 541 q 138 547 125 547 q 141 546 139 547 q 144 545 142 545 l 146 545 l 148 543 q 149 543 149 543 q 152 541 150 543 q 162 528 159 536 q 163 526 163 527 q 163 525 163 526 q 163 524 163 524 q 164 522 164 523 m 109 496 l 109 496 q 109 497 109 496 q 109 496 109 496 q 109 496 109 496 m 66 324 l 66 324 l 66 324 q 66 324 66 324 q 66 324 66 324 m 132 515 l 132 515 q 132 515 132 515 q 132 515 132 515 l 132 515 m 132 515 l 132 515 q 132 515 132 515 q 132 515 132 515 q 132 515 132 515 q 132 515 132 515 m 284 515 l 284 515 q 284 515 284 515 q 284 515 284 515 q 284 515 284 515 q 284 515 284 515 q 284 516 284 516 q 284 516 284 516 q 284 516 284 516 q 284 515 284 515 z "},"³":{"ha":180,"x_min":10,"x_max":163,"o":"m 145 463 l 145 463 q 157 449 153 457 q 162 422 163 435 q 159 397 162 409 q 142 353 154 373 q 110 317 130 332 q 89 304 100 309 q 64 297 77 298 q 35 302 50 296 q 14 323 21 308 q 10 340 10 331 q 15 357 11 349 q 26 368 20 363 q 37 376 31 373 q 48 376 43 378 q 56 369 53 374 q 56 359 58 364 q 50 351 54 354 l 49 351 q 39 343 41 347 q 38 339 38 341 q 39 335 38 337 q 47 328 41 330 q 61 326 54 325 q 77 330 69 326 q 92 339 85 334 q 105 352 99 345 q 116 368 111 359 q 130 404 125 385 q 132 421 132 412 q 129 435 132 430 q 127 438 127 437 q 125 438 126 438 q 124 439 125 439 q 112 435 120 439 q 96 427 104 432 q 95 425 95 426 q 94 425 94 425 q 92 423 93 424 q 90 421 90 422 q 83 416 86 418 q 79 414 81 414 q 67 410 74 410 q 57 416 61 411 q 54 428 53 422 q 59 439 54 434 l 59 439 q 68 446 64 442 q 68 446 68 446 q 68 446 68 446 q 71 448 69 447 q 77 453 73 450 q 84 461 80 457 q 87 464 85 463 q 87 465 87 465 q 89 467 88 466 q 91 469 90 467 l 94 473 q 96 475 95 474 q 97 477 96 476 q 99 481 98 479 q 100 481 100 481 q 100 481 100 481 q 102 486 101 484 q 106 494 104 490 q 109 503 109 499 q 110 505 109 504 q 110 507 110 506 l 111 509 l 111 511 q 111 514 111 513 q 110 514 111 514 q 110 514 110 514 q 109 514 110 514 q 109 513 109 513 q 108 513 109 513 q 107 513 108 513 l 105 512 q 104 511 104 512 q 96 507 100 509 l 92 503 q 90 501 91 503 q 88 500 89 500 l 87 498 l 84 496 l 80 492 q 67 488 75 488 q 56 493 60 488 q 50 505 50 498 q 56 517 50 512 q 56 518 56 517 q 56 518 56 518 l 56 518 l 60 522 l 62 524 l 64 526 q 66 528 66 527 q 70 530 68 529 l 75 534 q 87 542 81 538 q 92 545 90 543 q 94 545 94 545 q 97 546 96 546 q 98 547 98 547 q 100 547 99 547 q 102 548 101 547 q 124 546 112 551 q 127 545 126 546 q 130 543 128 545 q 130 543 130 543 q 135 539 133 541 q 139 534 138 536 q 139 533 139 534 q 142 529 140 531 q 144 510 145 518 l 144 506 l 144 503 q 142 496 143 499 q 142 495 142 496 q 138 481 140 488 q 132 469 135 475 q 132 469 132 469 q 131 469 132 469 q 145 463 139 468 z "},"´":{"ha":188,"x_min":66,"x_max":159,"o":"m 144 477 l 144 477 q 155 469 152 475 q 157 456 159 463 q 156 454 156 455 q 155 453 156 454 q 155 452 155 452 q 155 452 155 452 q 154 450 155 450 q 154 450 154 450 q 149 438 152 445 q 144 431 146 435 q 141 425 143 428 q 140 422 140 424 q 134 414 137 418 q 132 412 134 413 q 128 406 130 409 q 128 406 128 406 q 121 398 125 402 q 118 395 120 396 q 115 392 117 393 q 115 391 115 391 q 113 389 114 390 q 111 387 113 389 q 111 387 111 387 q 108 385 109 385 q 107 384 108 384 q 102 379 104 381 q 101 378 101 378 q 96 374 98 376 q 92 372 93 373 q 87 369 87 369 q 77 367 82 366 q 68 372 72 368 q 66 382 66 377 q 71 391 67 387 l 73 391 q 75 394 73 391 q 77 395 77 395 q 79 397 78 396 q 83 400 81 398 q 87 404 85 402 q 88 406 87 405 q 90 408 89 406 q 90 408 90 408 q 92 410 91 409 q 93 411 92 410 q 94 412 94 412 q 96 414 95 413 q 96 415 96 414 q 98 418 97 416 q 102 424 100 420 q 103 425 102 424 q 106 429 104 427 q 107 432 106 431 q 111 439 110 435 q 113 441 112 440 q 115 446 114 444 q 118 452 117 450 q 121 463 120 458 q 121 463 121 463 q 122 464 122 463 q 122 464 122 464 q 122 465 122 465 q 123 466 123 466 l 123 466 q 131 476 125 473 q 144 477 138 479 z "},"µ":{"ha":325,"x_min":-20,"x_max":368,"o":"m 356 525 l 356 525 q 365 519 361 524 q 366 509 368 515 q 357 473 362 491 q 347 439 353 456 q 321 371 336 404 q 304 338 313 355 q 283 307 295 322 q 257 278 273 291 q 220 258 242 264 l 220 258 l 220 258 q 220 258 220 258 q 220 258 220 258 q 219 258 220 258 q 219 258 219 258 q 219 258 219 258 q 219 258 219 258 l 218 258 l 217 258 l 215 257 q 214 256 214 257 q 210 256 212 256 l 205 256 q 199 255 201 255 l 193 255 q 189 256 191 256 q 187 256 188 256 l 184 256 q 182 257 183 257 q 181 257 182 257 q 180 258 180 258 q 175 259 178 258 q 155 274 163 264 q 143 294 147 283 q 134 333 136 313 q 134 341 134 337 l 7 -35 q 1 -43 5 -41 q -9 -44 -4 -45 q -17 -37 -15 -42 q -18 -27 -20 -33 l 155 516 q 163 526 157 523 q 177 527 170 530 q 187 519 184 525 q 189 507 190 513 l 189 507 l 189 507 q 174 437 180 472 q 166 369 168 404 q 167 336 165 352 q 173 306 168 319 q 179 295 176 299 q 188 289 183 291 q 189 288 188 288 q 190 288 189 288 q 191 288 191 288 q 191 288 191 288 l 193 287 q 194 287 193 287 q 195 287 195 287 l 199 287 q 201 287 200 286 q 201 287 201 287 q 205 287 203 287 q 208 288 206 287 q 209 288 208 288 l 211 288 l 212 288 l 212 288 l 212 288 q 238 302 226 292 q 260 325 250 311 q 278 353 270 338 q 294 383 287 368 q 320 448 309 414 q 331 481 326 465 q 340 515 336 498 l 340 515 q 346 524 341 521 q 356 525 351 526 z "},"¶":{"ha":303,"x_min":-41,"x_max":321,"o":"m 319 583 l 319 583 q 321 581 320 583 q 321 580 321 581 q 321 577 321 578 q 321 576 321 577 q 319 568 321 573 q 317 558 318 564 q 305 509 312 539 q 300 492 303 500 q 281 412 292 456 q 288 403 286 409 q 286 393 288 397 q 278 387 283 389 q 275 386 278 387 q 267 352 271 369 q 265 346 265 349 q 252 292 258 319 q 233 218 241 254 q 224 184 229 201 q 218 159 221 171 q 212 136 215 146 q 201 92 205 112 q 184 26 190 50 q 178 1 178 1 q 171 -8 176 -5 q 161 -9 166 -10 q 153 -3 155 -8 q 151 7 150 1 q 157 32 151 7 q 172 98 162 57 q 176 115 174 107 q 182 142 179 129 q 190 176 186 159 q 193 192 191 184 q 218 299 205 244 q 226 330 222 315 q 231 353 229 342 q 234 366 233 360 q 237 378 236 372 q 227 376 233 377 q 213 374 220 375 q 199 372 207 373 q 196 355 198 363 q 170 256 184 303 q 142 170 155 210 q 123 113 132 140 q 118 98 120 105 q 100 42 107 65 q 88 6 92 19 q 85 -6 85 -6 l 85 -6 q 78 -15 83 -12 q 68 -16 74 -17 q 60 -10 62 -14 q 58 1 58 -5 q 62 14 58 1 q 73 50 65 26 q 101 142 83 87 q 113 180 106 160 q 115 189 114 184 q 139 266 127 225 q 163 361 153 311 q 165 368 165 365 q 165 370 165 369 q 85 378 130 368 q 64 385 75 381 q 42 395 52 389 q -1 424 20 406 q -33 471 -21 442 q -39 500 -38 484 q -37 532 -41 516 q 0 584 -27 564 q 28 600 13 593 q 58 608 42 605 q 60 608 58 608 q 65 608 62 608 l 72 610 l 73 610 l 74 610 l 76 610 l 80 610 q 82 610 81 610 q 87 611 84 610 q 118 609 102 611 q 150 600 134 607 q 178 581 165 593 q 197 554 190 569 q 207 524 203 539 q 212 464 213 494 q 206 408 211 435 q 205 406 206 407 q 206 404 205 404 q 222 405 214 404 q 238 408 231 406 q 243 408 241 408 q 244 408 243 408 q 245 408 244 408 q 264 488 255 452 q 267 500 265 494 q 283 566 277 542 q 284 575 283 571 q 287 585 286 581 q 288 586 287 585 q 288 588 288 587 q 290 589 288 589 q 292 590 291 590 q 292 590 292 590 q 319 584 308 593 q 319 583 319 584 m 166 401 l 166 401 q 171 402 168 401 q 172 401 172 401 q 174 413 172 408 q 178 465 177 439 q 174 516 179 492 q 153 556 169 541 q 113 574 138 572 q 89 576 101 576 q 84 576 86 576 q 82 576 83 576 l 79 575 l 77 575 l 77 575 l 77 575 q 77 575 77 575 l 76 575 l 69 574 l 64 574 q 21 555 39 569 q -3 522 3 542 q 0 484 -7 503 q 23 449 8 464 q 57 425 39 434 q 95 411 76 416 q 132 404 113 406 q 166 401 149 401 z "},"·":{"ha":92,"x_min":27,"x_max":73,"o":"m 50 264 l 50 264 q 62 259 57 264 q 70 244 67 254 q 70 224 73 234 q 62 210 67 215 q 50 204 57 204 q 37 210 42 204 q 30 224 32 215 q 30 243 27 233 q 37 259 32 254 q 50 264 42 264 z "},"∙":{"ha":92,"x_min":27,"x_max":73,"o":"m 50 264 l 50 264 q 62 259 57 264 q 70 244 67 254 q 70 224 73 234 q 62 210 67 215 q 50 204 57 204 q 37 210 42 204 q 30 224 32 215 q 30 243 27 233 q 37 259 32 254 q 50 264 42 264 z "},"¸":{"ha":136,"x_min":33,"x_max":106,"o":"m 75 113 l 73 90 l 80 86 l 87 81 q 90 77 89 79 q 94 74 92 76 q 100 66 97 71 q 102 62 101 64 q 104 58 103 60 l 104 57 q 105 52 104 55 l 105 52 q 106 46 106 49 l 106 43 l 106 40 l 106 37 l 106 34 l 105 31 q 104 26 104 28 q 103 26 103 26 l 103 25 q 102 23 102 24 l 101 21 l 100 18 l 98 17 q 98 16 98 16 q 94 12 96 14 q 94 12 94 12 q 90 8 92 9 q 81 3 85 5 q 60 -1 71 -1 q 49 2 54 0 l 48 3 l 44 4 q 39 7 42 5 q 34 15 35 10 q 35 25 33 20 q 43 31 38 30 q 53 31 48 33 l 55 29 q 56 28 56 28 q 58 28 57 28 l 58 27 q 62 26 60 26 q 70 28 66 26 q 73 30 72 28 q 75 31 74 30 l 76 32 l 76 33 q 77 33 77 33 l 77 34 l 77 35 l 78 36 q 79 37 79 37 l 79 39 l 79 43 l 79 44 q 79 46 79 45 l 79 47 q 78 48 79 47 l 78 49 q 77 50 78 50 q 77 52 77 51 q 76 53 76 52 q 73 56 75 54 l 72 58 l 71 58 q 69 60 71 59 q 64 64 67 62 q 60 66 62 65 l 57 68 l 57 68 q 56 69 56 68 q 54 69 55 69 q 49 72 52 70 q 47 77 47 74 l 46 81 l 42 113 l 75 113 z "},"¹":{"ha":109,"x_min":14,"x_max":88,"o":"m 87 511 l 87 511 q 87 507 87 509 q 87 494 88 500 q 84 470 86 482 q 75 420 80 446 q 53 330 63 369 q 45 300 48 311 q 43 293 43 296 q 42 292 43 292 q 41 288 41 288 q 35 280 39 283 q 24 279 30 278 q 17 286 19 281 q 15 296 14 290 l 16 296 q 16 299 16 296 q 16 301 16 300 q 18 307 17 304 q 25 336 21 318 q 44 427 35 376 q 52 475 49 452 q 52 477 52 476 q 52 478 52 477 q 51 477 52 477 q 51 476 51 476 q 49 474 49 474 q 37 468 44 469 q 24 472 30 467 q 18 484 18 477 q 22 497 18 491 q 22 497 22 497 q 22 497 22 497 q 24 500 22 497 q 26 500 25 500 q 27 503 26 501 q 29 505 28 503 q 31 507 30 505 q 41 517 35 511 q 43 518 43 517 q 45 519 44 519 q 48 522 46 521 q 49 523 49 522 q 53 526 51 524 q 54 526 54 526 q 57 528 55 527 q 57 528 57 528 l 58 529 l 59 529 l 59 529 q 59 529 59 529 q 59 529 59 529 q 59 529 59 529 q 59 529 59 529 q 59 529 59 529 q 59 529 59 529 q 59 529 59 529 q 59 529 59 529 q 60 529 60 529 q 61 530 60 530 l 62 530 l 62 530 l 62 530 l 63 530 l 64 530 q 67 531 65 531 q 71 530 69 531 q 74 530 73 530 q 74 530 74 530 q 77 528 75 529 q 78 528 77 528 q 79 527 79 528 q 82 524 81 526 q 82 524 82 524 q 83 524 83 524 l 83 523 l 84 522 q 84 520 84 521 q 85 519 85 519 q 86 515 86 517 q 87 513 87 514 l 87 511 z "},"º":{"ha":144,"x_min":27,"x_max":128,"o":"m 89 351 l 89 351 q 50 336 70 332 q 27 372 29 341 q 28 392 27 382 q 32 410 30 401 l 41 444 q 68 500 56 484 q 93 520 81 516 q 109 523 104 524 q 117 517 113 522 q 121 510 119 514 q 127 471 128 492 q 121 429 125 451 q 89 351 106 376 m 60 365 q 71 366 60 365 q 97 426 82 366 q 100 490 112 486 q 75 473 87 494 q 56 424 63 453 q 60 365 38 363 m 111 519 l 111 519 q 111 519 111 519 q 111 519 111 519 q 111 519 111 519 q 111 519 111 519 q 111 519 111 519 z "},"»":{"ha":354,"x_min":37,"x_max":312,"o":"m 260 262 q 213 318 233 286 q 180 377 192 349 q 165 418 168 405 q 173 417 163 431 q 233 339 201 376 q 304 273 266 302 l 304 273 q 311 261 311 268 q 308 248 312 254 q 299 241 304 243 q 220 187 253 220 q 167 108 187 154 q 156 98 159 91 q 162 134 153 105 q 203 209 172 162 q 214 222 208 216 q 260 262 233 245 l 260 262 m 144 262 q 97 318 117 286 q 64 377 76 349 q 50 418 52 405 q 56 417 47 431 q 117 339 85 376 q 189 273 149 302 l 189 273 q 195 261 194 268 q 192 248 196 254 q 183 241 189 243 q 104 187 137 220 q 51 108 71 154 q 40 98 43 91 q 46 134 37 105 q 87 209 56 162 q 98 222 92 216 q 144 262 117 245 l 144 262 z "},"¼":{"ha":398,"x_min":20,"x_max":353,"o":"m 280 95 l 280 95 q 289 94 285 96 q 295 87 293 92 q 295 76 297 81 q 288 69 292 71 q 285 68 288 69 q 277 65 282 67 q 273 64 275 64 q 261 10 267 33 q 252 -22 255 -14 q 239 -31 248 -31 q 235 -30 237 -31 q 227 -23 229 -28 q 227 -12 225 -18 q 243 54 232 3 q 231 52 238 53 q 208 48 221 50 q 195 49 202 48 q 178 55 187 50 l 177 56 l 176 56 l 176 56 q 173 59 174 58 q 172 60 172 60 q 172 60 172 60 q 172 61 172 60 q 172 61 172 61 q 172 61 172 61 l 171 61 l 170 62 l 170 62 l 170 62 q 170 63 170 62 q 170 63 170 63 q 169 64 170 64 q 169 64 169 64 q 169 64 169 64 q 169 64 169 64 l 169 64 l 168 66 q 167 68 168 67 q 166 71 167 70 q 166 71 166 71 l 165 73 q 165 90 164 83 q 170 115 167 103 q 178 137 174 126 q 194 174 186 158 q 206 199 201 190 q 211 209 211 209 q 221 218 214 216 q 235 216 228 220 q 243 206 241 213 q 242 193 245 199 q 242 192 242 193 l 242 192 q 237 183 242 192 q 224 159 232 174 q 208 125 216 144 q 201 105 204 115 q 196 86 197 95 q 196 79 195 81 q 199 79 197 79 q 208 78 203 78 q 226 80 216 78 q 243 83 235 81 q 250 85 247 85 q 267 186 263 145 q 272 195 268 191 q 281 198 276 198 q 291 193 288 197 q 294 183 294 189 q 280 95 290 148 m 196 79 l 196 79 q 196 79 196 79 q 196 79 196 79 l 196 79 q 196 79 196 79 q 196 79 196 79 m 196 79 l 196 79 q 196 79 196 79 q 196 79 196 79 q 196 79 196 79 q 196 79 196 79 q 196 79 196 79 q 196 79 196 79 q 196 79 196 79 q 196 79 196 79 q 196 79 196 79 l 196 79 l 196 79 m 157 500 l 157 500 q 165 547 161 524 q 165 549 165 549 q 165 551 165 550 q 163 549 164 550 q 161 547 161 547 q 150 541 157 541 q 137 545 142 540 q 131 557 132 550 q 135 570 130 564 q 135 570 135 570 q 135 570 135 570 q 137 572 135 570 q 138 574 138 573 q 140 575 139 574 q 143 579 141 576 q 146 582 144 581 q 148 584 147 583 q 150 585 149 585 q 154 589 152 587 q 156 591 155 590 q 157 592 157 591 q 161 595 159 593 q 165 598 163 597 q 166 599 166 598 q 169 600 168 600 q 170 600 170 600 l 171 602 l 172 602 l 172 602 q 172 602 172 602 q 172 602 172 602 q 172 602 172 602 q 172 602 172 602 q 172 602 172 602 q 172 602 172 602 q 172 602 172 602 q 172 602 172 602 q 173 602 172 602 q 174 602 173 602 l 174 602 l 174 603 l 175 603 l 176 603 l 176 603 q 180 604 178 604 q 184 603 182 604 q 186 602 185 603 q 189 601 188 602 q 191 601 190 601 q 191 600 191 600 q 195 597 193 598 q 195 596 195 596 q 195 596 195 596 l 196 595 l 197 594 l 197 593 q 198 592 197 593 q 198 591 198 592 q 198 590 198 591 q 199 588 199 589 q 199 585 199 587 l 200 583 q 200 579 200 581 q 200 567 201 572 q 197 543 199 555 q 187 493 193 519 q 165 402 176 441 q 157 372 161 384 q 155 364 156 367 q 154 361 154 361 q 147 353 152 355 q 137 352 142 351 q 129 358 132 354 q 128 368 127 363 l 128 369 q 129 372 128 369 q 129 373 129 372 q 131 380 130 376 q 138 409 134 391 q 157 500 147 448 m 167 578 l 167 578 q 166 579 166 579 q 167 578 166 579 q 167 578 167 578 q 167 578 167 578 q 167 578 167 578 q 167 578 167 578 m 341 638 l 341 638 q 351 628 348 635 q 351 615 353 622 l 351 615 l 47 -108 q 39 -115 44 -113 q 29 -115 34 -117 q 22 -108 24 -113 q 22 -98 20 -103 l 318 629 q 328 638 321 635 q 341 638 334 641 z "},"½":{"ha":376,"x_min":28,"x_max":362,"o":"m 165 500 l 165 500 q 173 547 170 524 q 174 549 173 549 q 174 551 174 550 q 172 549 173 549 q 170 547 170 547 q 158 541 165 541 q 145 545 151 540 q 139 557 140 550 q 143 570 138 564 q 144 570 144 570 q 144 570 144 570 q 146 572 144 570 q 147 574 146 573 q 149 575 148 574 q 150 576 149 576 q 152 579 151 578 q 163 589 156 583 q 164 591 163 590 q 166 592 165 591 q 168 593 167 593 q 170 595 169 594 q 174 598 172 597 q 175 599 174 598 q 178 600 176 600 q 178 600 178 600 l 180 602 l 180 602 l 180 602 q 180 602 180 602 q 180 602 180 602 q 181 602 180 602 q 181 602 181 602 q 182 602 182 602 q 182 602 182 602 l 182 602 l 183 603 l 183 603 l 184 603 l 184 603 q 189 604 186 604 q 192 603 191 604 q 195 602 193 603 q 195 602 195 602 q 197 601 196 602 q 199 601 198 601 q 200 600 199 600 q 203 597 201 598 q 203 596 203 597 q 204 596 203 596 l 204 595 l 205 594 q 206 593 205 593 q 206 591 206 592 q 208 588 207 590 q 208 585 208 587 l 208 583 q 209 580 209 581 q 209 567 209 572 q 205 543 208 555 q 196 493 201 519 q 174 402 184 441 q 166 372 169 384 q 163 361 163 363 q 163 361 163 361 l 163 361 q 156 353 161 355 q 146 352 151 351 q 138 359 140 354 q 136 369 135 363 q 139 380 136 369 q 146 409 142 391 q 165 500 155 448 m 175 578 l 175 578 q 175 579 175 578 q 175 578 175 578 q 175 578 175 578 q 175 578 175 578 q 175 578 175 578 m 350 638 l 350 638 q 359 628 357 635 q 359 615 362 622 l 359 615 l 55 -108 q 48 -115 53 -113 q 37 -115 43 -117 q 30 -108 32 -113 q 30 -98 28 -103 l 327 629 q 336 638 330 635 q 350 638 342 641 m 307 197 l 307 197 q 307 196 307 197 q 308 191 308 193 q 308 190 308 191 q 308 185 308 187 q 308 182 308 184 q 307 180 308 181 q 307 179 307 179 q 305 170 307 174 q 305 169 305 170 q 304 165 304 167 q 302 161 303 163 l 302 159 l 302 158 l 302 157 l 301 157 l 301 156 q 300 154 300 155 q 299 152 300 153 q 297 147 298 150 q 296 144 296 146 q 290 132 294 138 q 288 127 289 130 q 284 119 286 123 q 281 113 283 116 q 279 111 280 112 q 277 105 278 108 q 271 94 273 100 q 261 78 266 86 q 241 46 251 62 q 239 44 240 45 q 222 17 230 30 q 215 3 218 9 q 214 0 214 1 l 214 0 q 216 1 215 1 q 216 1 216 1 q 219 1 218 1 q 239 11 230 5 q 241 11 240 11 q 243 12 242 12 q 258 20 252 17 q 271 25 266 24 q 275 27 275 27 q 286 27 281 29 q 293 19 290 24 q 292 9 294 14 q 285 2 290 4 l 285 1 q 281 0 285 1 q 271 -5 277 -1 q 255 -13 264 -8 q 254 -14 254 -13 q 250 -15 252 -14 q 229 -25 241 -20 q 224 -26 227 -26 q 223 -27 224 -26 q 220 -28 222 -27 l 218 -28 l 216 -28 q 216 -28 216 -28 q 215 -28 215 -28 q 212 -28 214 -28 l 210 -29 q 210 -29 210 -29 l 209 -29 l 207 -28 l 206 -28 q 206 -28 206 -28 q 206 -28 206 -28 q 205 -28 205 -28 q 205 -28 205 -28 q 205 -28 205 -28 q 205 -28 205 -28 l 205 -28 l 204 -28 l 203 -28 q 196 -26 200 -28 q 195 -26 195 -26 q 192 -23 193 -24 q 191 -23 191 -23 q 188 -19 189 -21 q 185 -14 186 -17 q 184 -12 184 -13 q 184 -9 184 -10 q 184 5 183 -1 q 188 15 186 10 q 196 31 192 24 q 213 59 204 45 q 215 62 214 61 q 234 94 225 78 q 239 103 237 98 q 243 110 241 106 q 248 120 245 115 q 251 125 250 123 q 253 128 252 127 q 255 134 254 131 q 257 138 256 136 q 259 141 258 139 q 260 145 260 143 q 266 157 263 151 q 267 161 267 159 q 269 164 268 163 q 270 166 269 165 q 271 168 270 168 l 271 170 l 271 170 l 271 170 l 271 172 q 275 184 274 178 q 275 186 275 186 q 275 187 275 187 q 275 188 275 188 q 271 187 273 188 q 264 183 267 186 q 254 174 257 178 q 252 172 252 173 q 252 172 252 172 q 252 171 252 172 q 252 170 252 170 l 252 170 q 247 157 252 162 q 235 152 242 153 q 222 157 227 152 q 216 170 217 162 q 216 170 216 170 q 216 170 216 170 q 216 171 216 170 q 216 172 216 172 q 217 178 217 174 q 218 179 218 178 q 218 181 218 180 q 218 182 218 182 q 220 187 219 184 q 227 196 223 192 q 245 213 233 205 q 260 220 252 216 q 281 222 268 223 q 284 222 282 222 q 288 220 286 221 l 290 220 l 291 219 q 292 219 292 219 q 295 217 293 218 q 305 204 302 212 q 307 201 306 203 q 307 200 307 201 q 307 199 307 200 q 307 197 307 198 m 252 171 l 252 171 q 252 172 252 172 q 252 172 252 172 q 252 171 252 172 q 252 171 252 171 m 209 0 l 209 0 l 209 0 q 209 0 209 0 q 209 0 209 0 m 274 191 l 274 191 q 274 191 274 191 q 274 191 274 191 q 274 191 274 191 q 274 191 274 191 m 275 191 l 275 191 q 275 191 275 191 q 275 191 275 191 q 275 191 275 191 q 275 191 275 191 z "},"¾":{"ha":340,"x_min":-1,"x_max":333,"o":"m 260 95 l 260 95 q 269 94 264 96 q 275 87 273 92 q 274 76 277 81 q 267 69 272 71 q 264 68 267 69 q 257 65 262 67 q 253 64 255 64 q 241 10 247 33 q 231 -22 235 -13 q 219 -31 228 -31 q 214 -30 217 -31 q 207 -23 210 -28 q 207 -12 205 -18 q 223 54 212 3 q 211 52 218 53 q 188 48 201 50 q 174 49 182 48 q 158 55 167 50 l 157 56 l 156 56 l 155 56 q 153 59 154 58 q 151 60 152 60 q 151 60 151 60 q 151 61 151 60 q 151 61 151 61 q 151 61 151 61 l 151 61 l 150 62 l 150 62 l 150 62 q 150 63 150 62 q 149 63 149 63 q 149 64 149 64 q 149 64 149 64 q 149 64 149 64 q 149 64 149 64 l 149 64 l 148 66 q 146 68 147 67 q 146 71 146 70 q 146 71 146 71 l 145 73 q 144 90 144 83 q 150 115 146 103 q 158 137 154 126 q 174 174 166 158 q 186 199 181 190 q 191 209 191 209 q 201 218 194 216 q 214 216 208 220 q 223 206 221 213 q 222 193 225 199 q 222 193 222 193 q 222 192 222 193 l 222 192 q 216 183 222 192 q 204 159 212 174 q 188 125 196 144 q 180 105 184 115 q 176 86 177 95 q 176 79 175 81 q 179 79 176 79 q 187 78 182 78 q 205 80 196 78 q 222 83 214 81 q 230 85 227 85 q 247 186 243 146 q 252 195 248 191 q 261 198 256 198 q 271 193 267 197 q 274 183 274 189 q 260 95 270 147 m 176 79 l 176 79 q 176 79 176 79 q 176 79 176 79 l 176 79 q 176 79 176 79 q 176 79 176 79 m 176 79 l 176 79 q 176 79 176 79 q 176 79 176 79 q 176 79 176 79 q 176 79 176 79 q 176 79 176 79 q 176 79 176 79 q 176 79 176 79 q 176 79 176 79 q 176 79 176 79 l 176 79 l 176 79 m 321 638 l 321 638 q 330 628 328 635 q 330 615 333 622 l 330 615 l 26 -108 q 19 -115 24 -113 q 9 -115 14 -117 q 1 -108 3 -113 q 1 -98 -1 -103 l 298 629 q 308 638 301 635 q 321 638 314 641 m 85 410 l 85 410 q 75 401 77 406 q 73 397 73 399 q 74 393 73 395 q 83 386 77 389 q 89 384 85 385 q 93 384 91 384 q 94 384 94 384 q 94 384 94 384 l 95 384 l 96 384 q 113 389 104 385 q 127 397 121 392 q 141 410 135 404 q 151 426 146 418 q 165 462 161 443 q 167 479 167 471 q 164 494 167 488 q 162 496 163 496 q 161 497 161 496 q 160 497 161 497 q 155 496 158 497 q 147 494 151 496 q 132 485 139 490 q 130 484 131 484 q 130 484 130 484 q 127 481 128 482 q 125 479 126 480 q 119 474 122 477 q 115 472 117 473 q 103 469 110 468 q 92 475 97 469 q 89 486 88 480 q 95 497 90 492 l 95 497 q 104 505 99 500 q 106 506 105 505 q 112 511 109 509 q 119 519 116 515 q 122 522 121 521 q 123 523 123 523 q 124 525 123 524 q 126 527 125 526 l 130 531 q 132 534 130 532 q 132 536 132 535 q 135 539 134 537 q 135 540 135 540 q 136 540 135 540 q 138 544 136 542 q 142 553 140 549 q 145 562 144 557 q 145 563 145 562 q 146 566 146 564 l 146 568 l 146 570 q 146 572 146 571 q 146 572 146 572 q 146 572 146 572 q 145 572 145 572 q 144 572 144 572 q 144 572 144 572 q 142 572 143 572 l 141 570 q 139 570 140 570 q 132 565 136 568 l 127 562 q 125 559 126 561 q 124 559 125 559 l 122 557 l 120 555 l 116 551 q 103 546 111 546 q 91 551 96 546 q 86 564 85 557 q 91 576 86 570 q 92 576 92 576 l 92 576 l 96 581 l 98 583 l 100 585 q 102 586 101 585 q 106 589 104 587 l 111 593 q 123 600 117 597 q 128 603 125 602 q 130 604 129 603 q 133 604 132 604 q 134 605 134 605 q 136 606 135 605 q 138 606 137 606 q 160 604 147 609 q 163 604 161 604 q 165 602 164 603 q 165 602 165 602 q 171 597 169 600 q 174 592 173 595 q 175 591 175 592 q 177 587 176 589 q 180 568 180 576 l 180 564 l 179 561 q 178 555 179 557 q 178 553 178 554 q 173 540 176 547 q 167 528 170 534 q 167 528 167 528 q 167 528 167 528 q 181 522 174 526 q 192 507 189 515 q 198 479 199 492 q 195 455 197 467 q 177 411 189 431 q 146 375 165 391 q 124 362 136 367 q 99 355 113 357 l 98 355 l 96 355 q 95 355 96 355 q 92 355 94 355 q 85 356 89 355 q 71 360 78 357 q 49 382 57 366 q 45 399 45 389 q 51 415 46 408 q 61 427 55 422 q 73 434 66 431 q 83 434 78 436 q 91 427 88 433 q 92 417 94 422 q 85 410 90 412 l 85 410 m 145 574 l 145 574 q 145 574 145 574 q 145 574 145 574 q 145 574 145 574 q 145 574 145 574 q 145 574 145 574 q 145 574 145 574 q 145 574 145 574 q 145 574 145 574 q 145 574 145 574 z "},"¿":{"ha":310,"x_min":11,"x_max":277,"o":"m 129 -220 l 109 -219 l 108 -218 q 85 -215 102 -218 q 24 -174 44 -208 q 11 -119 11 -151 q 76 74 11 -50 q 168 230 117 149 q 177 244 174 239 q 203 288 201 285 q 217 312 214 309 q 229 337 224 324 q 230 340 229 339 q 231 343 231 342 q 239 376 231 344 q 239 382 239 378 q 243 422 243 410 q 256 435 245 435 q 271 420 271 435 q 263 361 269 404 q 247 314 252 314 q 214 256 231 285 q 195 224 206 241 q 40 -119 40 -18 q 92 -185 40 -175 q 114 -188 97 -188 q 149 -186 146 -188 q 191 -172 173 -184 q 234 -75 234 -143 q 233 -56 234 -62 q 249 -34 233 -34 q 267 -49 264 -34 l 269 -61 l 268 -95 q 254 -146 267 -117 q 170 -215 232 -201 q 157 -217 163 -216 q 143 -218 150 -218 q 129 -220 137 -219 m 258 457 q 248 460 254 457 q 239 475 239 465 l 240 481 q 245 503 242 487 q 244 515 245 513 q 243 518 243 516 q 258 532 243 532 q 271 520 267 532 q 275 484 273 494 q 277 474 277 477 q 274 465 277 471 q 258 457 269 457 m 244 514 m 245 511 l 245 513 l 245 511 z "}}}
